COMMENT @(#)36	1.4  src/bos/usr/lpp/kls/fonts/Hangul16.bdf, cmdkr, bos411, 9428A410j 2/24/94 11:31:58
COMMENT
COMMENT   COMPONENT_NAME: cmdkr
COMMENT
COMMENT   FUNCTIONS: none
COMMENT
COMMENT   ORIGINS: 27
COMMENT
COMMENT   IBM CONFIDENTIAL -- (IBM Confidential Restricted when
COMMENT   combined with the aggregated modules for this product)
COMMENT                    SOURCE MATERIALS
COMMENT
COMMENT   (C) COPYRIGHT International Business Machines Corp. 1992
COMMENT   All Rights Reserved
COMMENT   US Government Users Restricted Rights - Use, duplication or
COMMENT   disclosure restricted by GSA ADP Schedule Contract with IBM Corp.
COMMENT
STARTFONT 2.1  
COMMENT IBM Korea Hangul & Hanja fonts
FONT -ibm_aix-gothic-medium-r-normal--19-120-100-100-m-180-KSC5601.1987-0
SIZE 19 100 100  
FONTBOUNDINGBOX 18 19 0 -1  
STARTPROPERTIES 20 
FONTNAME_REGISTRY "-" 
FOUNDRY "IBM_AIX" 
FAMILY_NAME "Gothic" 
WEIGHT_NAME "Medium" 
SLANT "R" 
SETWIDTH_NAME "Normal" 
ADD_STYLE_NAME "" 
PIXEL_SIZE 19 
POINT_SIZE 120 
RESOLUTION_X 100 
RESOLUTION_Y 100 
SPACING "M" 
AVERAGE_WIDTH 180 
CHARSET_REGISTRY "ksc5601.1987" 
CHARSET_ENCODING "0" 
FONT_ASCENT 18 
FONT_DESCENT 1 
DEFAULT_CHAR 41377 
CAP_HEIGHT 19
Copyright "Copyright (c) 1992 IBM Korea, Inc."
ENDPROPERTIES 
CHARS 8224
STARTCHAR a1a1
ENCODING 41377 
SWIDTH 495 0
DWIDTH 18 0
BBX 18 19 0 -1
BITMAP 
000000
000000
000000
000000
000000
000000
000000
000000
000000
000000
000000
000000
000000
000000
000000
000000
000000
000000
000000
ENDCHAR
STARTCHAR a1a2
ENCODING 41378 
SWIDTH 495 0
DWIDTH 18 0
BBX 18 19 0 -1
BITMAP 
000000
000600
000300
000180
000180
000000
000000
000000
000000
000000
000000
000000
000000
000000
000000
000000
000000
000000
000000
ENDCHAR
STARTCHAR a1a3
ENCODING 41379 
SWIDTH 495 0
DWIDTH 18 0
BBX 18 19 0 -1
BITMAP 
000000
000300
000480
000480
000300
000000
000000
000000
000000
000000
000000
000000
000000
000000
000000
000000
000000
000000
000000
ENDCHAR
STARTCHAR a1a4
ENCODING 41380 
SWIDTH 495 0
DWIDTH 18 0
BBX 18 19 0 -1
BITMAP 
000000
000000
000000
000000
000000
000000
000000
000000
00c000
01e000
00c000
000000
000000
000000
000000
000000
000000
000000
000000
ENDCHAR
STARTCHAR a1a5
ENCODING 41381 
SWIDTH 495 0
DWIDTH 18 0
BBX 18 19 0 -1
BITMAP 
000000
000000
000000
000000
000000
000000
000000
000000
0c0c00
0c0c00
000000
000000
000000
000000
000000
000000
000000
000000
000000
ENDCHAR
STARTCHAR a1a6
ENCODING 41382 
SWIDTH 495 0
DWIDTH 18 0
BBX 18 19 0 -1
BITMAP 
000000
000000
000000
000000
000000
000000
000000
000000
30c300
30c300
000000
000000
000000
000000
000000
000000
000000
000000
000000
ENDCHAR
STARTCHAR a1a7
ENCODING 41383 
SWIDTH 495 0
DWIDTH 18 0
BBX 18 19 0 -1
BITMAP 
000000
033000
033000
000000
000000
000000
000000
000000
000000
000000
000000
000000
000000
000000
000000
000000
000000
000000
000000
ENDCHAR
STARTCHAR a1a8
ENCODING 41384 
SWIDTH 495 0
DWIDTH 18 0
BBX 18 19 0 -1
BITMAP 
000000
000000
000000
000000
000000
004000
008000
010400
020800
041000
082000
004000
008000
000000
000000
000000
000000
000000
000000
ENDCHAR
STARTCHAR a1a9
ENCODING 41385 
SWIDTH 495 0
DWIDTH 18 0
BBX 18 19 0 -1
BITMAP 
000000
000000
000000
000000
000000
000000
000000
000000
07f800
000000
000000
000000
000000
000000
000000
000000
000000
000000
000000
ENDCHAR
STARTCHAR a1aa
ENCODING 41386 
SWIDTH 495 0
DWIDTH 18 0
BBX 18 19 0 -1
BITMAP 
000000
000000
000000
000000
000000
000000
000000
000000
3fff00
000000
000000
000000
000000
000000
000000
000000
000000
000000
000000
ENDCHAR
STARTCHAR a1ab
ENCODING 41387 
SWIDTH 495 0
DWIDTH 18 0
BBX 18 19 0 -1
BITMAP 
000000
000000
012000
012000
012000
012000
012000
012000
012000
012000
012000
012000
012000
012000
012000
012000
000000
000000
000000
ENDCHAR
STARTCHAR a1ac
ENCODING 41388 
SWIDTH 495 0
DWIDTH 18 0
BBX 18 19 0 -1
BITMAP 
000000
000000
200000
100000
080000
040000
020000
010000
008000
004000
002000
001000
000800
000400
000200
000100
000000
000000
000000
ENDCHAR
STARTCHAR a3fe
ENCODING 41982 
SWIDTH 495 0
DWIDTH 18 0
BBX 18 19 0 -1
BITMAP 
000000
3fff00
000000
000000
000000
000000
000000
000000
000000
000000
000000
000000
000000
000000
000000
000000
000000
000000
000000
ENDCHAR
STARTCHAR a1ae
ENCODING 41390 
SWIDTH 495 0
DWIDTH 18 0
BBX 18 19 0 -1
BITMAP 
000000
000200
000400
000600
000600
000000
000000
000000
000000
000000
000000
000000
000000
000000
000000
000000
000000
000000
000000
ENDCHAR
STARTCHAR a1af
ENCODING 41391 
SWIDTH 495 0
DWIDTH 18 0
BBX 18 19 0 -1
BITMAP 
000000
300000
300000
100000
200000
000000
000000
000000
000000
000000
000000
000000
000000
000000
000000
000000
000000
000000
000000
ENDCHAR
STARTCHAR a1b0
ENCODING 41392 
SWIDTH 495 0
DWIDTH 18 0
BBX 18 19 0 -1
BITMAP 
000000
001200
002400
003600
003600
000000
000000
000000
000000
000000
000000
000000
000000
000000
000000
000000
000000
000000
000000
ENDCHAR
STARTCHAR a1b1
ENCODING 41393 
SWIDTH 495 0
DWIDTH 18 0
BBX 18 19 0 -1
BITMAP 
000000
360000
360000
120000
240000
000000
000000
000000
000000
000000
000000
000000
000000
000000
000000
000000
000000
000000
000000
ENDCHAR
STARTCHAR a1b2
ENCODING 41394 
SWIDTH 495 0
DWIDTH 18 0
BBX 18 19 0 -1
BITMAP 
000000
001000
002000
004000
008000
008000
008000
008000
008000
008000
008000
008000
008000
008000
004000
002000
001000
000000
000000
ENDCHAR
STARTCHAR a1b3
ENCODING 41395 
SWIDTH 495 0
DWIDTH 18 0
BBX 18 19 0 -1
BITMAP 
000000
020000
010000
008000
004000
004000
004000
004000
004000
004000
004000
004000
004000
004000
008000
010000
020000
000000
000000
ENDCHAR
STARTCHAR a1b4
ENCODING 41396 
SWIDTH 495 0
DWIDTH 18 0
BBX 18 19 0 -1
BITMAP 
000000
000000
000400
000800
001000
002000
004000
008000
010000
010000
008000
004000
002000
001000
000800
000400
000000
000000
000000
ENDCHAR
STARTCHAR a1b5
ENCODING 41397 
SWIDTH 495 0
DWIDTH 18 0
BBX 18 19 0 -1
BITMAP 
000000
000000
080000
040000
020000
010000
008000
004000
002000
002000
004000
008000
010000
020000
040000
080000
000000
000000
000000
ENDCHAR
STARTCHAR a1b6
ENCODING 41398 
SWIDTH 495 0
DWIDTH 18 0
BBX 18 19 0 -1
BITMAP 
000000
000480
000900
001200
002400
004800
009000
012000
024000
024000
012000
009000
004800
002400
001200
000900
000480
000000
000000
ENDCHAR
STARTCHAR a1b7
ENCODING 41399 
SWIDTH 495 0
DWIDTH 18 0
BBX 18 19 0 -1
BITMAP 
000000
480000
240000
120000
090000
048000
024000
012000
009000
009000
012000
024000
048000
090000
120000
240000
480000
000000
000000
ENDCHAR
STARTCHAR a1b8
ENCODING 41400 
SWIDTH 495 0
DWIDTH 18 0
BBX 18 19 0 -1
BITMAP 
000000
00fe00
008000
008000
008000
008000
008000
008000
008000
008000
008000
008000
000000
000000
000000
000000
000000
000000
000000
ENDCHAR
STARTCHAR a1b9
ENCODING 41401 
SWIDTH 495 0
DWIDTH 18 0
BBX 18 19 0 -1
BITMAP 
000000
000000
000000
000000
000000
000000
008000
008000
008000
008000
008000
008000
008000
008000
008000
008000
3f8000
000000
000000
ENDCHAR
STARTCHAR a1ba
ENCODING 41402 
SWIDTH 495 0
DWIDTH 18 0
BBX 18 19 0 -1
BITMAP 
000000
007f80
004080
005f80
005000
005000
005000
005000
005000
005000
005000
007000
000000
000000
000000
000000
000000
000000
000000
ENDCHAR
STARTCHAR a1bb
ENCODING 41403 
SWIDTH 495 0
DWIDTH 18 0
BBX 18 19 0 -1
BITMAP 
000000
000000
000000
000000
000000
000000
038000
028000
028000
028000
028000
028000
028000
028000
7e8000
408000
7f8000
000000
000000
ENDCHAR
STARTCHAR a1bc
ENCODING 41404 
SWIDTH 495 0
DWIDTH 18 0
BBX 18 19 0 -1
BITMAP 
000000
007c00
007800
007800
007000
007000
006000
006000
006000
006000
006000
006000
007000
007000
007800
007800
007c00
000000
000000
ENDCHAR
STARTCHAR a1bd
ENCODING 41405 
SWIDTH 495 0
DWIDTH 18 0
BBX 18 19 0 -1
BITMAP 
000000
0f8000
078000
078000
038000
038000
018000
018000
018000
018000
018000
018000
038000
038000
078000
078000
0f8000
000000
000000
ENDCHAR
STARTCHAR a1be
ENCODING 41406 
SWIDTH 495 0
DWIDTH 18 0
BBX 18 19 0 -1
BITMAP 
000000
000000
008000
008000
008000
008000
1ffc00
008000
008000
008000
008000
008000
000000
000000
1ffc00
000000
000000
000000
000000
ENDCHAR
STARTCHAR a1bf
ENCODING 41407 
SWIDTH 495 0
DWIDTH 18 0
BBX 18 19 0 -1
BITMAP 
000000
000000
000000
200200
100400
080800
041000
022000
014000
008000
014000
022000
041000
080800
100400
200200
000000
000000
000000
ENDCHAR
STARTCHAR a1c0
ENCODING 41408 
SWIDTH 495 0
DWIDTH 18 0
BBX 18 19 0 -1
BITMAP 
000000
000000
000000
00c000
00c000
000000
000000
000000
1ffe00
000000
000000
000000
00c000
00c000
000000
000000
000000
000000
000000
ENDCHAR
STARTCHAR a1c4
ENCODING 41412 
SWIDTH 495 0
DWIDTH 18 0
BBX 18 19 0 -1
BITMAP 
000000
000000
000000
000000
000000
1c1c00
222200
414100
408100
414100
222200
1c1c00
000000
000000
000000
000000
000000
000000
000000
ENDCHAR
STARTCHAR a1c5
ENCODING 41413 
SWIDTH 495 0
DWIDTH 18 0
BBX 18 19 0 -1
BITMAP 
000000
000000
000000
000000
00c000
00c000
000000
000000
000000
000000
000000
000000
180600
180600
000000
000000
000000
000000
000000
ENDCHAR
STARTCHAR a1c6
ENCODING 41414 
SWIDTH 495 0
DWIDTH 18 0
BBX 18 19 0 -1
BITMAP 
000000
180000
240000
240000
180000
000000
000000
000000
000000
000000
000000
000000
000000
000000
000000
000000
000000
000000
000000
ENDCHAR
STARTCHAR a1c7
ENCODING 41415 
SWIDTH 495 0
DWIDTH 18 0
BBX 18 19 0 -1
BITMAP 
000000
040000
080000
100000
200000
000000
000000
000000
000000
000000
000000
000000
000000
000000
000000
000000
000000
000000
000000
ENDCHAR
STARTCHAR a1c8
ENCODING 41416 
SWIDTH 495 0
DWIDTH 18 0
BBX 18 19 0 -1
BITMAP 
000000
048000
090000
120000
240000
000000
000000
000000
000000
000000
000000
000000
000000
000000
000000
000000
000000
000000
000000
ENDCHAR
STARTCHAR a1c9
ENCODING 41417 
SWIDTH 495 0
DWIDTH 18 0
BBX 18 19 0 -1
BITMAP 
000000
300000
48f200
490a00
320600
040200
040200
040000
040000
040000
040000
040200
040200
020400
010800
00f000
000000
000000
000000
ENDCHAR
STARTCHAR a3de
ENCODING 41950 
SWIDTH 495 0
DWIDTH 18 0
BBX 18 19 0 -1
BITMAP 
000000
00c000
012000
000000
000000
000000
000000
000000
000000
000000
000000
000000
000000
000000
000000
000000
000000
000000
000000
ENDCHAR
STARTCHAR a1cc
ENCODING 41420 
SWIDTH 495 0
DWIDTH 18 0
BBX 18 19 0 -1
BITMAP 
000000
000000
007000
008800
008800
008000
008000
07fc00
008000
008000
008000
0e8000
118000
108200
114400
0e3800
000000
000000
000000
ENDCHAR
STARTCHAR a1cd
ENCODING 41421 
SWIDTH 495 0
DWIDTH 18 0
BBX 18 19 0 -1
BITMAP 
000000
000000
100400
080800
041000
022000
014000
008000
1ffc00
008000
008000
1ffc00
008000
008000
008000
008000
000000
000000
000000
ENDCHAR
STARTCHAR a7a2
ENCODING 42914 
SWIDTH 495 0
DWIDTH 18 0
BBX 18 19 0 -1
BITMAP 
000000
000000
000c00
001200
001200
002100
002100
1b2100
24a200
24a200
249400
249400
248800
248800
249480
24a300
000000
000000
000000
ENDCHAR
STARTCHAR a7a3
ENCODING 42915 
SWIDTH 495 0
DWIDTH 18 0
BBX 18 19 0 -1
BITMAP 
000000
000000
010c00
011200
011200
012100
012100
0f2100
112200
212200
211400
211400
210800
210800
111480
0f2300
000000
000000
000000
ENDCHAR
STARTCHAR a7a4
ENCODING 42916 
SWIDTH 495 0
DWIDTH 18 0
BBX 18 19 0 -1
BITMAP 
000000
000000
00c000
012000
012000
021000
021000
021000
022000
022000
014000
014000
008000
008000
014800
023000
000000
000000
000000
ENDCHAR
STARTCHAR a7a6
ENCODING 42918 
SWIDTH 495 0
DWIDTH 18 0
BBX 18 19 0 -1
BITMAP 
000000
000000
000000
000000
000000
000000
0e0e00
111100
202000
202000
202000
202000
202000
111100
0e0e00
000000
000000
000000
000000
ENDCHAR
STARTCHAR a7ae
ENCODING 42926 
SWIDTH 495 0
DWIDTH 18 0
BBX 18 19 0 -1
BITMAP 
000000
000000
000000
000000
000000
000000
1b1b00
24a480
24a480
24a480
24a480
24a480
24a480
24a480
24a480
000000
000000
000000
000000
ENDCHAR
STARTCHAR a7af
ENCODING 42927 
SWIDTH 495 0
DWIDTH 18 0
BBX 18 19 0 -1
BITMAP 
000000
000000
000000
000000
000000
000000
0e3600
114900
204900
204900
204900
204900
204900
114900
0e4900
000000
000000
000000
000000
ENDCHAR
STARTCHAR a7b0
ENCODING 42928 
SWIDTH 495 0
DWIDTH 18 0
BBX 18 19 0 -1
BITMAP 
000000
000000
200000
200000
200000
200000
200000
213600
224900
244900
284900
304900
284900
244900
224900
614900
000000
000000
000000
ENDCHAR
STARTCHAR a7b7
ENCODING 42935 
SWIDTH 495 0
DWIDTH 18 0
BBX 18 19 0 -1
BITMAP 
000000
000000
000000
000000
000000
000000
1b1e80
24a100
24a100
249e00
249000
249000
249f00
24a080
24a080
001f00
000000
000000
000000
ENDCHAR
STARTCHAR a7b8
ENCODING 42936 
SWIDTH 495 0
DWIDTH 18 0
BBX 18 19 0 -1
BITMAP 
000000
000000
200000
200000
200000
200000
200000
213d00
224200
244200
283c00
302000
282000
243e00
224100
614100
003e00
000000
000000
ENDCHAR
STARTCHAR a1d7
ENCODING 41431 
SWIDTH 495 0
DWIDTH 18 0
BBX 18 19 0 -1
BITMAP 
000000
01c000
022000
020000
020000
010000
008000
014000
022000
022000
014000
008000
004000
002000
002000
022000
01c000
000000
000000
ENDCHAR
STARTCHAR a1d8
ENCODING 41432 
SWIDTH 495 0
DWIDTH 18 0
BBX 18 19 0 -1
BITMAP 
000000
000000
20c100
10c200
080400
040800
021000
012000
30c300
30c300
012000
021000
040800
080400
10c200
20c100
000000
000000
000000
ENDCHAR
STARTCHAR a1d9
ENCODING 41433 
SWIDTH 495 0
DWIDTH 18 0
BBX 18 19 0 -1
BITMAP 
000000
000000
008000
014000
014000
022000
022000
7c1f00
200200
180c00
041000
088800
136400
141400
280a00
300600
000000
000000
000000
ENDCHAR
STARTCHAR a1da
ENCODING 41434 
SWIDTH 495 0
DWIDTH 18 0
BBX 18 19 0 -1
BITMAP 
000000
000000
008000
01c000
01c000
03e000
03e000
7fff00
3ffe00
0ff800
07f000
0ff800
1f7800
1c1c00
380e00
300600
000000
000000
000000
ENDCHAR
STARTCHAR a1db
ENCODING 41435 
SWIDTH 495 0
DWIDTH 18 0
BBX 18 19 0 -1
BITMAP 
000000
000000
01e000
061800
080400
100200
100200
200100
200100
200100
200100
100200
100200
080400
061800
01e000
000000
000000
000000
ENDCHAR
STARTCHAR a1dc
ENCODING 41436 
SWIDTH 495 0
DWIDTH 18 0
BBX 18 19 0 -1
BITMAP 
000000
000000
000000
01e000
07f800
0ffc00
0ffc00
1ffe00
1ffe00
1ffe00
1ffe00
0ffc00
0ffc00
07f800
01e000
000000
000000
000000
000000
ENDCHAR
STARTCHAR a1dd
ENCODING 41437 
SWIDTH 495 0
DWIDTH 18 0
BBX 18 19 0 -1
BITMAP 
000000
000000
000000
01e000
061800
080400
09e400
121200
121200
121200
121200
09e400
080400
061800
01e000
000000
000000
000000
000000
ENDCHAR
STARTCHAR a1de
ENCODING 41438 
SWIDTH 495 0
DWIDTH 18 0
BBX 18 19 0 -1
BITMAP 
000000
000000
00c000
012000
021000
040800
080400
100200
200100
200100
100200
080400
040800
021000
012000
00c000
000000
000000
000000
ENDCHAR
STARTCHAR a1df
ENCODING 41439 
SWIDTH 495 0
DWIDTH 18 0
BBX 18 19 0 -1
BITMAP 
000000
000000
000000
00c000
01e000
03f000
07f800
0ffc00
1ffe00
1ffe00
0ffc00
07f800
03f000
01e000
00c000
000000
000000
000000
000000
ENDCHAR
STARTCHAR a1e0
ENCODING 41440 
SWIDTH 495 0
DWIDTH 18 0
BBX 18 19 0 -1
BITMAP 
000000
000000
3fff00
200100
200100
200100
200100
200100
200100
200100
200100
200100
200100
200100
200100
3fff00
000000
000000
000000
ENDCHAR
STARTCHAR a1e1
ENCODING 41441 
SWIDTH 495 0
DWIDTH 18 0
BBX 18 19 0 -1
BITMAP 
000000
000000
000000
1ffe00
1ffe00
1ffe00
1ffe00
1ffe00
1ffe00
1ffe00
1ffe00
1ffe00
1ffe00
1ffe00
1ffe00
000000
000000
000000
000000
ENDCHAR
STARTCHAR a1e2
ENCODING 41442 
SWIDTH 495 0
DWIDTH 18 0
BBX 18 19 0 -1
BITMAP 
000000
000000
008000
014000
014000
022000
022000
041000
041000
080800
080800
100400
100400
200200
200200
7fff00
000000
000000
000000
ENDCHAR
STARTCHAR a1e3
ENCODING 41443 
SWIDTH 495 0
DWIDTH 18 0
BBX 18 19 0 -1
BITMAP 
000000
000000
000000
008000
01c000
01c000
03e000
03e000
07f000
07f000
0ff800
0ff800
1ffc00
1ffc00
3ffe00
000000
000000
000000
000000
ENDCHAR
STARTCHAR a1e4
ENCODING 41444 
SWIDTH 495 0
DWIDTH 18 0
BBX 18 19 0 -1
BITMAP 
000000
000000
7fff00
200200
200200
100400
100400
080800
080800
041000
041000
022000
022000
014000
014000
008000
000000
000000
000000
ENDCHAR
STARTCHAR a1e5
ENCODING 41445 
SWIDTH 495 0
DWIDTH 18 0
BBX 18 19 0 -1
BITMAP 
000000
000000
000000
3ffe00
1ffc00
1ffc00
0ff800
0ff800
07f000
07f000
03e000
03e000
01c000
01c000
008000
000000
000000
000000
000000
ENDCHAR
STARTCHAR a1e6
ENCODING 41446 
SWIDTH 495 0
DWIDTH 18 0
BBX 18 19 0 -1
BITMAP 
000000
000000
000000
000000
000800
000400
000200
000100
7fff80
000100
000200
000400
000800
000000
000000
000000
000000
000000
000000
ENDCHAR
STARTCHAR a1e7
ENCODING 41447 
SWIDTH 495 0
DWIDTH 18 0
BBX 18 19 0 -1
BITMAP 
000000
000000
000000
000000
040000
080000
100000
200000
7fff80
200000
100000
080000
040000
000000
000000
000000
000000
000000
000000
ENDCHAR
STARTCHAR a1e8
ENCODING 41448 
SWIDTH 495 0
DWIDTH 18 0
BBX 18 19 0 -1
BITMAP 
000000
008000
01c000
02a000
049000
088800
008000
008000
008000
008000
008000
008000
008000
008000
008000
008000
008000
000000
000000
ENDCHAR
STARTCHAR a1e9
ENCODING 41449 
SWIDTH 495 0
DWIDTH 18 0
BBX 18 19 0 -1
BITMAP 
000000
008000
008000
008000
008000
008000
008000
008000
008000
008000
008000
008000
088800
049000
02a000
01c000
008000
000000
000000
ENDCHAR
STARTCHAR a1ea
ENCODING 41450 
SWIDTH 495 0
DWIDTH 18 0
BBX 18 19 0 -1
BITMAP 
000000
000000
000000
000000
000000
080400
100200
200100
7fff80
200100
100200
080400
000000
000000
000000
000000
000000
000000
000000
ENDCHAR
STARTCHAR a1eb
ENCODING 41451 
SWIDTH 495 0
DWIDTH 18 0
BBX 18 19 0 -1
BITMAP 
000000
000000
000000
1ffe00
1ffe00
1ffe00
1ffe00
000000
000000
000000
000000
1ffe00
1ffe00
1ffe00
1ffe00
000000
000000
000000
000000
ENDCHAR
STARTCHAR a3db
ENCODING 41947 
SWIDTH 495 0
DWIDTH 18 0
BBX 18 19 0 -1
BITMAP 
000000
000000
001f00
001000
001000
001000
001000
001000
001000
001000
001000
001000
001000
001000
001000
001e00
000000
000000
000000
ENDCHAR
STARTCHAR a3dd
ENCODING 41949 
SWIDTH 495 0
DWIDTH 18 0
BBX 18 19 0 -1
BITMAP 
000000
000000
3e0000
020000
020000
020000
020000
020000
020000
020000
020000
020000
020000
020000
020000
3e0000
000000
000000
000000
ENDCHAR
STARTCHAR a1c1
ENCODING 41409 
SWIDTH 495 0
DWIDTH 18 0
BBX 18 19 0 -1
BITMAP 
000000
100000
100000
080000
080000
040000
7fff80
020000
010000
008000
004000
7fff80
002000
001000
000800
000400
000200
000000
000000
ENDCHAR
STARTCHAR a1c2
ENCODING 41410 
SWIDTH 495 0
DWIDTH 18 0
BBX 18 19 0 -1
BITMAP 
000000
000000
000700
003800
01c000
0e0000
300000
0e0000
01c000
003800
000700
000000
000000
000000
3fff00
000000
000000
000000
000000
ENDCHAR
STARTCHAR a1c3
ENCODING 41411 
SWIDTH 495 0
DWIDTH 18 0
BBX 18 19 0 -1
BITMAP 
000000
000000
380000
070000
00e000
001c00
000300
001c00
00e000
070000
380000
000000
000000
000000
3fff00
000000
000000
000000
000000
ENDCHAR
STARTCHAR a1ca
ENCODING 41418 
SWIDTH 495 0
DWIDTH 18 0
BBX 18 19 0 -1
BITMAP 
000000
00c000
012000
012000
00c000
000000
008000
014000
014000
022000
021000
07f800
040800
080400
3e1f00
000000
000000
000000
000000
ENDCHAR
STARTCHAR a1ce
ENCODING 41422 
SWIDTH 495 0
DWIDTH 18 0
BBX 18 19 0 -1
BITMAP 
000000
008000
01c000
02a000
049000
088800
108400
008000
008000
03e000
041000
080800
080800
080800
080800
041000
03e000
000000
000000
ENDCHAR
STARTCHAR a1cf
ENCODING 41423 
SWIDTH 495 0
DWIDTH 18 0
BBX 18 19 0 -1
BITMAP 
000000
03e000
041000
080800
080800
080800
080800
041000
03e000
008000
008000
3ffe00
008000
008000
008000
008000
008000
000000
000000
ENDCHAR
STARTCHAR a1d0
ENCODING 41424 
SWIDTH 495 0
DWIDTH 18 0
BBX 18 19 0 -1
BITMAP 
000000
000000
000000
000400
000800
001000
002000
004000
008000
010000
020000
040000
080000
1ffe00
000000
000000
000000
000000
000000
ENDCHAR
STARTCHAR a1d1
ENCODING 41425 
SWIDTH 495 0
DWIDTH 18 0
BBX 18 19 0 -1
BITMAP 
000000
000000
000000
008000
008000
008000
008000
008000
008000
008000
008000
008000
008000
1ffe00
000000
000000
000000
000000
000000
ENDCHAR
STARTCHAR a1d2
ENCODING 41426 
SWIDTH 495 0
DWIDTH 18 0
BBX 18 19 0 -1
BITMAP 
000000
03f000
1c0e00
600180
000000
000000
000000
000000
000000
000000
000000
000000
000000
000000
000000
000000
000000
000000
000000
ENDCHAR
STARTCHAR a1d3
ENCODING 41427 
SWIDTH 495 0
DWIDTH 18 0
BBX 18 19 0 -1
BITMAP 
000000
000000
00f000
010800
020800
000800
000800
01c800
023000
041000
081000
082000
082000
084000
078000
000000
000000
000000
000000
ENDCHAR
STARTCHAR a1d4
ENCODING 41428 
SWIDTH 495 0
DWIDTH 18 0
BBX 18 19 0 -1
BITMAP 
000000
000000
3ffe00
100400
100400
080800
080800
041000
041000
022000
022000
014000
014000
008000
008000
000000
000000
000000
000000
ENDCHAR
STARTCHAR a1d5
ENCODING 41429 
SWIDTH 495 0
DWIDTH 18 0
BBX 18 19 0 -1
BITMAP 
000000
000000
000000
000000
1ffe00
000000
000000
000000
1ffe00
000000
000000
000000
1ffe00
000000
000000
000000
000000
000000
000000
ENDCHAR
STARTCHAR a1d6
ENCODING 41430 
SWIDTH 495 0
DWIDTH 18 0
BBX 18 19 0 -1
BITMAP 
000000
000000
000000
0c0000
0c0000
000000
1ffe00
000000
000000
000000
1ffe00
000000
000c00
000c00
000000
000000
000000
000000
000000
ENDCHAR
STARTCHAR a1ec
ENCODING 41452 
SWIDTH 495 0
DWIDTH 18 0
BBX 18 19 0 -1
BITMAP 
000000
000000
002100
004200
018c00
021000
0c6000
108000
210000
108000
084000
042000
031800
008400
004200
002100
000000
000000
000000
ENDCHAR
STARTCHAR a1ed
ENCODING 41453 
SWIDTH 495 0
DWIDTH 18 0
BBX 18 19 0 -1
BITMAP 
000000
000000
210000
108000
0c6000
021000
018c00
004200
002100
004200
008400
010800
063000
084000
108000
210000
000000
000000
000000
ENDCHAR
STARTCHAR a1ee
ENCODING 41454 
SWIDTH 495 0
DWIDTH 18 0
BBX 18 19 0 -1
BITMAP 
000000
007f80
004000
004000
008000
008000
008000
008000
010000
010000
010000
110000
320000
4a0000
0a0000
040000
040000
000000
000000
ENDCHAR
STARTCHAR a1ef
ENCODING 41455 
SWIDTH 495 0
DWIDTH 18 0
BBX 18 19 0 -1
BITMAP 
000000
000000
000000
000000
000000
0e1c00
102200
204100
204100
208100
208100
110200
0e1c00
000000
000000
000000
000000
000000
000000
ENDCHAR
STARTCHAR a1cb
ENCODING 41419 
SWIDTH 495 0
DWIDTH 18 0
BBX 18 19 0 -1
BITMAP 
000000
000000
008000
008000
03f000
048800
088400
088000
088000
088000
088000
088400
048800
03f000
008000
008000
000000
000000
000000
ENDCHAR
STARTCHAR a3ae
ENCODING 41902
SWIDTH 495 0
DWIDTH 18 0
BBX 18 19 0 -1
BITMAP
000000
000000
000000
000000
000000
000000
000000
000000
000000
000000
000000
000000
180000
180000
000000
000000
000000
000000
000000
ENDCHAR
STARTCHAR a3bc
ENCODING 41916 
SWIDTH 495 0
DWIDTH 18 0
BBX 18 19 0 -1
BITMAP 
000000
000000
000000
000000
000600
001800
006000
018000
060000
180000
060000
018000
006000
001800
000600
000000
000000
000000
000000
ENDCHAR
STARTCHAR a3a8
ENCODING 41896 
SWIDTH 495 0
DWIDTH 18 0
BBX 18 19 0 -1
BITMAP 
000000
000200
000400
000800
000800
001000
001000
002000
002000
002000
002000
001000
001000
000800
000800
000400
000200
000000
000000
ENDCHAR
STARTCHAR a3ab
ENCODING 41899 
SWIDTH 495 0
DWIDTH 18 0
BBX 18 19 0 -1
BITMAP 
000000
000000
000000
008000
008000
008000
008000
008000
1ffe00
008000
008000
008000
008000
008000
008000
000000
000000
000000
000000
ENDCHAR
STARTCHAR a3fc
ENCODING 41980 
SWIDTH 495 0
DWIDTH 18 0
BBX 18 19 0 -1
BITMAP 
000000
000000
008000
008000
008000
008000
008000
008000
008000
008000
008000
008000
008000
008000
008000
008000
000000
000000
000000
ENDCHAR
STARTCHAR a3a6
ENCODING 41894 
SWIDTH 495 0
DWIDTH 18 0
BBX 18 19 0 -1
BITMAP 
000000
000000
038000
044000
082000
082000
044000
028000
010000
028000
044200
082200
081400
080800
041400
03e200
000000
000000
000000
ENDCHAR
STARTCHAR a3a1
ENCODING 41889 
SWIDTH 495 0
DWIDTH 18 0
BBX 18 19 0 -1
BITMAP 
000000
000000
008000
008000
008000
008000
008000
008000
008000
008000
008000
000000
000000
008000
01c000
008000
000000
000000
000000
ENDCHAR
STARTCHAR a3a4
ENCODING 41892 
SWIDTH 495 0
DWIDTH 18 0
BBX 18 19 0 -1
BITMAP 
000000
004000
004000
03f800
044400
084200
084000
084000
07f800
004400
004200
004200
084200
044400
03f800
004000
004000
000000
000000
ENDCHAR
STARTCHAR a3aa
ENCODING 41898 
SWIDTH 495 0
DWIDTH 18 0
BBX 18 19 0 -1
BITMAP 
000000
000000
000000
008000
008000
108400
088800
049000
022000
000000
022000
049000
088800
108400
008000
008000
000000
000000
000000
ENDCHAR
STARTCHAR a3a9
ENCODING 41897 
SWIDTH 495 0
DWIDTH 18 0
BBX 18 19 0 -1
BITMAP 
000000
200000
100000
080000
080000
040000
040000
020000
020000
020000
020000
040000
040000
080000
080000
100000
200000
000000
000000
ENDCHAR
STARTCHAR a3bb
ENCODING 41915 
SWIDTH 495 0
DWIDTH 18 0
BBX 18 19 0 -1
BITMAP 
000000
000000
000000
000000
000000
00c000
00c000
000000
000000
000000
000000
000000
00c000
00c000
004000
008000
000000
000000
000000
ENDCHAR
STARTCHAR a1fe
ENCODING 41470 
SWIDTH 495 0
DWIDTH 18 0
BBX 18 19 0 -1
BITMAP 
000000
000000
000000
000000
000000
000000
3fff00
000100
000100
000100
000100
000100
000000
000000
000000
000000
000000
000000
000000
ENDCHAR
STARTCHAR a3ad
ENCODING 41901 
SWIDTH 495 0
DWIDTH 18 0
BBX 18 19 0 -1
BITMAP 
000000
000000
000000
000000
000000
000000
000000
000000
1ffe00
000000
000000
000000
000000
000000
000000
000000
000000
000000
000000
ENDCHAR
STARTCHAR a3af
ENCODING 41903 
SWIDTH 495 0
DWIDTH 18 0
BBX 18 19 0 -1
BITMAP 
000000
000000
000100
000200
000400
000800
001000
002000
004000
008000
010000
020000
040000
080000
100000
200000
000000
000000
000000
ENDCHAR
STARTCHAR a3ac
ENCODING 41900 
SWIDTH 495 0
DWIDTH 18 0
BBX 18 19 0 -1
BITMAP 
000000
000000
000000
000000
000000
000000
000000
000000
000000
000000
000000
000000
180000
180000
080000
100000
000000
000000
000000
ENDCHAR
STARTCHAR a3a5
ENCODING 41893 
SWIDTH 495 0
DWIDTH 18 0
BBX 18 19 0 -1
BITMAP 
000000
000000
0e0100
110200
208400
208800
209000
112000
0e4000
009c00
012200
024100
044100
084100
102200
201c00
000000
000000
000000
ENDCHAR
STARTCHAR a3df
ENCODING 41951 
SWIDTH 495 0
DWIDTH 18 0
BBX 18 19 0 -1
BITMAP 
000000
000000
000000
000000
000000
000000
000000
000000
000000
000000
000000
000000
000000
000000
000000
000000
3fff00
000000
000000
ENDCHAR
STARTCHAR a3be
ENCODING 41918 
SWIDTH 495 0
DWIDTH 18 0
BBX 18 19 0 -1
BITMAP 
000000
000000
000000
000000
180000
060000
018000
006000
001800
000600
001800
006000
018000
060000
180000
000000
000000
000000
000000
ENDCHAR
STARTCHAR a3bf
ENCODING 41919 
SWIDTH 495 0
DWIDTH 18 0
BBX 18 19 0 -1
BITMAP 
000000
000000
03e000
041000
080800
080800
081000
002000
004000
008000
008000
008000
000000
008000
01c000
008000
000000
000000
000000
ENDCHAR
STARTCHAR a3e0
ENCODING 41952 
SWIDTH 495 0
DWIDTH 18 0
BBX 18 19 0 -1
BITMAP 
000000
010000
008000
004000
000000
000000
000000
000000
000000
000000
000000
000000
000000
000000
000000
000000
000000
000000
000000
ENDCHAR
STARTCHAR a3ba
ENCODING 41914 
SWIDTH 495 0
DWIDTH 18 0
BBX 18 19 0 -1
BITMAP 
000000
000000
000000
00c000
00c000
000000
000000
000000
000000
000000
000000
00c000
00c000
000000
000000
000000
000000
000000
000000
ENDCHAR
STARTCHAR a3a3
ENCODING 41891 
SWIDTH 495 0
DWIDTH 18 0
BBX 18 19 0 -1
BITMAP 
000000
000000
040800
040800
040800
3fff00
040800
040800
040800
040800
040800
040800
3fff00
040800
040800
040800
000000
000000
000000
ENDCHAR
STARTCHAR a3c0
ENCODING 41920 
SWIDTH 495 0
DWIDTH 18 0
BBX 18 19 0 -1
BITMAP 
000000
000000
07f800
080400
100200
200100
20e100
211100
221100
241100
241100
243100
23d100
100e00
080000
07f800
000000
000000
000000
ENDCHAR
STARTCHAR a3a7
ENCODING 41895 
SWIDTH 495 0
DWIDTH 18 0
BBX 18 19 0 -1
BITMAP 
000000
00c000
00c000
00c000
000000
000000
000000
000000
000000
000000
000000
000000
000000
000000
000000
000000
000000
000000
000000
ENDCHAR
STARTCHAR a3bd
ENCODING 41917 
SWIDTH 495 0
DWIDTH 18 0
BBX 18 19 0 -1
BITMAP 
000000
000000
000000
000000
000000
000000
000000
1ffe00
000000
1ffe00
000000
000000
000000
000000
000000
000000
000000
000000
000000
ENDCHAR
STARTCHAR a3e1
ENCODING 41953 
SWIDTH 495 0
DWIDTH 18 0
BBX 18 19 0 -1
BITMAP 
000000
000000
000000
000000
03f000
040800
080400
000400
07f400
080c00
100400
100400
100400
100400
080a00
07f100
000000
000000
000000
ENDCHAR
STARTCHAR a3e2
ENCODING 41954 
SWIDTH 495 0
DWIDTH 18 0
BBX 18 19 0 -1
BITMAP 
000000
080000
080000
080000
09f000
0a0800
0c0400
080200
080200
080200
080200
080200
080200
0c0400
0a0800
09f000
000000
000000
000000
ENDCHAR
STARTCHAR a3e3
ENCODING 41955 
SWIDTH 495 0
DWIDTH 18 0
BBX 18 19 0 -1
BITMAP 
000000
000000
000000
000000
03f000
040800
080400
100200
100000
100000
100000
100000
100200
080400
040800
03f000
000000
000000
000000
ENDCHAR
STARTCHAR a3e4
ENCODING 41956 
SWIDTH 495 0
DWIDTH 18 0
BBX 18 19 0 -1
BITMAP 
000000
000200
000200
000200
03f200
040a00
080600
100200
100200
100200
100200
100200
100200
080600
040a00
03f200
000000
000000
000000
ENDCHAR
STARTCHAR a3e5
ENCODING 41957 
SWIDTH 495 0
DWIDTH 18 0
BBX 18 19 0 -1
BITMAP 
000000
000000
000000
000000
03f000
040800
080400
100200
100200
1ffe00
100000
100000
100200
080400
040800
03f000
000000
000000
000000
ENDCHAR
STARTCHAR a3e6
ENCODING 41958 
SWIDTH 495 0
DWIDTH 18 0
BBX 18 19 0 -1
BITMAP 
000000
007800
008000
010000
0ffc00
010000
010000
010000
010000
010000
010000
010000
010000
010000
010000
010000
000000
000000
000000
ENDCHAR
STARTCHAR a3e7
ENCODING 41959 
SWIDTH 495 0
DWIDTH 18 0
BBX 18 19 0 -1
BITMAP 
000000
000000
000000
000000
03f200
040a00
080600
100200
100200
100200
100200
080600
040a00
03f200
000200
000400
03f800
000000
000000
ENDCHAR
STARTCHAR a3e8
ENCODING 41960 
SWIDTH 495 0
DWIDTH 18 0
BBX 18 19 0 -1
BITMAP 
000000
100000
100000
100000
13f000
140800
180400
100200
100200
100200
100200
100200
100200
100200
100200
100200
000000
000000
000000
ENDCHAR
STARTCHAR a3e9
ENCODING 41961 
SWIDTH 495 0
DWIDTH 18 0
BBX 18 19 0 -1
BITMAP 
000000
004000
004000
004000
000000
004000
004000
004000
004000
004000
004000
004000
004000
004000
004000
004000
000000
000000
000000
ENDCHAR
STARTCHAR a3ea
ENCODING 41962 
SWIDTH 495 0
DWIDTH 18 0
BBX 18 19 0 -1
BITMAP 
000000
002000
002000
002000
000000
002000
002000
002000
002000
002000
002000
002000
002000
004000
008000
070000
000000
000000
000000
ENDCHAR
STARTCHAR a3eb
ENCODING 41963 
SWIDTH 495 0
DWIDTH 18 0
BBX 18 19 0 -1
BITMAP 
000000
040000
040000
040000
040000
040000
041000
042000
044000
048000
050000
068000
044000
042000
041000
040800
000000
000000
000000
ENDCHAR
STARTCHAR a3ec
ENCODING 41964 
SWIDTH 495 0
DWIDTH 18 0
BBX 18 19 0 -1
BITMAP 
000000
008000
008000
008000
008000
008000
008000
008000
008000
008000
008000
008000
008000
008000
008000
00e000
000000
000000
000000
ENDCHAR
STARTCHAR a3ed
ENCODING 41965 
SWIDTH 495 0
DWIDTH 18 0
BBX 18 19 0 -1
BITMAP 
000000
000000
000000
000000
4f1e00
50a100
604080
404080
404080
404080
404080
404080
404080
404080
404080
404080
000000
000000
000000
ENDCHAR
STARTCHAR a3ee
ENCODING 41966 
SWIDTH 495 0
DWIDTH 18 0
BBX 18 19 0 -1
BITMAP 
000000
000000
000000
000000
13f000
140800
180400
100200
100200
100200
100200
100200
100200
100200
100200
100200
000000
000000
000000
ENDCHAR
STARTCHAR a3ef
ENCODING 41967 
SWIDTH 495 0
DWIDTH 18 0
BBX 18 19 0 -1
BITMAP 
000000
000000
000000
000000
03f000
040800
080400
100200
100200
100200
100200
100200
100200
080400
040800
03f000
000000
000000
000000
ENDCHAR
STARTCHAR a3f0
ENCODING 41968 
SWIDTH 495 0
DWIDTH 18 0
BBX 18 19 0 -1
BITMAP 
000000
000000
000000
000000
13f000
140800
180400
100200
100200
100200
100200
100200
180400
140800
13f000
100000
100000
000000
000000
ENDCHAR
STARTCHAR a3f1
ENCODING 41969 
SWIDTH 495 0
DWIDTH 18 0
BBX 18 19 0 -1
BITMAP 
000000
000000
000000
000000
03f200
040a00
080600
100200
100200
100200
100200
100200
080600
040a00
03f200
000200
000200
000000
000000
ENDCHAR
STARTCHAR a3f2
ENCODING 41970 
SWIDTH 495 0
DWIDTH 18 0
BBX 18 19 0 -1
BITMAP 
000000
000000
000000
000000
04f800
050000
060000
040000
040000
040000
040000
040000
040000
040000
040000
040000
000000
000000
000000
ENDCHAR
STARTCHAR a1ad
ENCODING 41389 
SWIDTH 495 0
DWIDTH 18 0
BBX 18 19 0 -1
BITMAP 
000000
000000
000000
000000
000000
000000
000000
000000
0f0100
10c200
203c00
000000
000000
000000
000000
000000
000000
000000
000000
ENDCHAR
STARTCHAR a3f3
ENCODING 41971 
SWIDTH 495 0
DWIDTH 18 0
BBX 18 19 0 -1
BITMAP 
000000
000000
000000
000000
03f000
040800
080400
080000
040000
03f800
000400
000200
100200
100200
080400
07f800
000000
000000
000000
ENDCHAR
STARTCHAR a3f4
ENCODING 41972 
SWIDTH 495 0
DWIDTH 18 0
BBX 18 19 0 -1
BITMAP 
000000
010000
010000
010000
0ffc00
010000
010000
010000
010000
010000
010000
010000
010000
010400
008800
007000
000000
000000
000000
ENDCHAR
STARTCHAR a3f5
ENCODING 41973 
SWIDTH 495 0
DWIDTH 18 0
BBX 18 19 0 -1
BITMAP 
000000
000000
000000
000000
100200
100200
100200
100200
100200
100200
100200
100200
100200
080600
040a00
03f200
000000
000000
000000
ENDCHAR
STARTCHAR a3f6
ENCODING 41974 
SWIDTH 495 0
DWIDTH 18 0
BBX 18 19 0 -1
BITMAP 
000000
000000
000000
000000
100400
100400
100400
080800
080800
041000
041000
041000
022000
022000
014000
008000
000000
000000
000000
ENDCHAR
STARTCHAR a3f7
ENCODING 41975 
SWIDTH 495 0
DWIDTH 18 0
BBX 18 19 0 -1
BITMAP 
000000
000000
000000
000000
400100
400100
400100
208200
208200
208200
114400
114400
114400
0a2800
0a2800
041000
000000
000000
000000
ENDCHAR
STARTCHAR a3f8
ENCODING 41976 
SWIDTH 495 0
DWIDTH 18 0
BBX 18 19 0 -1
BITMAP 
000000
000000
000000
000000
080400
080400
040800
021000
012000
00c000
00c000
012000
021000
040800
080400
080400
000000
000000
000000
ENDCHAR
STARTCHAR a3f9
ENCODING 41977 
SWIDTH 495 0
DWIDTH 18 0
BBX 18 19 0 -1
BITMAP 
000000
000000
000000
000000
100200
080400
080400
040800
040800
021000
021000
012000
012000
00c000
008000
010000
0e0000
000000
000000
ENDCHAR
STARTCHAR a3fa
ENCODING 41978 
SWIDTH 495 0
DWIDTH 18 0
BBX 18 19 0 -1
BITMAP 
000000
000000
000000
000000
07fc00
000400
000800
001000
002000
004000
008000
010000
020000
040000
080000
0ffe00
000000
000000
000000
ENDCHAR
STARTCHAR a3fb
ENCODING 41979 
SWIDTH 495 0
DWIDTH 18 0
BBX 18 19 0 -1
BITMAP 
000000
000300
000400
000400
000400
000400
000400
000800
001000
001000
000800
000400
000400
000400
000400
000400
000300
000000
000000
ENDCHAR
STARTCHAR a3c1
ENCODING 41921 
SWIDTH 495 0
DWIDTH 18 0
BBX 18 19 0 -1
BITMAP 
000000
000000
00c000
012000
012000
021000
021000
040800
040800
080400
080400
1ffe00
100200
200100
200100
200100
000000
000000
000000
ENDCHAR
STARTCHAR a3c2
ENCODING 41922 
SWIDTH 495 0
DWIDTH 18 0
BBX 18 19 0 -1
BITMAP 
000000
000000
1ff800
100400
100200
100200
100200
100400
1ff800
100400
100200
100200
100200
100200
100400
1ff800
000000
000000
000000
ENDCHAR
STARTCHAR a3c3
ENCODING 41923 
SWIDTH 495 0
DWIDTH 18 0
BBX 18 19 0 -1
BITMAP 
000000
000000
07f800
080400
100200
200100
200000
200000
200000
200000
200000
200000
200100
100200
080400
07f800
000000
000000
000000
ENDCHAR
STARTCHAR a3c4
ENCODING 41924 
SWIDTH 495 0
DWIDTH 18 0
BBX 18 19 0 -1
BITMAP 
000000
000000
1ff800
100400
100200
100100
100100
100100
100100
100100
100100
100100
100100
100200
100400
1ff800
000000
000000
000000
ENDCHAR
STARTCHAR a3c5
ENCODING 41925 
SWIDTH 495 0
DWIDTH 18 0
BBX 18 19 0 -1
BITMAP 
000000
000000
1ffe00
100000
100000
100000
100000
100000
1ff800
100000
100000
100000
100000
100000
100000
1ffe00
000000
000000
000000
ENDCHAR
STARTCHAR a3c6
ENCODING 41926 
SWIDTH 495 0
DWIDTH 18 0
BBX 18 19 0 -1
BITMAP 
000000
000000
1ffe00
100000
100000
100000
100000
100000
1ff800
100000
100000
100000
100000
100000
100000
100000
000000
000000
000000
ENDCHAR
STARTCHAR a3c7
ENCODING 41927 
SWIDTH 495 0
DWIDTH 18 0
BBX 18 19 0 -1
BITMAP 
000000
000000
07f800
080400
100200
200100
200000
200000
200000
207f00
200100
200100
200100
100300
080500
07f900
000000
000000
000000
ENDCHAR
STARTCHAR a3c8
ENCODING 41928 
SWIDTH 495 0
DWIDTH 18 0
BBX 18 19 0 -1
BITMAP 
000000
000000
100200
100200
100200
100200
100200
100200
1ffe00
100200
100200
100200
100200
100200
100200
100200
000000
000000
000000
ENDCHAR
STARTCHAR a3c9
ENCODING 41929 
SWIDTH 495 0
DWIDTH 18 0
BBX 18 19 0 -1
BITMAP 
000000
000000
01c000
008000
008000
008000
008000
008000
008000
008000
008000
008000
008000
008000
008000
01c000
000000
000000
000000
ENDCHAR
STARTCHAR a3fd
ENCODING 41981 
SWIDTH 495 0
DWIDTH 18 0
BBX 18 19 0 -1
BITMAP 
000000
300000
080000
080000
080000
080000
080000
040000
020000
020000
040000
080000
080000
080000
080000
080000
300000
000000
000000
ENDCHAR
STARTCHAR a3ca
ENCODING 41930 
SWIDTH 495 0
DWIDTH 18 0
BBX 18 19 0 -1
BITMAP 
000000
000000
000400
000400
000400
000400
000400
000400
000400
100400
100400
100400
100400
080800
041000
03e000
000000
000000
000000
ENDCHAR
STARTCHAR a3cb
ENCODING 41931 
SWIDTH 495 0
DWIDTH 18 0
BBX 18 19 0 -1
BITMAP 
000000
000000
080400
080800
081000
082000
084000
088000
090000
0a8000
0c4000
082000
081000
080800
080400
080200
000000
000000
000000
ENDCHAR
STARTCHAR a3cc
ENCODING 41932 
SWIDTH 495 0
DWIDTH 18 0
BBX 18 19 0 -1
BITMAP 
000000
000000
080000
080000
080000
080000
080000
080000
080000
080000
080000
080000
080000
080000
080000
0ffe00
000000
000000
000000
ENDCHAR
STARTCHAR a3cd
ENCODING 41933 
SWIDTH 495 0
DWIDTH 18 0
BBX 18 19 0 -1
BITMAP 
000000
000000
600300
500500
500500
480900
480900
441100
441100
422100
422100
414100
414100
408100
408100
400100
000000
000000
000000
ENDCHAR
STARTCHAR a3ce
ENCODING 41934 
SWIDTH 495 0
DWIDTH 18 0
BBX 18 19 0 -1
BITMAP 
000000
000000
180200
140200
120200
120200
110200
110200
108200
104200
104200
102200
101200
101200
100a00
100600
000000
000000
000000
ENDCHAR
STARTCHAR a3cf
ENCODING 41935 
SWIDTH 495 0
DWIDTH 18 0
BBX 18 19 0 -1
BITMAP 
000000
000000
07f800
080400
100200
200100
200100
200100
200100
200100
200100
200100
200100
100200
080400
07f800
000000
000000
000000
ENDCHAR
STARTCHAR a3d0
ENCODING 41936 
SWIDTH 495 0
DWIDTH 18 0
BBX 18 19 0 -1
BITMAP 
000000
000000
1ff800
100400
100200
100200
100200
100200
100400
1ff800
100000
100000
100000
100000
100000
100000
000000
000000
000000
ENDCHAR
STARTCHAR a3d1
ENCODING 41937 
SWIDTH 495 0
DWIDTH 18 0
BBX 18 19 0 -1
BITMAP 
000000
000000
07f800
080400
100200
200100
200100
200100
200100
200100
201100
200900
200500
100200
080500
07f880
000000
000000
000000
ENDCHAR
STARTCHAR a3d2
ENCODING 41938 
SWIDTH 495 0
DWIDTH 18 0
BBX 18 19 0 -1
BITMAP 
000000
000000
1ff800
100400
100200
100200
100200
100200
100400
1ff800
108000
104000
102000
101000
100800
100400
000000
000000
000000
ENDCHAR
STARTCHAR a3dc
ENCODING 41948 
SWIDTH 495 0
DWIDTH 18 0
BBX 18 19 0 -1
BITMAP 
000000
000000
200200
200200
200200
208200
108400
108400
7fff00
114400
114400
0a2800
0a2800
0a2800
041000
041000
000000
000000
000000
ENDCHAR
STARTCHAR a3d3
ENCODING 41939 
SWIDTH 495 0
DWIDTH 18 0
BBX 18 19 0 -1
BITMAP 
000000
000000
07f800
080400
100200
100000
100000
080000
07f800
000400
000200
000200
000200
100200
080400
07f800
000000
000000
000000
ENDCHAR
STARTCHAR a3d4
ENCODING 41940 
SWIDTH 495 0
DWIDTH 18 0
BBX 18 19 0 -1
BITMAP 
000000
000000
3ffe00
008000
008000
008000
008000
008000
008000
008000
008000
008000
008000
008000
008000
008000
000000
000000
000000
ENDCHAR
STARTCHAR a3d5
ENCODING 41941 
SWIDTH 495 0
DWIDTH 18 0
BBX 18 19 0 -1
BITMAP 
000000
000000
100200
100200
100200
100200
100200
100200
100200
100200
100200
100200
100200
080400
040800
03f000
000000
000000
000000
ENDCHAR
STARTCHAR a3d6
ENCODING 41942 
SWIDTH 495 0
DWIDTH 18 0
BBX 18 19 0 -1
BITMAP 
000000
000000
200200
200200
200200
100400
100400
080800
080800
041000
041000
022000
022000
014000
014000
008000
000000
000000
000000
ENDCHAR
STARTCHAR a3d7
ENCODING 41943 
SWIDTH 495 0
DWIDTH 18 0
BBX 18 19 0 -1
BITMAP 
000000
000000
400100
400100
400100
408100
208200
208200
208200
208200
114400
114400
114400
0a2800
0a2800
041000
000000
000000
000000
ENDCHAR
STARTCHAR a3d8
ENCODING 41944 
SWIDTH 495 0
DWIDTH 18 0
BBX 18 19 0 -1
BITMAP 
000000
000000
380700
100200
080400
040800
021000
012000
00c000
00c000
012000
021000
040800
080400
100200
380700
000000
000000
000000
ENDCHAR
STARTCHAR a3d9
ENCODING 41945 
SWIDTH 495 0
DWIDTH 18 0
BBX 18 19 0 -1
BITMAP 
000000
000000
400100
200200
100400
080800
041000
022000
014000
008000
008000
008000
008000
008000
008000
008000
000000
000000
000000
ENDCHAR
STARTCHAR a3da
ENCODING 41946 
SWIDTH 495 0
DWIDTH 18 0
BBX 18 19 0 -1
BITMAP 
000000
000000
1fff00
000200
000400
000800
001000
002000
004000
008000
010000
020000
040000
080000
100000
3fff00
000000
000000
000000
ENDCHAR
STARTCHAR a3b0
ENCODING 41904 
SWIDTH 495 0
DWIDTH 18 0
BBX 18 19 0 -1
BITMAP 
000000
000000
03f000
040800
080400
100200
100200
100200
100200
100200
100200
100200
100200
080400
040800
03f000
000000
000000
000000
ENDCHAR
STARTCHAR a3b1
ENCODING 41905 
SWIDTH 495 0
DWIDTH 18 0
BBX 18 19 0 -1
BITMAP 
000000
000000
00c000
014000
024000
044000
084000
004000
004000
004000
004000
004000
004000
004000
004000
07fc00
000000
000000
000000
ENDCHAR
STARTCHAR a3b2
ENCODING 41906 
SWIDTH 495 0
DWIDTH 18 0
BBX 18 19 0 -1
BITMAP 
000000
000000
07f000
080800
100400
000400
000400
000400
000800
01f000
020000
040000
080000
100000
100000
1ffe00
000000
000000
000000
ENDCHAR
STARTCHAR a3b3
ENCODING 41907 
SWIDTH 495 0
DWIDTH 18 0
BBX 18 19 0 -1
BITMAP 
000000
000000
07f800
080400
100200
000200
000200
000400
01f800
000400
000200
000200
000200
100200
080400
07f800
000000
000000
000000
ENDCHAR
STARTCHAR a3b4
ENCODING 41908 
SWIDTH 495 0
DWIDTH 18 0
BBX 18 19 0 -1
BITMAP 
000000
000000
003800
004800
008800
010800
020800
040800
080800
100800
200800
200800
3ffe00
000800
000800
000800
000000
000000
000000
ENDCHAR
STARTCHAR a3b5
ENCODING 41909 
SWIDTH 495 0
DWIDTH 18 0
BBX 18 19 0 -1
BITMAP 
000000
000000
1ffc00
100000
100000
100000
100000
13f000
140800
180400
000200
000200
000200
100400
080800
07f000
000000
000000
000000
ENDCHAR
STARTCHAR a3b6
ENCODING 41910 
SWIDTH 495 0
DWIDTH 18 0
BBX 18 19 0 -1
BITMAP 
000000
000000
03f800
040400
080200
100000
100000
13f000
140800
180400
100200
100200
100200
080400
040800
03f000
000000
000000
000000
ENDCHAR
STARTCHAR a3b7
ENCODING 41911 
SWIDTH 495 0
DWIDTH 18 0
BBX 18 19 0 -1
BITMAP 
000000
000000
1ffe00
100200
100200
100400
000800
001000
002000
004000
004000
004000
004000
004000
004000
004000
000000
000000
000000
ENDCHAR
STARTCHAR a3b8
ENCODING 41912 
SWIDTH 495 0
DWIDTH 18 0
BBX 18 19 0 -1
BITMAP 
000000
000000
07f800
080400
100200
100200
100200
080400
07f800
080400
100200
100200
100200
100200
080400
07f800
000000
000000
000000
ENDCHAR
STARTCHAR a3b9
ENCODING 41913 
SWIDTH 495 0
DWIDTH 18 0
BBX 18 19 0 -1
BITMAP 
000000
000000
03f000
040800
080400
100200
100200
100200
080600
040a00
03f200
000200
000200
100400
080800
07f000
000000
000000
000000
ENDCHAR
STARTCHAR a4d5
ENCODING 42197 
SWIDTH 495 0
DWIDTH 18 0
BBX 18 19 0 -1
BITMAP 
000000
000000
000000
000000
000000
000000
000000
000000
404000
404000
404000
404000
404000
404000
404000
40c000
7f7f80
000000
000000
ENDCHAR
STARTCHAR a4d6
ENCODING 42198 
SWIDTH 495 0
DWIDTH 18 0
BBX 18 19 0 -1
BITMAP 
000000
000000
000000
000000
000000
000000
000000
000000
407f80
404000
404000
404000
404000
404000
404000
40c000
7f7f80
000000
000000
ENDCHAR
STARTCHAR a4d7
ENCODING 42199 
SWIDTH 495 0
DWIDTH 18 0
BBX 18 19 0 -1
BITMAP 
000000
000000
000000
000000
000000
000000
000000
000800
400800
400800
400800
400800
400800
401400
402200
404100
7e8080
000000
000000
ENDCHAR
STARTCHAR a4d8
ENCODING 42200 
SWIDTH 495 0
DWIDTH 18 0
BBX 18 19 0 -1
BITMAP 
000000
000000
000000
000000
000000
000000
000000
000000
400800
401400
401400
402200
402200
404100
404100
418080
7eff80
000000
000000
ENDCHAR
STARTCHAR a4d9
ENCODING 42201 
SWIDTH 495 0
DWIDTH 18 0
BBX 18 19 0 -1
BITMAP 
000000
000000
000000
000000
000000
000000
000000
000200
7fe200
042200
042200
042200
7c2200
402500
402900
402880
7e3080
000000
000000
ENDCHAR
STARTCHAR a4da
ENCODING 42202 
SWIDTH 495 0
DWIDTH 18 0
BBX 18 19 0 -1
BITMAP 
000000
000000
000000
000000
000000
000000
000000
000000
7fbf80
00a000
00a000
00a000
7fa000
402000
402000
402000
7fff80
000000
000000
ENDCHAR
STARTCHAR a4db
ENCODING 42203 
SWIDTH 495 0
DWIDTH 18 0
BBX 18 19 0 -1
BITMAP 
000000
000000
000000
000000
000000
000000
000000
000000
7d1200
051200
051200
05f200
7d1200
411500
411500
411880
7ff880
000000
000000
ENDCHAR
STARTCHAR a4dc
ENCODING 42204 
SWIDTH 495 0
DWIDTH 18 0
BBX 18 19 0 -1
BITMAP 
000000
000000
000000
000000
000000
000000
000000
000000
7f0800
011400
011400
012200
7f2200
404100
404100
408080
7fff80
000000
000000
ENDCHAR
STARTCHAR a4dd
ENCODING 42205 
SWIDTH 495 0
DWIDTH 18 0
BBX 18 19 0 -1
BITMAP 
000000
000000
000000
000000
000000
000000
000000
000000
7f7f80
010000
011e00
012100
7f4080
404080
404080
402100
7f9e00
000000
000000
ENDCHAR
STARTCHAR a4de
ENCODING 42206 
SWIDTH 495 0
DWIDTH 18 0
BBX 18 19 0 -1
BITMAP 
000000
000000
000000
000000
000000
000000
000000
000000
7f4080
414080
414080
417f80
414080
414080
414080
414080
7f7f80
000000
000000
ENDCHAR
STARTCHAR a4df
ENCODING 42207 
SWIDTH 495 0
DWIDTH 18 0
BBX 18 19 0 -1
BITMAP 
000000
000000
000000
000000
000000
000000
000000
000000
7f8400
408400
408400
408400
408400
408a00
409100
40a080
7fe080
000000
000000
ENDCHAR
STARTCHAR a4e0
ENCODING 42208 
SWIDTH 495 0
DWIDTH 18 0
BBX 18 19 0 -1
BITMAP 
000000
000000
000000
000000
000000
000000
000000
000000
7f0800
411400
411400
412200
412200
414100
414100
418080
7fff80
000000
000000
ENDCHAR
STARTCHAR a4e1
ENCODING 42209 
SWIDTH 495 0
DWIDTH 18 0
BBX 18 19 0 -1
BITMAP 
000000
000000
000000
000000
000000
000000
000000
3fff00
200100
200100
3fff00
000000
07f800
180600
300300
180600
07f800
000000
000000
ENDCHAR
STARTCHAR a4e2
ENCODING 42210 
SWIDTH 495 0
DWIDTH 18 0
BBX 18 19 0 -1
BITMAP 
000000
000000
000000
000000
000000
000000
000000
000000
40bf80
408080
408080
7f8080
408080
408080
408080
408080
7f8080
000000
000000
ENDCHAR
STARTCHAR a4e3
ENCODING 42211 
SWIDTH 495 0
DWIDTH 18 0
BBX 18 19 0 -1
BITMAP 
000000
000000
000000
000000
000000
000000
000000
000000
40bf80
40a000
40a000
7fa000
40a000
40a000
40a000
40a000
7fbf80
000000
000000
ENDCHAR
STARTCHAR a4e4
ENCODING 42212 
SWIDTH 495 0
DWIDTH 18 0
BBX 18 19 0 -1
BITMAP 
000000
000000
000000
000000
000000
000000
000000
000000
422f80
422080
422080
7e2080
422080
425080
428880
428880
7f0480
000000
000000
ENDCHAR
STARTCHAR a4e5
ENCODING 42213 
SWIDTH 495 0
DWIDTH 18 0
BBX 18 19 0 -1
BITMAP 
000000
000000
000000
000000
000000
000000
000000
000000
424f80
424800
424800
7e4800
424800
42a800
42a800
431800
7f1f80
000000
000000
ENDCHAR
STARTCHAR a4e6
ENCODING 42214 
SWIDTH 495 0
DWIDTH 18 0
BBX 18 19 0 -1
BITMAP 
000000
000000
000000
000000
000000
000000
000000
000000
40bf80
408400
408400
7f8400
408400
408a00
409100
40a080
7fc080
000000
000000
ENDCHAR
STARTCHAR a4e7
ENCODING 42215 
SWIDTH 495 0
DWIDTH 18 0
BBX 18 19 0 -1
BITMAP 
000000
000000
000000
000000
000000
000000
000000
000000
40bf80
40a000
40a000
7fbf80
40a000
40a000
40a000
40a000
7fbf80
000000
000000
ENDCHAR
STARTCHAR a4e8
ENCODING 42216 
SWIDTH 495 0
DWIDTH 18 0
BBX 18 19 0 -1
BITMAP 
000000
000000
000000
000000
000000
000000
200100
200100
3fff00
200100
3fff00
000000
07f800
180600
300300
180600
07f800
000000
000000
ENDCHAR
STARTCHAR a4e9
ENCODING 42217 
SWIDTH 495 0
DWIDTH 18 0
BBX 18 19 0 -1
BITMAP 
000000
000000
000000
000000
000000
000000
214100
214100
3f7f00
214100
3f7f00
000000
07f800
180600
300300
180600
07f800
000000
000000
ENDCHAR
STARTCHAR a4ea
ENCODING 42218 
SWIDTH 495 0
DWIDTH 18 0
BBX 18 19 0 -1
BITMAP 
000000
000000
000000
000000
000000
000000
000000
000000
047f80
040080
040080
040080
060080
090080
108080
204080
402080
000000
000000
ENDCHAR
STARTCHAR a4eb
ENCODING 42219 
SWIDTH 495 0
DWIDTH 18 0
BBX 18 19 0 -1
BITMAP 
000000
000000
000000
000000
000000
000000
000000
000000
042000
042000
042000
042000
042000
0a2000
112000
20a000
407f80
000000
000000
ENDCHAR
STARTCHAR a4ec
ENCODING 42220 
SWIDTH 495 0
DWIDTH 18 0
BBX 18 19 0 -1
BITMAP 
000000
000000
000000
000000
000000
000000
000000
000000
043f80
042000
042000
042000
042000
0a2000
112000
20a000
407f80
000000
000000
ENDCHAR
STARTCHAR a4ed
ENCODING 42221 
SWIDTH 495 0
DWIDTH 18 0
BBX 18 19 0 -1
BITMAP 
000000
000000
000000
000000
000000
000000
000000
000000
042080
042080
042080
043f80
042080
0a2080
112080
20a080
407f80
000000
000000
ENDCHAR
STARTCHAR a4ee
ENCODING 42222 
SWIDTH 495 0
DWIDTH 18 0
BBX 18 19 0 -1
BITMAP 
000000
000000
000000
000000
000000
000000
000000
000000
047f80
040400
040400
040400
040400
0a0a00
111100
20a080
404080
000000
000000
ENDCHAR
STARTCHAR a4ef
ENCODING 42223 
SWIDTH 495 0
DWIDTH 18 0
BBX 18 19 0 -1
BITMAP 
000000
000000
000000
000000
000000
000000
000000
000000
00c000
012000
021000
040800
080400
100200
200100
400080
7fff80
000000
000000
ENDCHAR
STARTCHAR a4f0
ENCODING 42224 
SWIDTH 495 0
DWIDTH 18 0
BBX 18 19 0 -1
BITMAP 
000000
000000
000000
000000
000000
000000
000000
1c0e00
221100
412080
412080
412080
412080
412080
412080
221100
1c0e00
000000
000000
ENDCHAR
STARTCHAR a4f1
ENCODING 42225 
SWIDTH 495 0
DWIDTH 18 0
BBX 18 19 0 -1
BITMAP 
000000
000000
000000
000000
004000
004000
004000
03f000
040800
080400
100200
100200
100200
100200
080400
040800
03f000
000000
000000
ENDCHAR
STARTCHAR a4f2
ENCODING 42226 
SWIDTH 495 0
DWIDTH 18 0
BBX 18 19 0 -1
BITMAP 
000000
000000
000000
000000
000000
000000
080000
080800
1c0800
220800
410800
410800
411400
412200
414100
224100
1c8080
000000
000000
ENDCHAR
STARTCHAR a4f3
ENCODING 42227 
SWIDTH 495 0
DWIDTH 18 0
BBX 18 19 0 -1
BITMAP 
000000
000000
000000
000000
000000
000000
080000
080800
1c0800
221400
411400
412200
412200
414100
414100
228080
1cff80
000000
000000
ENDCHAR
STARTCHAR a4f4
ENCODING 42228 
SWIDTH 495 0
DWIDTH 18 0
BBX 18 19 0 -1
BITMAP 
000000
000000
000000
000000
000000
000000
3fff00
080400
080400
080400
3fff00
000000
07f800
180600
300300
180600
07f800
000000
000000
ENDCHAR
STARTCHAR a4f5
ENCODING 42229 
SWIDTH 495 0
DWIDTH 18 0
BBX 18 19 0 -1
BITMAP 
000000
000000
000000
000000
000000
000000
1c0e00
000000
7f3f80
000000
1c0e00
221100
412080
412080
412080
221100
1c0f00
000000
000000
ENDCHAR
STARTCHAR a4f6
ENCODING 42230 
SWIDTH 495 0
DWIDTH 18 0
BBX 18 19 0 -1
BITMAP 
000000
000000
000000
000000
000000
000000
3fff00
000000
03f000
040800
080400
100200
100200
100200
080400
040800
03f000
000000
000000
ENDCHAR
STARTCHAR a4f7
ENCODING 42231 
SWIDTH 495 0
DWIDTH 18 0
BBX 18 19 0 -1
BITMAP 
000000
000200
000200
000200
000200
000200
000380
000200
084200
084200
084380
084200
08fe00
7f0200
000200
000200
000200
000000
000000
ENDCHAR
STARTCHAR a4f8
ENCODING 42232 
SWIDTH 495 0
DWIDTH 18 0
BBX 18 19 0 -1
BITMAP 
000000
000080
000480
000480
000480
000780
000480
000480
000480
084780
084480
084480
08fc80
7f0480
000480
000080
000080
000000
000000
ENDCHAR
STARTCHAR a4f9
ENCODING 42233 
SWIDTH 495 0
DWIDTH 18 0
BBX 18 19 0 -1
BITMAP 
000000
000080
000080
000080
000080
000080
000080
000080
084080
084080
084080
084080
7fff80
000080
000080
000080
000080
000000
000000
ENDCHAR
STARTCHAR a4fa
ENCODING 42234 
SWIDTH 495 0
DWIDTH 18 0
BBX 18 19 0 -1
BITMAP 
000000
000080
000080
000080
000080
000080
000080
000080
7ff880
084080
084080
084f80
084080
084080
084080
084080
004080
000000
000000
ENDCHAR
STARTCHAR a4fb
ENCODING 42235 
SWIDTH 495 0
DWIDTH 18 0
BBX 18 19 0 -1
BITMAP 
000000
000080
000480
000480
000480
000480
000480
000480
7fe480
110480
113c80
110480
110480
113c80
110480
110480
010080
000000
000000
ENDCHAR
STARTCHAR a4fc
ENCODING 42236 
SWIDTH 495 0
DWIDTH 18 0
BBX 18 19 0 -1
BITMAP 
000000
000080
000080
000080
000080
000080
000080
000080
7fff80
042080
042080
042080
042080
042080
042080
042080
002080
000000
000000
ENDCHAR
STARTCHAR a4fd
ENCODING 42237 
SWIDTH 495 0
DWIDTH 18 0
BBX 18 19 0 -1
BITMAP 
000000
000000
000000
000000
000000
000000
000000
000000
00c000
01e000
00c000
000000
000000
000000
000000
000000
000000
000000
000000
ENDCHAR
STARTCHAR a4fe
ENCODING 42238 
SWIDTH 495 0
DWIDTH 18 0
BBX 18 19 0 -1
BITMAP 
000000
004000
004000
004000
004000
004000
004000
004000
004000
004000
0c4000
1e4000
0c4000
004000
004000
004000
004000
000000
000000
ENDCHAR
STARTCHAR aaa1
ENCODING 43681 
SWIDTH 495 0
DWIDTH 18 0
BBX 18 19 0 -1
BITMAP 
000000
000000
008000
008000
07f800
008000
008000
01f800
029400
049200
04a200
04a200
024400
019800
000000
000000
000000
000000
000000
ENDCHAR
STARTCHAR aaa2
ENCODING 43682 
SWIDTH 495 0
DWIDTH 18 0
BBX 18 19 0 -1
BITMAP 
000000
000000
020000
020000
3ff800
020000
020000
07f800
0a2400
122200
222100
222100
214100
208100
110200
0e0400
003800
000000
000000
ENDCHAR
STARTCHAR aaa3
ENCODING 43683 
SWIDTH 495 0
DWIDTH 18 0
BBX 18 19 0 -1
BITMAP 
000000
000000
000000
040000
040800
040400
040200
040200
040200
040200
042200
024000
018000
000000
000000
000000
000000
000000
000000
ENDCHAR
STARTCHAR aaa4
ENCODING 43684 
SWIDTH 495 0
DWIDTH 18 0
BBX 18 19 0 -1
BITMAP 
000000
000000
000000
100000
100800
100400
100200
100200
100200
100200
100200
100200
100000
108000
090000
060000
000000
000000
000000
ENDCHAR
STARTCHAR aaa5
ENCODING 43685 
SWIDTH 495 0
DWIDTH 18 0
BBX 18 19 0 -1
BITMAP 
000000
000000
00f800
000000
000000
03fc00
000200
000200
000200
000200
000400
000800
001000
01e000
000000
000000
000000
000000
000000
ENDCHAR
STARTCHAR aaa6
ENCODING 43686 
SWIDTH 495 0
DWIDTH 18 0
BBX 18 19 0 -1
BITMAP 
000000
000000
000000
07f000
000000
000000
1ff800
000400
000200
000200
000200
000200
000400
000800
001000
002000
03c000
000000
000000
ENDCHAR
STARTCHAR aaa7
ENCODING 43687 
SWIDTH 495 0
DWIDTH 18 0
BBX 18 19 0 -1
BITMAP 
000000
000000
01f000
000000
000000
07f800
001000
002000
004000
00e000
011000
021100
041100
080e00
000000
000000
000000
000000
000000
ENDCHAR
STARTCHAR aaa8
ENCODING 43688 
SWIDTH 495 0
DWIDTH 18 0
BBX 18 19 0 -1
BITMAP 
000000
000000
000000
07f000
000000
000000
1ff800
001000
002000
004000
008000
01c000
022000
042000
082080
102080
201f00
000000
000000
ENDCHAR
STARTCHAR aaa9
ENCODING 43689 
SWIDTH 495 0
DWIDTH 18 0
BBX 18 19 0 -1
BITMAP 
000000
000000
004400
004200
07f900
004000
004000
01f800
024400
044200
044200
044200
024400
019800
000000
000000
000000
000000
000000
ENDCHAR
STARTCHAR aaaa
ENCODING 43690 
SWIDTH 495 0
DWIDTH 18 0
BBX 18 19 0 -1
BITMAP 
000000
000000
010800
010400
010200
1ff100
010000
010000
010000
0ff800
110400
210200
210200
210200
210200
110400
0e3800
000000
000000
ENDCHAR
STARTCHAR aaab
ENCODING 43691 
SWIDTH 495 0
DWIDTH 18 0
BBX 18 19 0 -1
BITMAP 
000000
000000
020000
020400
020200
020100
3ff100
020900
020900
020900
020800
020800
040800
080800
100800
209000
006000
000000
000000
ENDCHAR
STARTCHAR aaac
ENCODING 43692 
SWIDTH 495 0
DWIDTH 18 0
BBX 18 19 0 -1
BITMAP 
000000
000280
020280
020000
020400
020200
3ff100
020900
020900
020900
020900
020800
040800
080800
100800
209000
006000
000000
000000
ENDCHAR
STARTCHAR aaad
ENCODING 43693 
SWIDTH 495 0
DWIDTH 18 0
BBX 18 19 0 -1
BITMAP 
000000
000000
001000
001000
3fff00
001000
001000
3fff00
001000
001000
0fd000
103000
201000
200000
200000
100000
0ff800
000000
000000
ENDCHAR
STARTCHAR aaae
ENCODING 43694 
SWIDTH 495 0
DWIDTH 18 0
BBX 18 19 0 -1
BITMAP 
000000
000280
001280
001000
3fff00
001000
001000
3fff00
001000
001000
0fd000
103000
201000
200000
200000
100000
0ff800
000000
000000
ENDCHAR
STARTCHAR aaaf
ENCODING 43695 
SWIDTH 495 0
DWIDTH 18 0
BBX 18 19 0 -1
BITMAP 
000000
001000
001000
002000
004000
008000
010000
020000
040000
040000
020000
010000
008000
004000
002000
001000
000800
000000
000000
ENDCHAR
STARTCHAR aab0
ENCODING 43696 
SWIDTH 495 0
DWIDTH 18 0
BBX 18 19 0 -1
BITMAP 
000000
001280
002280
004000
008000
010000
020000
040000
080000
080000
040000
020000
010000
008000
004000
002000
001000
000000
000000
ENDCHAR
STARTCHAR aab1
ENCODING 43697 
SWIDTH 495 0
DWIDTH 18 0
BBX 18 19 0 -1
BITMAP 
000000
000000
000800
200800
200800
200800
27ff00
200800
200800
200800
200800
200800
200800
240800
281000
102000
01c000
000000
000000
ENDCHAR
STARTCHAR aab2
ENCODING 43698 
SWIDTH 495 0
DWIDTH 18 0
BBX 18 19 0 -1
BITMAP 
000000
000280
000a80
200800
200800
200800
27ff00
200800
200800
200800
200800
200800
200800
240800
281000
102000
03c000
000000
000000
ENDCHAR
STARTCHAR aab3
ENCODING 43699 
SWIDTH 495 0
DWIDTH 18 0
BBX 18 19 0 -1
BITMAP 
000000
000000
000000
0ffe00
000400
000800
001000
000000
040000
080000
100000
200000
200000
200100
100200
0ffc00
000000
000000
000000
ENDCHAR
STARTCHAR aab4
ENCODING 43700 
SWIDTH 495 0
DWIDTH 18 0
BBX 18 19 0 -1
BITMAP 
000000
000280
000280
000000
0ffe00
000400
000800
001000
000000
040000
080000
100000
200000
200000
200100
100200
0ffc00
000000
000000
ENDCHAR
STARTCHAR aab5
ENCODING 43701 
SWIDTH 495 0
DWIDTH 18 0
BBX 18 19 0 -1
BITMAP 
000000
000000
001000
001000
001000
3fff00
001000
001000
001000
0fd000
103000
201000
200000
200000
200000
100000
0ff800
000000
000000
ENDCHAR
STARTCHAR aab6
ENCODING 43702 
SWIDTH 495 0
DWIDTH 18 0
BBX 18 19 0 -1
BITMAP 
000000
000280
001280
001000
001000
3fff00
001000
001000
001000
0fd000
103000
201000
200000
200000
200000
100000
0ff800
000000
000000
ENDCHAR
STARTCHAR aab7
ENCODING 43703 
SWIDTH 495 0
DWIDTH 18 0
BBX 18 19 0 -1
BITMAP 
000000
000000
080000
080000
080000
080000
080000
080000
080000
080100
080100
080100
080100
080200
040400
020800
01f000
000000
000000
ENDCHAR
STARTCHAR aab8
ENCODING 43704 
SWIDTH 495 0
DWIDTH 18 0
BBX 18 19 0 -1
BITMAP 
000000
000000
080000
082800
082800
080000
080000
080000
080000
080100
080100
080100
080100
080200
040400
020800
01f000
000000
000000
ENDCHAR
STARTCHAR aab9
ENCODING 43705 
SWIDTH 495 0
DWIDTH 18 0
BBX 18 19 0 -1
BITMAP 
000000
000000
001000
001000
001000
3fff00
001000
001000
03d000
043000
041000
043000
03d000
001000
001000
002000
03c000
000000
000000
ENDCHAR
STARTCHAR aaba
ENCODING 43706 
SWIDTH 495 0
DWIDTH 18 0
BBX 18 19 0 -1
BITMAP 
000000
000280
001280
001000
001000
3fff00
001000
001000
03d000
043000
041000
043000
03d000
001000
001000
002000
03c000
000000
000000
ENDCHAR
STARTCHAR aabb
ENCODING 43707 
SWIDTH 495 0
DWIDTH 18 0
BBX 18 19 0 -1
BITMAP 
000000
000000
040400
040400
040400
040400
7fff80
040400
040400
044400
042400
041800
040000
040000
040000
020000
01fc00
000000
000000
ENDCHAR
STARTCHAR aabc
ENCODING 43708 
SWIDTH 495 0
DWIDTH 18 0
BBX 18 19 0 -1
BITMAP 
000000
000280
040a80
040800
040800
040800
7fff80
040800
040800
048800
044800
043000
040000
040000
040000
020000
01fc00
000000
000000
ENDCHAR
STARTCHAR aabd
ENCODING 43709 
SWIDTH 495 0
DWIDTH 18 0
BBX 18 19 0 -1
BITMAP 
000000
000000
000000
0ff800
001000
002000
004000
008000
3fff00
002000
004000
008000
010000
010000
010000
008000
007c00
000000
000000
ENDCHAR
STARTCHAR aabe
ENCODING 43710 
SWIDTH 495 0
DWIDTH 18 0
BBX 18 19 0 -1
BITMAP 
000000
000280
000280
0ff800
001000
002000
004000
008000
3fff00
002000
004000
008000
010000
010000
010000
008000
007c00
000000
000000
ENDCHAR
STARTCHAR aabf
ENCODING 43711 
SWIDTH 495 0
DWIDTH 18 0
BBX 18 19 0 -1
BITMAP 
000000
000000
040000
040000
040000
3ff800
040000
040000
047e00
040400
040800
088000
110000
210000
010000
008000
007f00
000000
000000
ENDCHAR
STARTCHAR aac0
ENCODING 43712 
SWIDTH 495 0
DWIDTH 18 0
BBX 18 19 0 -1
BITMAP 
000000
000500
040500
040000
040000
3ff800
040000
040000
047e00
040400
040800
088000
110000
210000
010000
008000
007f00
000000
000000
ENDCHAR
STARTCHAR aac1
ENCODING 43713 
SWIDTH 495 0
DWIDTH 18 0
BBX 18 19 0 -1
BITMAP 
000000
000000
040000
040000
040000
3fff00
040000
040000
040000
05f800
060400
040200
000200
000200
000200
040400
03f800
000000
000000
ENDCHAR
STARTCHAR aac2
ENCODING 43714 
SWIDTH 495 0
DWIDTH 18 0
BBX 18 19 0 -1
BITMAP 
000000
000500
040500
040000
040000
3fff00
040000
040000
040000
05f800
060400
040200
000200
000200
000200
040400
03f800
000000
000000
ENDCHAR
STARTCHAR aac3
ENCODING 43715 
SWIDTH 495 0
DWIDTH 18 0
BBX 18 19 0 -1
BITMAP 
000000
000000
000000
0ff000
000800
000400
000200
000200
000200
000400
000800
00f000
000000
000000
000000
000000
000000
000000
000000
ENDCHAR
STARTCHAR aac4
ENCODING 43716 
SWIDTH 495 0
DWIDTH 18 0
BBX 18 19 0 -1
BITMAP 
000000
000000
000000
000000
000000
3ff800
000400
000200
000100
000100
000100
000100
000100
000200
000400
01f800
000000
000000
000000
ENDCHAR
STARTCHAR aac5
ENCODING 43717 
SWIDTH 495 0
DWIDTH 18 0
BBX 18 19 0 -1
BITMAP 
000000
000280
000280
000000
000000
3ff800
000400
000200
000100
000100
000100
000100
000100
000200
000400
01f800
000000
000000
000000
ENDCHAR
STARTCHAR aac6
ENCODING 43718 
SWIDTH 495 0
DWIDTH 18 0
BBX 18 19 0 -1
BITMAP 
000000
000000
000000
3fff00
000800
001000
002000
004000
008000
010000
010000
010000
010000
008000
004000
002000
001c00
000000
000000
ENDCHAR
STARTCHAR aac7
ENCODING 43719 
SWIDTH 495 0
DWIDTH 18 0
BBX 18 19 0 -1
BITMAP 
000000
000500
000500
000000
3fff00
002000
004000
008000
010000
020000
020000
020000
020000
010000
008000
004000
003800
000000
000000
ENDCHAR
STARTCHAR aac8
ENCODING 43720 
SWIDTH 495 0
DWIDTH 18 0
BBX 18 19 0 -1
BITMAP 
000000
000000
008000
008000
008000
008000
008100
008200
07fc00
080000
100000
200000
200000
200000
100000
080000
07fc00
000000
000000
ENDCHAR
STARTCHAR aac9
ENCODING 43721 
SWIDTH 495 0
DWIDTH 18 0
BBX 18 19 0 -1
BITMAP 
000000
000500
008500
008000
008000
008000
008100
008200
07fc00
080000
100000
200000
200000
200000
100000
080000
07fc00
000000
000000
ENDCHAR
STARTCHAR aaca
ENCODING 43722 
SWIDTH 495 0
DWIDTH 18 0
BBX 18 19 0 -1
BITMAP 
000000
000000
020000
020000
020000
3ff800
020000
020f80
020800
040800
080800
10f800
210c00
020a00
020900
011000
00e000
000000
000000
ENDCHAR
STARTCHAR aacb
ENCODING 43723 
SWIDTH 495 0
DWIDTH 18 0
BBX 18 19 0 -1
BITMAP 
000000
000000
200000
27fe00
200200
200400
200800
200000
204000
208000
210000
220000
220000
220000
210000
28ff00
100000
000000
000000
ENDCHAR
STARTCHAR aacc
ENCODING 43724 
SWIDTH 495 0
DWIDTH 18 0
BBX 18 19 0 -1
BITMAP 
000000
000000
044000
044000
044000
0ff800
144400
244200
244100
244100
244100
244100
229900
212500
122200
0c2500
001880
000000
000000
ENDCHAR
STARTCHAR aacd
ENCODING 43725 
SWIDTH 495 0
DWIDTH 18 0
BBX 18 19 0 -1
BITMAP 
000000
000000
040000
040000
040000
043800
3c4400
048200
050100
060100
040100
0c0100
141d00
242300
042100
042280
041c00
000000
000000
ENDCHAR
STARTCHAR aace
ENCODING 43726 
SWIDTH 495 0
DWIDTH 18 0
BBX 18 19 0 -1
BITMAP 
000000
000000
03f000
040800
088400
108200
208100
208100
208100
208100
208100
208100
208100
210200
120400
0c0800
007000
000000
000000
ENDCHAR
STARTCHAR aacf
ENCODING 43727 
SWIDTH 495 0
DWIDTH 18 0
BBX 18 19 0 -1
BITMAP 
000000
000000
200800
200800
200800
27ff00
200800
200800
200800
200800
200800
20f800
210c00
220a00
2a0900
111000
00e000
000000
000000
ENDCHAR
STARTCHAR aad0
ENCODING 43728 
SWIDTH 495 0
DWIDTH 18 0
BBX 18 19 0 -1
BITMAP 
000000
000280
200a80
200800
200800
27ff00
200800
200800
200800
200800
200800
20f800
210c00
220a00
2a0900
111000
00e000
000000
000000
ENDCHAR
STARTCHAR aad1
ENCODING 43729 
SWIDTH 495 0
DWIDTH 18 0
BBX 18 19 0 -1
BITMAP 
000000
000300
201480
201480
201300
201000
27ff00
201000
201000
201000
201000
21f000
221800
221400
2a1200
112000
00c000
000000
000000
ENDCHAR
STARTCHAR aad2
ENCODING 43730 
SWIDTH 495 0
DWIDTH 18 0
BBX 18 19 0 -1
BITMAP 
000000
000000
000000
3f8000
010700
020500
040500
080500
100500
100500
100480
100400
100400
100400
080800
041000
03e000
000000
000000
ENDCHAR
STARTCHAR aad3
ENCODING 43731 
SWIDTH 495 0
DWIDTH 18 0
BBX 18 19 0 -1
BITMAP 
000000
000280
000280
3f8000
010700
020500
040500
080500
100500
100500
100480
100400
100400
100400
080800
041000
03e000
000000
000000
ENDCHAR
STARTCHAR aad4
ENCODING 43732 
SWIDTH 495 0
DWIDTH 18 0
BBX 18 19 0 -1
BITMAP 
000000
000300
000480
7f0480
020300
040000
080e00
100a00
200a00
200a00
200a00
200a00
200900
200800
101000
082000
07c000
000000
000000
ENDCHAR
STARTCHAR aad5
ENCODING 43733 
SWIDTH 495 0
DWIDTH 18 0
BBX 18 19 0 -1
BITMAP 
000000
000000
000000
0ff000
002000
004000
008000
010800
088400
084200
082100
101100
201100
401100
081000
042000
03c000
000000
000000
ENDCHAR
STARTCHAR aad6
ENCODING 43734 
SWIDTH 495 0
DWIDTH 18 0
BBX 18 19 0 -1
BITMAP 
000000
000280
000280
0ff000
002000
004000
008000
010800
088400
084200
082100
101100
201100
401100
081000
042000
03c000
000000
000000
ENDCHAR
STARTCHAR aad7
ENCODING 43735 
SWIDTH 495 0
DWIDTH 18 0
BBX 18 19 0 -1
BITMAP 
000000
000300
000480
0ff480
002300
004000
008000
010800
088400
084200
082100
101100
201100
401100
081000
042000
03c000
000000
000000
ENDCHAR
STARTCHAR aad8
ENCODING 43736 
SWIDTH 495 0
DWIDTH 18 0
BBX 18 19 0 -1
BITMAP 
000000
000000
000000
000000
020000
050000
088000
104000
202000
401000
000800
000400
000200
000100
000000
000000
000000
000000
000000
ENDCHAR
STARTCHAR aad9
ENCODING 43737 
SWIDTH 495 0
DWIDTH 18 0
BBX 18 19 0 -1
BITMAP 
000000
000000
000a00
000a00
020000
050000
088000
104000
202000
401000
000800
000400
000200
000100
000000
000000
000000
000000
000000
ENDCHAR
STARTCHAR aada
ENCODING 43738 
SWIDTH 495 0
DWIDTH 18 0
BBX 18 19 0 -1
BITMAP 
000000
000600
000900
000900
020600
050000
088000
104000
202000
401000
000800
000400
000200
000100
000000
000000
000000
000000
000000
ENDCHAR
STARTCHAR aadb
ENCODING 43739 
SWIDTH 495 0
DWIDTH 18 0
BBX 18 19 0 -1
BITMAP 
000000
000000
200000
27ff00
200800
200800
200800
27ff00
200800
200800
200800
20f800
210c00
220a00
2a0900
111000
00e000
000000
000000
ENDCHAR
STARTCHAR aadc
ENCODING 43740 
SWIDTH 495 0
DWIDTH 18 0
BBX 18 19 0 -1
BITMAP 
000000
000280
200280
200000
27ff00
200800
200800
200800
27ff00
200800
200800
20f800
210c00
220a00
2a0900
111000
00e000
000000
000000
ENDCHAR
STARTCHAR aadd
ENCODING 43741 
SWIDTH 495 0
DWIDTH 18 0
BBX 18 19 0 -1
BITMAP 
000000
000300
200480
200480
27ff00
200800
200800
200800
27ff00
200800
200800
20f800
210c00
220a00
2a0900
111000
00e000
000000
000000
ENDCHAR
STARTCHAR aade
ENCODING 43742 
SWIDTH 495 0
DWIDTH 18 0
BBX 18 19 0 -1
BITMAP 
000000
000000
002000
002000
1fff00
002000
002000
002000
1fff00
002000
002000
07e000
083000
102800
102400
084200
078000
000000
000000
ENDCHAR
STARTCHAR aadf
ENCODING 43743 
SWIDTH 495 0
DWIDTH 18 0
BBX 18 19 0 -1
BITMAP 
000000
000000
000000
1f8000
008400
008400
008400
008400
0fff80
108400
208400
208400
208400
210400
120800
0c1000
006000
000000
000000
ENDCHAR
STARTCHAR aae0
ENCODING 43744 
SWIDTH 495 0
DWIDTH 18 0
BBX 18 19 0 -1
BITMAP 
000000
000000
020400
020200
020100
3ff080
020000
020000
1a0000
260000
420000
420200
260100
1a0100
020100
020200
01fc00
000000
000000
ENDCHAR
STARTCHAR aae1
ENCODING 43745 
SWIDTH 495 0
DWIDTH 18 0
BBX 18 19 0 -1
BITMAP 
000000
000000
022000
022000
022000
07fc00
0a2200
122100
222080
222080
222080
222080
214080
108080
090100
060200
001c00
000000
000000
ENDCHAR
STARTCHAR aae2
ENCODING 43746 
SWIDTH 495 0
DWIDTH 18 0
BBX 18 19 0 -1
BITMAP 
000000
000000
040000
040000
040000
3ff000
040000
040000
040400
3ff200
040100
040100
040100
040100
020200
010400
00f800
000000
000000
ENDCHAR
STARTCHAR aae3
ENCODING 43747 
SWIDTH 495 0
DWIDTH 18 0
BBX 18 19 0 -1
BITMAP 
000000
000000
011000
011000
011000
0ffc00
011200
011100
011100
010200
011c00
010000
010000
010000
000000
000000
000000
000000
000000
ENDCHAR
STARTCHAR aae4
ENCODING 43748 
SWIDTH 495 0
DWIDTH 18 0
BBX 18 19 0 -1
BITMAP 
000000
000000
042000
042000
042000
3ffc00
042200
042100
042100
040100
040100
048200
047c00
040000
040000
040000
040000
000000
000000
ENDCHAR
STARTCHAR aae5
ENCODING 43749 
SWIDTH 495 0
DWIDTH 18 0
BBX 18 19 0 -1
BITMAP 
000000
000000
004000
084000
09f800
0a4400
0c4200
084200
084200
0a4400
09f800
004000
008000
070000
000000
000000
000000
000000
000000
ENDCHAR
STARTCHAR aae6
ENCODING 43750 
SWIDTH 495 0
DWIDTH 18 0
BBX 18 19 0 -1
BITMAP 
000000
000000
002000
202000
23fc00
242200
282100
302100
202100
202100
202100
242200
222400
01f800
002000
004000
078000
000000
000000
ENDCHAR
STARTCHAR aae7
ENCODING 43751 
SWIDTH 495 0
DWIDTH 18 0
BBX 18 19 0 -1
BITMAP 
000000
000000
004000
004000
004000
007e00
004000
004000
004000
07e000
085000
084800
084400
078000
000000
000000
000000
000000
000000
ENDCHAR
STARTCHAR aae8
ENCODING 43752 
SWIDTH 495 0
DWIDTH 18 0
BBX 18 19 0 -1
BITMAP 
000000
000000
004000
004000
004000
004000
007f00
004000
004000
004000
004000
0fe000
105000
204800
204400
108200
0f0000
000000
000000
ENDCHAR
STARTCHAR aae9
ENCODING 43753 
SWIDTH 495 0
DWIDTH 18 0
BBX 18 19 0 -1
BITMAP 
000000
000000
000000
0fe000
000000
000000
100000
100000
17f000
180800
100400
000200
000200
000200
000400
080800
07f000
000000
000000
ENDCHAR
STARTCHAR aaea
ENCODING 43754 
SWIDTH 495 0
DWIDTH 18 0
BBX 18 19 0 -1
BITMAP 
000000
000000
100800
100400
100400
100400
100400
100400
100400
110400
120400
0c0400
000400
000800
001000
002000
01c000
000000
000000
ENDCHAR
STARTCHAR aaeb
ENCODING 43755 
SWIDTH 495 0
DWIDTH 18 0
BBX 18 19 0 -1
BITMAP 
000000
000000
000000
0ff000
002000
004000
008000
010000
03f800
040400
080200
118100
224100
042100
042200
022400
01f800
000000
000000
ENDCHAR
STARTCHAR aaec
ENCODING 43756 
SWIDTH 495 0
DWIDTH 18 0
BBX 18 19 0 -1
BITMAP 
000000
000000
040000
040000
043000
044800
3c8800
050800
060800
040800
040800
0c0800
140800
240800
040880
040900
040600
000000
000000
ENDCHAR
STARTCHAR aaed
ENCODING 43757 
SWIDTH 495 0
DWIDTH 18 0
BBX 18 19 0 -1
BITMAP 
000000
000000
000000
0ff000
002000
004000
008000
010000
03f800
040400
080200
100100
200100
000100
000200
020400
01f800
000000
000000
ENDCHAR
STARTCHAR aaee
ENCODING 43758 
SWIDTH 495 0
DWIDTH 18 0
BBX 18 19 0 -1
BITMAP 
000000
000000
020000
020000
023800
0e4400
028200
030200
020200
060200
0a0200
020200
020400
021800
000000
000000
000000
000000
000000
ENDCHAR
STARTCHAR aaef
ENCODING 43759 
SWIDTH 495 0
DWIDTH 18 0
BBX 18 19 0 -1
BITMAP 
000000
000000
040000
040000
040000
043c00
3c4200
048100
050100
060100
040100
0c0100
140100
240100
040100
040200
043c00
000000
000000
ENDCHAR
STARTCHAR aaf0
ENCODING 43760 
SWIDTH 495 0
DWIDTH 18 0
BBX 18 19 0 -1
BITMAP 
000000
000000
000000
1fc000
004000
004000
03fc00
044200
084100
104100
204100
208100
211d00
222300
242100
182200
001c00
000000
000000
ENDCHAR
STARTCHAR aaf1
ENCODING 43761 
SWIDTH 495 0
DWIDTH 18 0
BBX 18 19 0 -1
BITMAP 
000000
000000
1fe000
004000
008000
010000
03f000
040800
080400
13c400
042400
044800
03f000
041800
0a2400
114200
208100
000000
000000
ENDCHAR
STARTCHAR aaf2
ENCODING 43762 
SWIDTH 495 0
DWIDTH 18 0
BBX 18 19 0 -1
BITMAP 
000000
000000
010000
010000
3ffc00
010000
010000
020000
07e000
081100
101200
21fc00
021000
041000
041000
020000
01fe00
000000
000000
ENDCHAR
STARTCHAR aaf3
ENCODING 43763 
SWIDTH 495 0
DWIDTH 18 0
BBX 18 19 0 -1
BITMAP 
000000
000000
100000
100000
100000
100000
100000
130000
148000
184000
104000
104000
104100
104100
104100
102200
101c00
000000
000000
ENDCHAR
STARTCHAR aba1
ENCODING 43937 
SWIDTH 495 0
DWIDTH 18 0
BBX 18 19 0 -1
BITMAP 
000000
000000
000000
07fe00
000200
004200
004200
004400
007800
004000
004000
008000
030000
000000
000000
000000
000000
000000
000000
ENDCHAR
STARTCHAR aba2
ENCODING 43938 
SWIDTH 495 0
DWIDTH 18 0
BBX 18 19 0 -1
BITMAP 
000000
000000
000000
3fff00
000100
000100
000100
008200
008400
00b800
008000
008000
008000
010000
020000
1c0000
000000
000000
000000
ENDCHAR
STARTCHAR aba3
ENCODING 43939 
SWIDTH 495 0
DWIDTH 18 0
BBX 18 19 0 -1
BITMAP 
000000
000000
000200
000400
000800
001000
003000
005000
009000
011000
021000
001000
001000
001000
000000
000000
000000
000000
000000
ENDCHAR
STARTCHAR aba4
ENCODING 43940 
SWIDTH 495 0
DWIDTH 18 0
BBX 18 19 0 -1
BITMAP 
000000
000400
000800
001000
002000
004000
00c000
014000
024000
044000
084000
104000
004000
004000
004000
004000
000000
000000
000000
ENDCHAR
STARTCHAR aba5
ENCODING 43941 
SWIDTH 495 0
DWIDTH 18 0
BBX 18 19 0 -1
BITMAP 
000000
000000
004000
004000
07fe00
040200
040200
040200
000400
000800
001000
002000
01c000
000000
000000
000000
000000
000000
000000
ENDCHAR
STARTCHAR aba6
ENCODING 43942 
SWIDTH 495 0
DWIDTH 18 0
BBX 18 19 0 -1
BITMAP 
000000
000000
008000
008000
3ffe00
200200
200200
200200
200200
000200
000400
000800
001000
002000
004000
038000
000000
000000
000000
ENDCHAR
STARTCHAR aba7
ENCODING 43943 
SWIDTH 495 0
DWIDTH 18 0
BBX 18 19 0 -1
BITMAP 
000000
000000
000000
07fc00
004000
004000
004000
004000
004000
004000
004000
0ffe00
000000
000000
000000
000000
000000
000000
000000
ENDCHAR
STARTCHAR aba8
ENCODING 43944 
SWIDTH 495 0
DWIDTH 18 0
BBX 18 19 0 -1
BITMAP 
000000
000000
000000
000000
1ffe00
008000
008000
008000
008000
008000
008000
008000
008000
008000
3fff00
000000
000000
000000
000000
ENDCHAR
STARTCHAR aba9
ENCODING 43945 
SWIDTH 495 0
DWIDTH 18 0
BBX 18 19 0 -1
BITMAP 
000000
000000
001000
001000
001000
0ffe00
005000
009000
011000
021000
041000
081000
007000
000000
000000
000000
000000
000000
000000
ENDCHAR
STARTCHAR abaa
ENCODING 43946 
SWIDTH 495 0
DWIDTH 18 0
BBX 18 19 0 -1
BITMAP 
000000
000000
002000
002000
002000
3fff00
002000
006000
00a000
012000
022000
042000
082000
102000
202000
00e000
000000
000000
000000
ENDCHAR
STARTCHAR abab
ENCODING 43947 
SWIDTH 495 0
DWIDTH 18 0
BBX 18 19 0 -1
BITMAP 
000000
000000
010000
010000
010000
3ffe00
010200
010200
010200
010200
010200
020200
040200
081200
100a00
200600
000000
000000
000000
ENDCHAR
STARTCHAR abac
ENCODING 43948 
SWIDTH 495 0
DWIDTH 18 0
BBX 18 19 0 -1
BITMAP 
000000
000500
010500
010000
010000
3ffe00
010200
010200
010200
010200
010200
020200
040200
081200
100a00
200600
000000
000000
000000
ENDCHAR
STARTCHAR abad
ENCODING 43949 
SWIDTH 495 0
DWIDTH 18 0
BBX 18 19 0 -1
BITMAP 
000000
000000
008000
008000
008000
008000
1ffe00
008000
008000
008000
008000
3fff00
008000
008000
008000
008000
008000
000000
000000
ENDCHAR
STARTCHAR abae
ENCODING 43950 
SWIDTH 495 0
DWIDTH 18 0
BBX 18 19 0 -1
BITMAP 
000000
000000
008500
008500
008000
008000
1ffe00
008000
008000
008000
008000
3fff00
008000
008000
008000
008000
008000
000000
000000
ENDCHAR
STARTCHAR abaf
ENCODING 43951 
SWIDTH 495 0
DWIDTH 18 0
BBX 18 19 0 -1
BITMAP 
000000
000000
010000
01ff00
020100
040100
080100
300100
000200
000400
000800
001000
002000
004000
008000
0f0000
000000
000000
000000
ENDCHAR
STARTCHAR abb0
ENCODING 43952 
SWIDTH 495 0
DWIDTH 18 0
BBX 18 19 0 -1
BITMAP 
000000
000280
010280
010000
01ff00
020100
040100
080100
300200
000400
000800
001000
002000
004000
008000
0f0000
000000
000000
000000
ENDCHAR
STARTCHAR abb1
ENCODING 43953 
SWIDTH 495 0
DWIDTH 18 0
BBX 18 19 0 -1
BITMAP 
000000
000000
040000
040000
040000
07ff80
041000
081000
101000
201000
001000
001000
002000
004000
008000
070000
000000
000000
000000
ENDCHAR
STARTCHAR abb2
ENCODING 43954 
SWIDTH 495 0
DWIDTH 18 0
BBX 18 19 0 -1
BITMAP 
000000
000500
040500
040000
040000
07ff80
041000
081000
101000
201000
001000
001000
002000
004000
008000
070000
000000
000000
000000
ENDCHAR
STARTCHAR abb3
ENCODING 43955 
SWIDTH 495 0
DWIDTH 18 0
BBX 18 19 0 -1
BITMAP 
000000
000000
000000
000000
1ffe00
000200
000200
000200
000200
000200
000200
000200
000200
000200
1ffe00
000000
000000
000000
000000
ENDCHAR
STARTCHAR abb4
ENCODING 43956 
SWIDTH 495 0
DWIDTH 18 0
BBX 18 19 0 -1
BITMAP 
000000
000500
000500
000000
1ffe00
000200
000200
000200
000200
000200
000200
000200
000200
000200
1ffe00
000000
000000
000000
000000
ENDCHAR
STARTCHAR abb5
ENCODING 43957 
SWIDTH 495 0
DWIDTH 18 0
BBX 18 19 0 -1
BITMAP 
000000
000000
080800
080800
080800
080800
7fff00
080800
080800
080800
080800
000800
001000
002000
004000
038000
000000
000000
000000
ENDCHAR
STARTCHAR abb6
ENCODING 43958 
SWIDTH 495 0
DWIDTH 18 0
BBX 18 19 0 -1
BITMAP 
000000
000280
080a80
080800
080800
080800
7fff00
080800
080800
080800
080800
000800
001000
002000
004000
038000
000000
000000
000000
ENDCHAR
STARTCHAR abb7
ENCODING 43959 
SWIDTH 495 0
DWIDTH 18 0
BBX 18 19 0 -1
BITMAP 
000000
000000
000000
1f8000
000000
000100
000100
000100
1f8100
000200
000400
000800
001000
002000
004000
0f8000
000000
000000
000000
ENDCHAR
STARTCHAR abb8
ENCODING 43960 
SWIDTH 495 0
DWIDTH 18 0
BBX 18 19 0 -1
BITMAP 
000000
000280
000280
1f8000
000000
000100
000100
000100
1f8100
000200
000400
000800
001000
002000
004000
0f8000
000000
000000
000000
ENDCHAR
STARTCHAR abb9
ENCODING 43961 
SWIDTH 495 0
DWIDTH 18 0
BBX 18 19 0 -1
BITMAP 
000000
000000
000000
0ffe00
000200
000400
000800
001000
002000
004000
00a000
011000
020800
040400
080200
100100
000000
000000
000000
ENDCHAR
STARTCHAR abba
ENCODING 43962 
SWIDTH 495 0
DWIDTH 18 0
BBX 18 19 0 -1
BITMAP 
000000
000500
000500
000000
0ff800
000800
001000
002000
004000
008000
014000
022000
041000
080800
100400
200200
000000
000000
000000
ENDCHAR
STARTCHAR abbb
ENCODING 43963 
SWIDTH 495 0
DWIDTH 18 0
BBX 18 19 0 -1
BITMAP 
000000
000000
040000
040000
040000
3fff00
040100
040200
040400
040800
040000
040000
040000
040000
020000
01fe00
000000
000000
000000
ENDCHAR
STARTCHAR abbc
ENCODING 43964 
SWIDTH 495 0
DWIDTH 18 0
BBX 18 19 0 -1
BITMAP 
000000
000280
040280
040000
040000
3fff00
040100
040200
040400
040800
040000
040000
040000
040000
020000
01fe00
000000
000000
000000
ENDCHAR
STARTCHAR abbd
ENCODING 43965 
SWIDTH 495 0
DWIDTH 18 0
BBX 18 19 0 -1
BITMAP 
000000
000000
000100
100100
080100
040100
020100
010100
000100
000200
000400
000800
001000
002000
004000
038000
000000
000000
000000
ENDCHAR
STARTCHAR abbe
ENCODING 43966 
SWIDTH 495 0
DWIDTH 18 0
BBX 18 19 0 -1
BITMAP 
000000
000500
000500
200000
100200
080200
040200
020200
000200
000200
000400
000800
001000
002000
004000
038000
000000
000000
000000
ENDCHAR
STARTCHAR abbf
ENCODING 43967 
SWIDTH 495 0
DWIDTH 18 0
BBX 18 19 0 -1
BITMAP 
000000
000000
010000
01ff00
020100
040100
080100
310100
008200
004400
002800
001000
002000
004000
008000
0f0000
000000
000000
000000
ENDCHAR
STARTCHAR abc0
ENCODING 43968 
SWIDTH 495 0
DWIDTH 18 0
BBX 18 19 0 -1
BITMAP 
000000
000280
010280
010000
01ff00
020100
040100
090100
308200
004400
002800
001000
002000
004000
008000
0f0000
000000
000000
000000
ENDCHAR
STARTCHAR abc1
ENCODING 43969 
SWIDTH 495 0
DWIDTH 18 0
BBX 18 19 0 -1
BITMAP 
000000
000000
000400
0ff800
004000
004000
004000
004000
3fff00
004000
004000
004000
008000
010000
020000
1c0000
000000
000000
000000
ENDCHAR
STARTCHAR abc2
ENCODING 43970 
SWIDTH 495 0
DWIDTH 18 0
BBX 18 19 0 -1
BITMAP 
000000
000280
000280
0ff800
004000
004000
004000
004000
3fff00
004000
004000
004000
008000
010000
020000
1c0000
000000
000000
000000
ENDCHAR
STARTCHAR abc3
ENCODING 43971 
SWIDTH 495 0
DWIDTH 18 0
BBX 18 19 0 -1
BITMAP 
000000
000000
000000
044000
044200
044200
044200
044200
000200
000400
000800
001000
00e000
000000
000000
000000
000000
000000
000000
ENDCHAR
STARTCHAR abc4
ENCODING 43972 
SWIDTH 495 0
DWIDTH 18 0
BBX 18 19 0 -1
BITMAP 
000000
000000
000000
108000
108100
108100
108100
108100
108100
000200
000400
000800
001000
002000
004000
078000
000000
000000
000000
ENDCHAR
STARTCHAR abc5
ENCODING 43973 
SWIDTH 495 0
DWIDTH 18 0
BBX 18 19 0 -1
BITMAP 
000000
000280
000280
108000
108100
108100
108100
108100
108100
000200
000400
000800
001000
002000
004000
078000
000000
000000
000000
ENDCHAR
STARTCHAR abc6
ENCODING 43974 
SWIDTH 495 0
DWIDTH 18 0
BBX 18 19 0 -1
BITMAP 
000000
000000
000000
1ffe00
000000
000000
000000
3fff00
004000
004000
004000
004000
008000
010000
020000
1c0000
000000
000000
000000
ENDCHAR
STARTCHAR abc7
ENCODING 43975 
SWIDTH 495 0
DWIDTH 18 0
BBX 18 19 0 -1
BITMAP 
000000
000280
000280
1ff800
000000
000000
000000
3fff00
004000
004000
004000
004000
008000
010000
020000
1c0000
000000
000000
000000
ENDCHAR
STARTCHAR abc8
ENCODING 43976 
SWIDTH 495 0
DWIDTH 18 0
BBX 18 19 0 -1
BITMAP 
000000
000000
020000
020000
020000
020000
020000
03c000
022000
021000
020800
020400
020000
020000
020000
020000
020000
000000
000000
ENDCHAR
STARTCHAR abc9
ENCODING 43977 
SWIDTH 495 0
DWIDTH 18 0
BBX 18 19 0 -1
BITMAP 
000000
000a00
020a00
020000
020000
020000
020000
03c000
022000
021000
020800
020400
020000
020000
020000
020000
020000
000000
000000
ENDCHAR
STARTCHAR abca
ENCODING 43978 
SWIDTH 495 0
DWIDTH 18 0
BBX 18 19 0 -1
BITMAP 
000000
000000
004000
004000
004000
004000
3fff00
004000
004000
004000
004000
004000
008000
010000
020000
1c0000
000000
000000
000000
ENDCHAR
STARTCHAR abcb
ENCODING 43979 
SWIDTH 495 0
DWIDTH 18 0
BBX 18 19 0 -1
BITMAP 
000000
000000
000000
000000
0ffc00
000000
000000
000000
000000
000000
000000
000000
000000
000000
3fff00
000000
000000
000000
000000
ENDCHAR
STARTCHAR abcc
ENCODING 43980 
SWIDTH 495 0
DWIDTH 18 0
BBX 18 19 0 -1
BITMAP 
000000
000000
000000
0ffe00
000200
000200
040400
020800
011000
00a000
004000
00a000
011000
020800
040400
080000
000000
000000
000000
ENDCHAR
STARTCHAR abcd
ENCODING 43981 
SWIDTH 495 0
DWIDTH 18 0
BBX 18 19 0 -1
BITMAP 
000000
000000
008000
008000
1ffc00
000800
001000
002000
004000
00c000
01a000
029000
048800
088400
108200
008000
008000
000000
000000
ENDCHAR
STARTCHAR abce
ENCODING 43982 
SWIDTH 495 0
DWIDTH 18 0
BBX 18 19 0 -1
BITMAP 
000000
000000
000400
000400
000400
000400
000800
001000
002000
004000
008000
010000
020000
040000
080000
300000
000000
000000
000000
ENDCHAR
STARTCHAR abcf
ENCODING 43983 
SWIDTH 495 0
DWIDTH 18 0
BBX 18 19 0 -1
BITMAP 
000000
000000
004000
002000
001000
040800
040400
040200
040100
040100
040100
040100
080100
100100
200100
000100
000000
000000
000000
ENDCHAR
STARTCHAR abd0
ENCODING 43984 
SWIDTH 495 0
DWIDTH 18 0
BBX 18 19 0 -1
BITMAP 
000000
000280
004280
002000
001000
040800
040400
040200
040100
040100
040100
040100
080100
100100
200100
000100
000000
000000
000000
ENDCHAR
STARTCHAR abd1
ENCODING 43985 
SWIDTH 495 0
DWIDTH 18 0
BBX 18 19 0 -1
BITMAP 
000000
000300
008480
004480
002300
081000
080800
080400
080200
080200
080200
080200
100200
200200
400200
000200
000000
000000
000000
ENDCHAR
STARTCHAR abd2
ENCODING 43986 
SWIDTH 495 0
DWIDTH 18 0
BBX 18 19 0 -1
BITMAP 
000000
000000
100000
100000
100200
100400
100800
1ff000
100000
100000
100000
100000
100000
100000
080000
07fe00
000000
000000
000000
ENDCHAR
STARTCHAR abd3
ENCODING 43987 
SWIDTH 495 0
DWIDTH 18 0
BBX 18 19 0 -1
BITMAP 
000000
000500
100500
100000
100200
100400
100800
1ff000
100000
100000
100000
100000
100000
100000
080000
07fe00
000000
000000
000000
ENDCHAR
STARTCHAR abd4
ENCODING 43988 
SWIDTH 495 0
DWIDTH 18 0
BBX 18 19 0 -1
BITMAP 
000000
000300
200480
200480
200300
200800
201000
3fe000
200000
200000
200000
200000
200000
200000
100000
0ffc00
000000
000000
000000
ENDCHAR
STARTCHAR abd5
ENCODING 43989 
SWIDTH 495 0
DWIDTH 18 0
BBX 18 19 0 -1
BITMAP 
000000
000000
000000
1fff00
000100
000100
000100
000200
000400
000800
001000
002000
004000
008000
010000
0e0000
000000
000000
000000
ENDCHAR
STARTCHAR abd6
ENCODING 43990 
SWIDTH 495 0
DWIDTH 18 0
BBX 18 19 0 -1
BITMAP 
000000
000500
000500
000000
1ffe00
000200
000200
000200
000400
000800
001000
002000
004000
008000
010000
0e0000
000000
000000
000000
ENDCHAR
STARTCHAR abd7
ENCODING 43991 
SWIDTH 495 0
DWIDTH 18 0
BBX 18 19 0 -1
BITMAP 
000000
000300
000480
000480
3fff00
000400
000400
000400
000800
001000
002000
004000
008000
010000
020000
1c0000
000000
000000
000000
ENDCHAR
STARTCHAR abd8
ENCODING 43992 
SWIDTH 495 0
DWIDTH 18 0
BBX 18 19 0 -1
BITMAP 
000000
000000
000000
000000
020000
050000
088000
104000
202000
401000
000800
000400
000200
000100
000000
000000
000000
000000
000000
ENDCHAR
STARTCHAR abd9
ENCODING 43993 
SWIDTH 495 0
DWIDTH 18 0
BBX 18 19 0 -1
BITMAP 
000000
000000
000a00
000a00
020000
050000
088000
104000
202000
401000
000800
000400
000200
000100
000000
000000
000000
000000
000000
ENDCHAR
STARTCHAR abda
ENCODING 43994 
SWIDTH 495 0
DWIDTH 18 0
BBX 18 19 0 -1
BITMAP 
000000
000600
000900
000900
020600
050000
088000
104000
202000
401000
000800
000400
000200
000100
000000
000000
000000
000000
000000
ENDCHAR
STARTCHAR abdb
ENCODING 43995 
SWIDTH 495 0
DWIDTH 18 0
BBX 18 19 0 -1
BITMAP 
000000
000000
008000
008000
008000
3ffe00
008000
008000
008000
049000
088800
108400
208200
008000
008000
008000
000000
000000
000000
ENDCHAR
STARTCHAR abdc
ENCODING 43996 
SWIDTH 495 0
DWIDTH 18 0
BBX 18 19 0 -1
BITMAP 
000000
000500
008500
008000
008000
3ffe00
008000
008000
008000
049000
088800
108400
208200
008000
008000
008000
000000
000000
000000
ENDCHAR
STARTCHAR abdd
ENCODING 43997 
SWIDTH 495 0
DWIDTH 18 0
BBX 18 19 0 -1
BITMAP 
000000
000300
008480
008480
008300
3ffc00
008000
008000
008000
049000
088800
108400
208200
008000
008000
008000
000000
000000
000000
ENDCHAR
STARTCHAR abde
ENCODING 43998 
SWIDTH 495 0
DWIDTH 18 0
BBX 18 19 0 -1
BITMAP 
000000
000000
000000
3fff00
000100
000100
000200
000400
000800
041000
022000
014000
008000
004000
002000
001000
000000
000000
000000
ENDCHAR
STARTCHAR abdf
ENCODING 43999 
SWIDTH 495 0
DWIDTH 18 0
BBX 18 19 0 -1
BITMAP 
000000
000000
000000
0ffc00
000200
000000
000000
000000
07f800
000400
000000
000000
000000
000000
1ffc00
000200
000100
000000
000000
ENDCHAR
STARTCHAR abe0
ENCODING 44000 
SWIDTH 495 0
DWIDTH 18 0
BBX 18 19 0 -1
BITMAP 
000000
000000
001000
002000
004000
008000
010000
020000
040800
080400
100200
200100
200100
3fff00
000100
000100
000000
000000
000000
ENDCHAR
STARTCHAR abe1
ENCODING 44001 
SWIDTH 495 0
DWIDTH 18 0
BBX 18 19 0 -1
BITMAP 
000000
000000
000400
000400
000400
040400
020800
011000
00a000
004000
00a000
011000
020800
040400
080000
700000
000000
000000
000000
ENDCHAR
STARTCHAR abe2
ENCODING 44002 
SWIDTH 495 0
DWIDTH 18 0
BBX 18 19 0 -1
BITMAP 
000000
000000
000000
3ffe00
020000
020000
020000
020000
3fff00
020000
020000
020000
020000
020000
010000
00fe00
000000
000000
000000
ENDCHAR
STARTCHAR abe3
ENCODING 44003 
SWIDTH 495 0
DWIDTH 18 0
BBX 18 19 0 -1
BITMAP 
000000
000000
010000
010000
010000
0ffe00
010200
010400
010800
010000
010000
010000
010000
000000
000000
000000
000000
000000
000000
ENDCHAR
STARTCHAR abe4
ENCODING 44004 
SWIDTH 495 0
DWIDTH 18 0
BBX 18 19 0 -1
BITMAP 
000000
000000
020000
020000
020000
3fff00
020100
020200
020400
020800
021000
020000
020000
020000
020000
020000
020000
000000
000000
ENDCHAR
STARTCHAR abe5
ENCODING 44005 
SWIDTH 495 0
DWIDTH 18 0
BBX 18 19 0 -1
BITMAP 
000000
000000
000000
03f000
001000
001000
001000
001000
001000
001000
001000
0ffe00
000000
000000
000000
000000
000000
000000
000000
ENDCHAR
STARTCHAR abe6
ENCODING 44006 
SWIDTH 495 0
DWIDTH 18 0
BBX 18 19 0 -1
BITMAP 
000000
000000
000000
000000
0ff000
001000
001000
001000
001000
001000
001000
001000
001000
001000
3fff00
000000
000000
000000
000000
ENDCHAR
STARTCHAR abe7
ENCODING 44007 
SWIDTH 495 0
DWIDTH 18 0
BBX 18 19 0 -1
BITMAP 
000000
000000
000000
07fc00
000400
000400
000400
03fc00
000400
000400
000400
07fc00
000000
000000
000000
000000
000000
000000
000000
ENDCHAR
STARTCHAR abe8
ENCODING 44008 
SWIDTH 495 0
DWIDTH 18 0
BBX 18 19 0 -1
BITMAP 
000000
000000
000000
1ffc00
000400
000400
000400
000400
07fc00
000400
000400
000400
000400
000400
000400
1ffc00
000000
000000
000000
ENDCHAR
STARTCHAR abe9
ENCODING 44009 
SWIDTH 495 0
DWIDTH 18 0
BBX 18 19 0 -1
BITMAP 
000000
000000
0ffc00
000000
000000
000000
3fff00
000100
000100
000200
000400
000800
001000
002000
004000
038000
000000
000000
000000
ENDCHAR
STARTCHAR abea
ENCODING 44010 
SWIDTH 495 0
DWIDTH 18 0
BBX 18 19 0 -1
BITMAP 
000000
000000
080400
080400
080400
080400
080400
080400
080400
080400
080400
000400
000800
001000
002000
01c000
000000
000000
000000
ENDCHAR
STARTCHAR abeb
ENCODING 44011 
SWIDTH 495 0
DWIDTH 18 0
BBX 18 19 0 -1
BITMAP 
000000
000000
004000
004000
044000
044000
044000
044000
044000
044080
044100
044200
084400
104800
205000
006000
000000
000000
000000
ENDCHAR
STARTCHAR abec
ENCODING 44012 
SWIDTH 495 0
DWIDTH 18 0
BBX 18 19 0 -1
BITMAP 
000000
000000
080000
080000
080000
080000
080000
080100
080200
080400
080800
081000
082000
084000
088000
0f0000
000000
000000
000000
ENDCHAR
STARTCHAR abed
ENCODING 44013 
SWIDTH 495 0
DWIDTH 18 0
BBX 18 19 0 -1
BITMAP 
000000
000000
000000
1ffe00
100200
100200
100200
100200
100200
100200
100200
100200
100200
100200
100200
1ffe00
000000
000000
000000
ENDCHAR
STARTCHAR abee
ENCODING 44014 
SWIDTH 495 0
DWIDTH 18 0
BBX 18 19 0 -1
BITMAP 
000000
000000
000000
07fe00
040200
040200
040200
000200
000400
000800
001000
002000
01c000
000000
000000
000000
000000
000000
000000
ENDCHAR
STARTCHAR abef
ENCODING 44015 
SWIDTH 495 0
DWIDTH 18 0
BBX 18 19 0 -1
BITMAP 
000000
000000
000000
3ffe00
200200
200200
200200
200200
000200
000200
000400
000800
001000
002000
004000
038000
000000
000000
000000
ENDCHAR
STARTCHAR abf0
ENCODING 44016 
SWIDTH 495 0
DWIDTH 18 0
BBX 18 19 0 -1
BITMAP 
000000
000000
001000
001000
001000
1ffe00
041000
041000
041000
041000
041000
041000
3fff00
001000
001000
001000
001000
000000
000000
ENDCHAR
STARTCHAR abf1
ENCODING 44017 
SWIDTH 495 0
DWIDTH 18 0
BBX 18 19 0 -1
BITMAP 
000000
000000
000000
1ffe00
000200
000400
008800
009000
00a000
008000
008000
008000
008000
008000
3fff00
000000
000000
000000
000000
ENDCHAR
STARTCHAR abf2
ENCODING 44018 
SWIDTH 495 0
DWIDTH 18 0
BBX 18 19 0 -1
BITMAP 
000000
000000
000000
1ffe00
000200
000200
000200
1ffe00
000200
000200
000200
000400
000800
001000
002000
01c000
000000
000000
000000
ENDCHAR
STARTCHAR abf3
ENCODING 44019 
SWIDTH 495 0
DWIDTH 18 0
BBX 18 19 0 -1
BITMAP 
000000
000000
000000
000000
3f0000
000000
000100
000100
000100
000200
000400
000800
001000
002000
004000
1f8000
000000
000000
000000
ENDCHAR
STARTCHAR abf4
ENCODING 44020 
SWIDTH 495 0
DWIDTH 18 0
BBX 18 19 0 -1
BITMAP 
000000
000500
008500
008000
3ffe00
200200
200200
200200
200200
000200
000400
000800
001000
002000
004000
038000
000000
000000
000000
ENDCHAR
STARTCHAR abf5
ENCODING 44021 
SWIDTH 495 0
DWIDTH 18 0
BBX 18 19 0 -1
BITMAP 
000000
000000
004000
004000
07fe00
004200
004200
004200
004200
008200
011200
020a00
040600
000000
000000
000000
000000
000000
000000
ENDCHAR
STARTCHAR abf6
ENCODING 44022 
SWIDTH 495 0
DWIDTH 18 0
BBX 18 19 0 -1
BITMAP 
000000
000000
020000
020000
03fe00
021000
021000
041000
081000
001000
002000
004000
038000
000000
000000
000000
000000
000000
000000
ENDCHAR
STARTCHAR a5a1
ENCODING 42401 
SWIDTH 495 0
DWIDTH 18 0
BBX 18 19 0 -1
BITMAP 
000000
008000
008000
000000
008000
008000
008000
008000
008000
008000
008000
008000
008000
008000
008000
008000
000000
000000
000000
ENDCHAR
STARTCHAR a5a2
ENCODING 42402 
SWIDTH 495 0
DWIDTH 18 0
BBX 18 19 0 -1
BITMAP 
000000
021000
021000
000000
021000
021000
021000
021000
021000
021000
021000
021000
021000
021000
021000
021000
000000
000000
000000
ENDCHAR
STARTCHAR a5a3
ENCODING 42403 
SWIDTH 495 0
DWIDTH 18 0
BBX 18 19 0 -1
BITMAP 
000000
088800
088800
000000
088800
088800
088800
088800
088800
088800
088800
088800
088800
088800
088800
088800
000000
000000
000000
ENDCHAR
STARTCHAR a5a4
ENCODING 42404 
SWIDTH 495 0
DWIDTH 18 0
BBX 18 19 0 -1
BITMAP 
000000
100000
100000
000000
120200
120200
120200
110400
110400
108800
108800
108800
105000
105000
102000
102000
000000
000000
000000
ENDCHAR
STARTCHAR a5a5
ENCODING 42405 
SWIDTH 495 0
DWIDTH 18 0
BBX 18 19 0 -1
BITMAP 
000000
000000
000000
000000
100400
100400
080800
080800
041000
041000
022000
022000
014000
014000
008000
008000
000000
000000
000000
ENDCHAR
STARTCHAR a5a6
ENCODING 42406 
SWIDTH 495 0
DWIDTH 18 0
BBX 18 19 0 -1
BITMAP 
000000
000200
000200
000000
101200
101200
101200
082200
082200
044200
044200
044200
028200
028200
010200
010200
000000
000000
000000
ENDCHAR
STARTCHAR a5a7
ENCODING 42407 
SWIDTH 495 0
DWIDTH 18 0
BBX 18 19 0 -1
BITMAP 
000000
001200
001200
000000
105200
105200
105200
089200
089200
089200
051200
051200
051200
021200
021200
021200
000000
000000
000000
ENDCHAR
STARTCHAR a5a8
ENCODING 42408 
SWIDTH 495 0
DWIDTH 18 0
BBX 18 19 0 -1
BITMAP 
000000
002a00
002a00
000000
20aa00
20aa00
20aa00
112a00
112a00
112a00
0a2a00
0a2a00
0a2a00
042a00
042a00
042a00
000000
000000
000000
ENDCHAR
STARTCHAR a5a9
ENCODING 42409 
SWIDTH 495 0
DWIDTH 18 0
BBX 18 19 0 -1
BITMAP 
000000
100000
100000
000000
140100
120200
110400
108800
105000
102000
102000
105000
108800
110400
120200
140100
000000
000000
000000
ENDCHAR
STARTCHAR a5aa
ENCODING 42410 
SWIDTH 495 0
DWIDTH 18 0
BBX 18 19 0 -1
BITMAP 
000000
000000
000000
000000
100400
080800
041000
022000
014000
008000
008000
014000
022000
041000
080800
100400
000000
000000
000000
ENDCHAR
STARTCHAR a5b0
ENCODING 42416 
SWIDTH 495 0
DWIDTH 18 0
BBX 18 19 0 -1
BITMAP 
000000
000000
008000
008000
008000
008000
008000
008000
008000
008000
008000
008000
008000
008000
008000
008000
000000
000000
000000
ENDCHAR
STARTCHAR a5b1
ENCODING 42417 
SWIDTH 495 0
DWIDTH 18 0
BBX 18 19 0 -1
BITMAP 
000000
000000
021000
021000
021000
021000
021000
021000
021000
021000
021000
021000
021000
021000
021000
021000
000000
000000
000000
ENDCHAR
STARTCHAR a5b2
ENCODING 42418 
SWIDTH 495 0
DWIDTH 18 0
BBX 18 19 0 -1
BITMAP 
000000
000000
088800
088800
088800
088800
088800
088800
088800
088800
088800
088800
088800
088800
088800
088800
000000
000000
000000
ENDCHAR
STARTCHAR a5b3
ENCODING 42419 
SWIDTH 495 0
DWIDTH 18 0
BBX 18 19 0 -1
BITMAP 
000000
000000
120200
120200
120200
110400
110400
110400
108800
108800
108800
105000
105000
105000
102000
102000
000000
000000
000000
ENDCHAR
STARTCHAR a5b4
ENCODING 42420 
SWIDTH 495 0
DWIDTH 18 0
BBX 18 19 0 -1
BITMAP 
000000
000000
200200
200200
100400
100400
080800
080800
041000
041000
022000
022000
014000
014000
008000
008000
000000
000000
000000
ENDCHAR
STARTCHAR a5b5
ENCODING 42421 
SWIDTH 495 0
DWIDTH 18 0
BBX 18 19 0 -1
BITMAP 
000000
000000
101200
101200
101200
082200
082200
082200
044200
044200
044200
028200
028200
028200
010200
010200
000000
000000
000000
ENDCHAR
STARTCHAR a5b6
ENCODING 42422 
SWIDTH 495 0
DWIDTH 18 0
BBX 18 19 0 -1
BITMAP 
000000
000000
202900
202900
202900
104900
104900
104900
088900
088900
088900
050900
050900
050900
020900
020900
000000
000000
000000
ENDCHAR
STARTCHAR a5b7
ENCODING 42423 
SWIDTH 495 0
DWIDTH 18 0
BBX 18 19 0 -1
BITMAP 
000000
000000
402480
402480
406480
20a480
20a480
20a480
112480
112480
112480
0a2480
0a2480
0a2480
042480
042480
000000
000000
000000
ENDCHAR
STARTCHAR a5b8
ENCODING 42424 
SWIDTH 495 0
DWIDTH 18 0
BBX 18 19 0 -1
BITMAP 
000000
000000
140100
120200
110400
110400
108800
105000
102000
102000
105000
108800
110400
110400
120200
140100
000000
000000
000000
ENDCHAR
STARTCHAR a5b9
ENCODING 42425 
SWIDTH 495 0
DWIDTH 18 0
BBX 18 19 0 -1
BITMAP 
000000
000000
200200
100400
080800
041000
022000
014000
008000
008000
014000
022000
041000
080800
100400
200200
000000
000000
000000
ENDCHAR
STARTCHAR a5c1
ENCODING 42433 
SWIDTH 495 0
DWIDTH 18 0
BBX 18 19 0 -1
BITMAP 
000000
000000
00c000
012000
012000
021000
021000
040800
040800
080400
080400
1ffe00
100200
200100
200100
200100
000000
000000
000000
ENDCHAR
STARTCHAR a5c2
ENCODING 42434 
SWIDTH 495 0
DWIDTH 18 0
BBX 18 19 0 -1
BITMAP 
000000
000000
0ff800
080400
080200
080200
080200
080400
0ff800
080400
080200
080200
080200
080200
080400
0ff800
000000
000000
000000
ENDCHAR
STARTCHAR a5c3
ENCODING 42435 
SWIDTH 495 0
DWIDTH 18 0
BBX 18 19 0 -1
BITMAP 
000000
000000
0ffe00
080000
080000
080000
080000
080000
080000
080000
080000
080000
080000
080000
080000
080000
000000
000000
000000
ENDCHAR
STARTCHAR a5c4
ENCODING 42436 
SWIDTH 495 0
DWIDTH 18 0
BBX 18 19 0 -1
BITMAP 
000000
000000
00c000
012000
012000
021000
040800
040800
080400
080400
100200
100200
200100
200100
400080
7fff80
000000
000000
000000
ENDCHAR
STARTCHAR a5c5
ENCODING 42437 
SWIDTH 495 0
DWIDTH 18 0
BBX 18 19 0 -1
BITMAP 
000000
000000
0ffe00
080000
080000
080000
080000
080000
0ff800
080000
080000
080000
080000
080000
080000
0ffe00
000000
000000
000000
ENDCHAR
STARTCHAR a5c6
ENCODING 42438 
SWIDTH 495 0
DWIDTH 18 0
BBX 18 19 0 -1
BITMAP 
000000
000000
1fff00
000200
000400
000800
001000
002000
004000
008000
010000
020000
040000
080000
100000
3fff00
000000
000000
000000
ENDCHAR
STARTCHAR a5c7
ENCODING 42439 
SWIDTH 495 0
DWIDTH 18 0
BBX 18 19 0 -1
BITMAP 
000000
000000
100200
100200
100200
100200
100200
100200
1ffe00
100200
100200
100200
100200
100200
100200
100200
000000
000000
000000
ENDCHAR
STARTCHAR a5c8
ENCODING 42440 
SWIDTH 495 0
DWIDTH 18 0
BBX 18 19 0 -1
BITMAP 
000000
000000
03f000
040800
080400
100200
100200
100200
13f200
100200
100200
100200
100200
080400
040800
03f000
000000
000000
000000
ENDCHAR
STARTCHAR a5c9
ENCODING 42441 
SWIDTH 495 0
DWIDTH 18 0
BBX 18 19 0 -1
BITMAP 
000000
000000
008000
008000
008000
008000
008000
008000
008000
008000
008000
008000
008000
008000
008000
008000
000000
000000
000000
ENDCHAR
STARTCHAR a5ca
ENCODING 42442 
SWIDTH 495 0
DWIDTH 18 0
BBX 18 19 0 -1
BITMAP 
000000
000000
080600
080800
083000
084000
098000
0a0000
0c0000
0a0000
098000
084000
083000
080800
080600
080100
000000
000000
000000
ENDCHAR
STARTCHAR a5cb
ENCODING 42443 
SWIDTH 495 0
DWIDTH 18 0
BBX 18 19 0 -1
BITMAP 
000000
000000
00c000
012000
012000
021000
021000
040800
040800
080400
080400
100200
100200
200100
200100
200100
000000
000000
000000
ENDCHAR
STARTCHAR a5cc
ENCODING 42444 
SWIDTH 495 0
DWIDTH 18 0
BBX 18 19 0 -1
BITMAP 
000000
000000
400100
600300
500500
480900
441100
422100
414100
408100
400100
400100
400100
400100
400100
400100
000000
000000
000000
ENDCHAR
STARTCHAR a5cd
ENCODING 42445 
SWIDTH 495 0
DWIDTH 18 0
BBX 18 19 0 -1
BITMAP 
000000
000000
180200
140200
120200
120200
110200
110200
108200
104200
104200
102200
101200
101200
100a00
100600
000000
000000
000000
ENDCHAR
STARTCHAR a5ce
ENCODING 42446 
SWIDTH 495 0
DWIDTH 18 0
BBX 18 19 0 -1
BITMAP 
000000
000000
1ffe00
000000
000000
000000
000000
000000
0ffc00
000000
000000
000000
000000
000000
000000
1ffe00
000000
000000
000000
ENDCHAR
STARTCHAR a5cf
ENCODING 42447 
SWIDTH 495 0
DWIDTH 18 0
BBX 18 19 0 -1
BITMAP 
000000
000000
03f000
040800
080400
100200
100200
100200
100200
100200
100200
100200
100200
080400
040800
03f000
000000
000000
000000
ENDCHAR
STARTCHAR a5d0
ENCODING 42448 
SWIDTH 495 0
DWIDTH 18 0
BBX 18 19 0 -1
BITMAP 
000000
000000
1ffe00
100200
100200
100200
100200
100200
100200
100200
100200
100200
100200
100200
100200
100200
000000
000000
000000
ENDCHAR
STARTCHAR a5d1
ENCODING 42449 
SWIDTH 495 0
DWIDTH 18 0
BBX 18 19 0 -1
BITMAP 
000000
000000
0ff800
080400
080200
080200
080200
080200
080400
0ff800
080000
080000
080000
080000
080000
080000
000000
000000
000000
ENDCHAR
STARTCHAR a5d2
ENCODING 42450 
SWIDTH 495 0
DWIDTH 18 0
BBX 18 19 0 -1
BITMAP 
000000
000000
1ffe00
080000
040000
020000
010000
008000
004000
008000
010000
020000
040000
080000
100000
3ffe00
000000
000000
000000
ENDCHAR
STARTCHAR a5d3
ENCODING 42451 
SWIDTH 495 0
DWIDTH 18 0
BBX 18 19 0 -1
BITMAP 
000000
000000
3ffe00
008000
008000
008000
008000
008000
008000
008000
008000
008000
008000
008000
008000
008000
000000
000000
000000
ENDCHAR
STARTCHAR a5d4
ENCODING 42452 
SWIDTH 495 0
DWIDTH 18 0
BBX 18 19 0 -1
BITMAP 
000000
000000
200200
100400
080800
041000
022000
014000
008000
008000
008000
008000
008000
008000
008000
008000
000000
000000
000000
ENDCHAR
STARTCHAR a5d5
ENCODING 42453 
SWIDTH 495 0
DWIDTH 18 0
BBX 18 19 0 -1
BITMAP 
000000
000000
008000
008000
07f000
088800
108400
208200
208200
208200
208200
108400
088800
07f000
008000
008000
000000
000000
000000
ENDCHAR
STARTCHAR a5d6
ENCODING 42454 
SWIDTH 495 0
DWIDTH 18 0
BBX 18 19 0 -1
BITMAP 
000000
000000
200200
100400
080800
041000
022000
014000
008000
014000
022000
041000
080800
100400
200200
400100
000000
000000
000000
ENDCHAR
STARTCHAR a5d7
ENCODING 42455 
SWIDTH 495 0
DWIDTH 18 0
BBX 18 19 0 -1
BITMAP 
000000
000000
208200
208200
208200
208200
208200
208200
208200
208200
208200
108400
088800
07f000
008000
008000
000000
000000
000000
ENDCHAR
STARTCHAR a5d8
ENCODING 42456 
SWIDTH 495 0
DWIDTH 18 0
BBX 18 19 0 -1
BITMAP 
000000
000000
03f000
040800
080400
100200
100200
100200
100200
100200
080400
040800
021000
012000
012000
1f3e00
000000
000000
000000
ENDCHAR
STARTCHAR a5e1
ENCODING 42465 
SWIDTH 495 0
DWIDTH 18 0
BBX 18 19 0 -1
BITMAP 
000000
000000
000000
000000
030000
048400
084400
104400
102400
102400
102800
101000
102800
084800
048800
030700
000000
000000
000000
ENDCHAR
STARTCHAR a5e2
ENCODING 42466 
SWIDTH 495 0
DWIDTH 18 0
BBX 18 19 0 -1
BITMAP 
000000
000000
00e000
011000
020800
040800
040800
041000
05e000
041000
040800
040400
040400
060400
050800
04f000
040000
000000
000000
ENDCHAR
STARTCHAR a5e3
ENCODING 42467 
SWIDTH 495 0
DWIDTH 18 0
BBX 18 19 0 -1
BITMAP 
000000
000000
000000
000000
0c1c00
122000
014000
008000
008000
008000
008000
008000
008000
008000
008000
008000
008000
000000
000000
ENDCHAR
STARTCHAR a5e4
ENCODING 42468 
SWIDTH 495 0
DWIDTH 18 0
BBX 18 19 0 -1
BITMAP 
000000
000000
00e000
011000
010800
008000
01c000
022000
041000
040800
040800
040800
040800
040800
021000
01e000
000000
000000
000000
ENDCHAR
STARTCHAR a5e5
ENCODING 42469 
SWIDTH 495 0
DWIDTH 18 0
BBX 18 19 0 -1
BITMAP 
000000
000000
000000
000000
03f000
040800
080000
080000
040000
03f000
040000
080000
080000
080400
040800
03f000
000000
000000
000000
ENDCHAR
STARTCHAR a5e6
ENCODING 42470 
SWIDTH 495 0
DWIDTH 18 0
BBX 18 19 0 -1
BITMAP 
000000
020000
040000
040000
03f800
008000
010000
020000
040000
040000
040000
040000
040000
03f800
000400
000400
00f800
000000
000000
ENDCHAR
STARTCHAR a5e7
ENCODING 42471 
SWIDTH 495 0
DWIDTH 18 0
BBX 18 19 0 -1
BITMAP 
000000
000000
000000
000000
0c7000
128800
010400
010400
010400
010400
010400
010400
010400
010400
010400
010400
000400
000000
000000
ENDCHAR
STARTCHAR a5e8
ENCODING 42472 
SWIDTH 495 0
DWIDTH 18 0
BBX 18 19 0 -1
BITMAP 
000000
000000
01e000
021000
040800
040800
040800
07f800
040800
040800
040800
040800
040800
040800
021000
01e000
000000
000000
000000
ENDCHAR
STARTCHAR a5e9
ENCODING 42473 
SWIDTH 495 0
DWIDTH 18 0
BBX 18 19 0 -1
BITMAP 
000000
000000
000000
000000
020000
020000
020000
020000
020000
020000
020000
020800
020800
020800
011000
00e000
000000
000000
000000
ENDCHAR
STARTCHAR a5ea
ENCODING 42474 
SWIDTH 495 0
DWIDTH 18 0
BBX 18 19 0 -1
BITMAP 
000000
000000
000000
000000
043800
044000
048000
050000
070000
048000
044000
044000
044400
044400
044800
043000
000000
000000
000000
ENDCHAR
STARTCHAR a5eb
ENCODING 42475 
SWIDTH 495 0
DWIDTH 18 0
BBX 18 19 0 -1
BITMAP 
000000
000000
03c000
002000
002000
002000
006000
00a000
00a000
012000
022000
022000
042000
082000
081000
100c00
000000
000000
000000
ENDCHAR
STARTCHAR a5ec
ENCODING 42476 
SWIDTH 495 0
DWIDTH 18 0
BBX 18 19 0 -1
BITMAP 
000000
000000
000000
000000
040800
040800
040800
040800
040800
040800
040800
040800
040800
060800
051900
04e600
040000
000000
000000
ENDCHAR
STARTCHAR a5ed
ENCODING 42477 
SWIDTH 495 0
DWIDTH 18 0
BBX 18 19 0 -1
BITMAP 
000000
000000
000000
000000
080000
040400
020400
020400
020400
020800
021000
022000
024000
028000
030000
020000
000000
000000
000000
ENDCHAR
STARTCHAR a5ee
ENCODING 42478 
SWIDTH 495 0
DWIDTH 18 0
BBX 18 19 0 -1
BITMAP 
000000
000000
01f800
020000
040000
040000
020000
03f800
040000
080000
080000
040000
03f800
000400
000400
007800
000000
000000
000000
ENDCHAR
STARTCHAR a5ef
ENCODING 42479 
SWIDTH 495 0
DWIDTH 18 0
BBX 18 19 0 -1
BITMAP 
000000
000000
000000
000000
01e000
021000
040800
040800
040800
040800
040800
040800
040800
040800
021000
01e000
000000
000000
000000
ENDCHAR
STARTCHAR a5f0
ENCODING 42480 
SWIDTH 495 0
DWIDTH 18 0
BBX 18 19 0 -1
BITMAP 
000000
000000
000000
000000
1ffe00
224000
024000
024000
024000
024000
024000
024000
024000
044400
084800
103000
000000
000000
000000
ENDCHAR
STARTCHAR a5f1
ENCODING 42481 
SWIDTH 495 0
DWIDTH 18 0
BBX 18 19 0 -1
BITMAP 
000000
000000
000000
000000
01e000
021000
040800
040800
040800
040800
040800
040800
060800
051000
04e000
040000
040000
000000
000000
ENDCHAR
STARTCHAR a5f2
ENCODING 42482 
SWIDTH 495 0
DWIDTH 18 0
BBX 18 19 0 -1
BITMAP 
000000
000000
000000
000200
01fc00
021000
040800
040800
040800
040800
040800
040800
040800
040800
021000
01e000
000000
000000
000000
ENDCHAR
STARTCHAR a5f3
ENCODING 42483 
SWIDTH 495 0
DWIDTH 18 0
BBX 18 19 0 -1
BITMAP 
000000
000000
000000
000000
0ff800
108000
008000
008000
008000
008000
008000
008000
008000
008800
009000
006000
000000
000000
000000
ENDCHAR
STARTCHAR a5f4
ENCODING 42484 
SWIDTH 495 0
DWIDTH 18 0
BBX 18 19 0 -1
BITMAP 
000000
000000
000000
000000
0c0800
020800
020800
020800
020800
020800
020800
020800
020800
021000
022000
01c000
000000
000000
000000
ENDCHAR
STARTCHAR a5f5
ENCODING 42485 
SWIDTH 495 0
DWIDTH 18 0
BBX 18 19 0 -1
BITMAP 
000000
000000
008000
008000
03e000
049000
088800
088800
088800
088800
088800
088800
088800
049000
03e000
008000
008000
000000
000000
ENDCHAR
STARTCHAR a5f6
ENCODING 42486 
SWIDTH 495 0
DWIDTH 18 0
BBX 18 19 0 -1
BITMAP 
000000
000000
000000
000000
0c1000
122000
022000
014000
014000
008000
008000
014000
014000
022000
022000
041200
180c00
000000
000000
ENDCHAR
STARTCHAR a5f7
ENCODING 42487 
SWIDTH 495 0
DWIDTH 18 0
BBX 18 19 0 -1
BITMAP 
000000
000000
008000
008000
049000
088800
088800
088800
088800
088800
088800
088800
088800
049000
03e000
008000
008000
000000
000000
ENDCHAR
STARTCHAR a5f8
ENCODING 42488 
SWIDTH 495 0
DWIDTH 18 0
BBX 18 19 0 -1
BITMAP 
000000
000000
000000
000000
041000
080800
100400
108400
108400
108400
108400
108400
108400
108400
094800
063000
000000
000000
000000
ENDCHAR
STARTCHAR a6a1
ENCODING 42657 
SWIDTH 495 0
DWIDTH 18 0
BBX 18 19 0 -1
BITMAP 
000000
000000
000000
000000
000000
000000
000000
000000
7fff80
000000
000000
000000
000000
000000
000000
000000
000000
000000
000000
ENDCHAR
STARTCHAR a6a2
ENCODING 42658 
SWIDTH 495 0
DWIDTH 18 0
BBX 18 19 0 -1
BITMAP 
000000
008000
008000
008000
008000
008000
008000
008000
008000
008000
008000
008000
008000
008000
008000
008000
008000
000000
000000
ENDCHAR
STARTCHAR a6a3
ENCODING 42659 
SWIDTH 495 0
DWIDTH 18 0
BBX 18 19 0 -1
BITMAP 
000000
000000
000000
000000
000000
000000
000000
000000
00ff80
008000
008000
008000
008000
008000
008000
008000
008000
000000
000000
ENDCHAR
STARTCHAR a6a4
ENCODING 42660 
SWIDTH 495 0
DWIDTH 18 0
BBX 18 19 0 -1
BITMAP 
000000
000000
000000
000000
000000
000000
000000
000000
7f8000
008000
008000
008000
008000
008000
008000
008000
008000
000000
000000
ENDCHAR
STARTCHAR a6a5
ENCODING 42661 
SWIDTH 495 0
DWIDTH 18 0
BBX 18 19 0 -1
BITMAP 
000000
008000
008000
008000
008000
008000
008000
008000
7f8000
000000
000000
000000
000000
000000
000000
000000
000000
000000
000000
ENDCHAR
STARTCHAR a6a6
ENCODING 42662 
SWIDTH 495 0
DWIDTH 18 0
BBX 18 19 0 -1
BITMAP 
000000
008000
008000
008000
008000
008000
008000
008000
00ff80
000000
000000
000000
000000
000000
000000
000000
000000
000000
000000
ENDCHAR
STARTCHAR a6a7
ENCODING 42663 
SWIDTH 495 0
DWIDTH 18 0
BBX 18 19 0 -1
BITMAP 
000000
008000
008000
008000
008000
008000
008000
008000
00ff80
008000
008000
008000
008000
008000
008000
008000
008000
000000
000000
ENDCHAR
STARTCHAR a6a8
ENCODING 42664 
SWIDTH 495 0
DWIDTH 18 0
BBX 18 19 0 -1
BITMAP 
000000
000000
000000
000000
000000
000000
000000
000000
7fff80
008000
008000
008000
008000
008000
008000
008000
008000
000000
000000
ENDCHAR
STARTCHAR a6a9
ENCODING 42665 
SWIDTH 495 0
DWIDTH 18 0
BBX 18 19 0 -1
BITMAP 
000000
008000
008000
008000
008000
008000
008000
008000
7f8000
008000
008000
008000
008000
008000
008000
008000
008000
000000
000000
ENDCHAR
STARTCHAR a6aa
ENCODING 42666 
SWIDTH 495 0
DWIDTH 18 0
BBX 18 19 0 -1
BITMAP 
000000
008000
008000
008000
008000
008000
008000
008000
7fff80
000000
000000
000000
000000
000000
000000
000000
000000
000000
000000
ENDCHAR
STARTCHAR a6ab
ENCODING 42667 
SWIDTH 495 0
DWIDTH 18 0
BBX 18 19 0 -1
BITMAP 
000000
008000
008000
008000
008000
008000
008000
008000
7fff80
008000
008000
008000
008000
008000
008000
008000
008000
000000
000000
ENDCHAR
STARTCHAR a6ac
ENCODING 42668 
SWIDTH 495 0
DWIDTH 18 0
BBX 18 19 0 -1
BITMAP 
000000
000000
000000
000000
000000
000000
000000
000000
7fff80
7fff80
000000
000000
000000
000000
000000
000000
000000
000000
000000
ENDCHAR
STARTCHAR a6ad
ENCODING 42669 
SWIDTH 495 0
DWIDTH 18 0
BBX 18 19 0 -1
BITMAP 
000000
00c000
00c000
00c000
00c000
00c000
00c000
00c000
00c000
00c000
00c000
00c000
00c000
00c000
00c000
00c000
00c000
000000
000000
ENDCHAR
STARTCHAR a6ae
ENCODING 42670 
SWIDTH 495 0
DWIDTH 18 0
BBX 18 19 0 -1
BITMAP 
000000
000000
000000
000000
000000
000000
000000
000000
00ff80
00ff80
00c000
00c000
00c000
00c000
00c000
00c000
00c000
000000
000000
ENDCHAR
STARTCHAR a6af
ENCODING 42671 
SWIDTH 495 0
DWIDTH 18 0
BBX 18 19 0 -1
BITMAP 
000000
000000
000000
000000
000000
000000
000000
000000
7fc000
7fc000
00c000
00c000
00c000
00c000
00c000
00c000
00c000
000000
000000
ENDCHAR
STARTCHAR a6b0
ENCODING 42672 
SWIDTH 495 0
DWIDTH 18 0
BBX 18 19 0 -1
BITMAP 
000000
00c000
00c000
00c000
00c000
00c000
00c000
00c000
7fc000
7fc000
000000
000000
000000
000000
000000
000000
000000
000000
000000
ENDCHAR
STARTCHAR a6b1
ENCODING 42673 
SWIDTH 495 0
DWIDTH 18 0
BBX 18 19 0 -1
BITMAP 
000000
00c000
00c000
00c000
00c000
00c000
00c000
00c000
00ff80
00ff80
000000
000000
000000
000000
000000
000000
000000
000000
000000
ENDCHAR
STARTCHAR a6b2
ENCODING 42674 
SWIDTH 495 0
DWIDTH 18 0
BBX 18 19 0 -1
BITMAP 
000000
00c000
00c000
00c000
00c000
00c000
00c000
00c000
00ff80
00ff80
00c000
00c000
00c000
00c000
00c000
00c000
00c000
000000
000000
ENDCHAR
STARTCHAR a6b3
ENCODING 42675 
SWIDTH 495 0
DWIDTH 18 0
BBX 18 19 0 -1
BITMAP 
000000
000000
000000
000000
000000
000000
000000
000000
7fff80
7fff80
00c000
00c000
00c000
00c000
00c000
00c000
00c000
000000
000000
ENDCHAR
STARTCHAR a6b4
ENCODING 42676 
SWIDTH 495 0
DWIDTH 18 0
BBX 18 19 0 -1
BITMAP 
000000
00c000
00c000
00c000
00c000
00c000
00c000
00c000
7fc000
7fc000
00c000
00c000
00c000
00c000
00c000
00c000
00c000
000000
000000
ENDCHAR
STARTCHAR a6b5
ENCODING 42677 
SWIDTH 495 0
DWIDTH 18 0
BBX 18 19 0 -1
BITMAP 
000000
00c000
00c000
00c000
00c000
00c000
00c000
00c000
7fff80
7fff80
000000
000000
000000
000000
000000
000000
000000
000000
000000
ENDCHAR
STARTCHAR a6b6
ENCODING 42678 
SWIDTH 495 0
DWIDTH 18 0
BBX 18 19 0 -1
BITMAP 
000000
00c000
00c000
00c000
00c000
00c000
00c000
00c000
7fff80
7fff80
00c000
00c000
00c000
00c000
00c000
00c000
00c000
000000
000000
ENDCHAR
STARTCHAR a6b7
ENCODING 42679 
SWIDTH 495 0
DWIDTH 18 0
BBX 18 19 0 -1
BITMAP 
000000
00c000
00c000
00c000
00c000
00c000
00c000
00c000
00ff80
00c000
00c000
00c000
00c000
00c000
00c000
00c000
00c000
000000
000000
ENDCHAR
STARTCHAR a6b8
ENCODING 42680 
SWIDTH 495 0
DWIDTH 18 0
BBX 18 19 0 -1
BITMAP 
000000
000000
000000
000000
000000
000000
000000
000000
7fff80
7fff80
008000
008000
008000
008000
008000
008000
008000
000000
000000
ENDCHAR
STARTCHAR a6b9
ENCODING 42681 
SWIDTH 495 0
DWIDTH 18 0
BBX 18 19 0 -1
BITMAP 
000000
00c000
00c000
00c000
00c000
00c000
00c000
00c000
7fc000
00c000
00c000
00c000
00c000
00c000
00c000
00c000
00c000
000000
000000
ENDCHAR
STARTCHAR a6ba
ENCODING 42682 
SWIDTH 495 0
DWIDTH 18 0
BBX 18 19 0 -1
BITMAP 
000000
008000
008000
008000
008000
008000
008000
008000
7fff80
7fff80
000000
000000
000000
000000
000000
000000
000000
000000
000000
ENDCHAR
STARTCHAR a6bb
ENCODING 42683 
SWIDTH 495 0
DWIDTH 18 0
BBX 18 19 0 -1
BITMAP 
000000
008000
008000
008000
008000
008000
008000
008000
7fff80
7fff80
008000
008000
008000
008000
008000
008000
008000
000000
000000
ENDCHAR
STARTCHAR a6bc
ENCODING 42684 
SWIDTH 495 0
DWIDTH 18 0
BBX 18 19 0 -1
BITMAP 
000000
008000
008000
008000
008000
008000
008000
008000
00ff80
00ff80
008000
008000
008000
008000
008000
008000
008000
000000
000000
ENDCHAR
STARTCHAR a6bd
ENCODING 42685 
SWIDTH 495 0
DWIDTH 18 0
BBX 18 19 0 -1
BITMAP 
000000
000000
000000
000000
000000
000000
000000
000000
7fff80
00c000
00c000
00c000
00c000
00c000
00c000
00c000
00c000
000000
000000
ENDCHAR
STARTCHAR a6be
ENCODING 42686 
SWIDTH 495 0
DWIDTH 18 0
BBX 18 19 0 -1
BITMAP 
000000
008000
008000
008000
008000
008000
008000
008000
7f8000
7f8000
008000
008000
008000
008000
008000
008000
008000
000000
000000
ENDCHAR
STARTCHAR a6bf
ENCODING 42687 
SWIDTH 495 0
DWIDTH 18 0
BBX 18 19 0 -1
BITMAP 
000000
00c000
00c000
00c000
00c000
00c000
00c000
00c000
7fff80
000000
000000
000000
000000
000000
000000
000000
000000
000000
000000
ENDCHAR
STARTCHAR a6c0
ENCODING 42688 
SWIDTH 495 0
DWIDTH 18 0
BBX 18 19 0 -1
BITMAP 
000000
00c000
00c000
00c000
00c000
00c000
00c000
00c000
7fff80
00c000
00c000
00c000
00c000
00c000
00c000
00c000
00c000
000000
000000
ENDCHAR
STARTCHAR a6c1
ENCODING 42689 
SWIDTH 495 0
DWIDTH 18 0
BBX 18 19 0 -1
BITMAP 
000000
000000
000000
000000
000000
000000
000000
000000
7f8000
018000
018000
018000
018000
018000
018000
018000
018000
000000
000000
ENDCHAR
STARTCHAR a6c2
ENCODING 42690 
SWIDTH 495 0
DWIDTH 18 0
BBX 18 19 0 -1
BITMAP 
000000
000000
000000
000000
000000
000000
000000
000000
7f8000
7f8000
008000
008000
008000
008000
008000
008000
008000
000000
000000
ENDCHAR
STARTCHAR a6c3
ENCODING 42691 
SWIDTH 495 0
DWIDTH 18 0
BBX 18 19 0 -1
BITMAP 
000000
018000
018000
018000
018000
018000
018000
018000
7f8000
000000
000000
000000
000000
000000
000000
000000
000000
000000
000000
ENDCHAR
STARTCHAR a6c4
ENCODING 42692 
SWIDTH 495 0
DWIDTH 18 0
BBX 18 19 0 -1
BITMAP 
000000
008000
008000
008000
008000
008000
008000
7f8000
7f8000
000000
000000
000000
000000
000000
000000
000000
000000
000000
000000
ENDCHAR
STARTCHAR a6c5
ENCODING 42693 
SWIDTH 495 0
DWIDTH 18 0
BBX 18 19 0 -1
BITMAP 
000000
00c000
00c000
00c000
00c000
00c000
00c000
00c000
00ff80
000000
000000
000000
000000
000000
000000
000000
000000
000000
000000
ENDCHAR
STARTCHAR a6c6
ENCODING 42694 
SWIDTH 495 0
DWIDTH 18 0
BBX 18 19 0 -1
BITMAP 
000000
008000
008000
008000
008000
008000
008000
00ff80
00ff80
000000
000000
000000
000000
000000
000000
000000
000000
000000
000000
ENDCHAR
STARTCHAR a6c7
ENCODING 42695 
SWIDTH 495 0
DWIDTH 18 0
BBX 18 19 0 -1
BITMAP 
000000
000000
000000
000000
000000
000000
000000
000000
00ff80
00c000
00c000
00c000
00c000
00c000
00c000
00c000
00c000
000000
000000
ENDCHAR
STARTCHAR a6c8
ENCODING 42696 
SWIDTH 495 0
DWIDTH 18 0
BBX 18 19 0 -1
BITMAP 
000000
000000
000000
000000
000000
000000
000000
000000
00ff80
00ff80
008000
008000
008000
008000
008000
008000
008000
000000
000000
ENDCHAR
STARTCHAR a6c9
ENCODING 42697 
SWIDTH 495 0
DWIDTH 18 0
BBX 18 19 0 -1
BITMAP 
000000
00c000
00c000
00c000
00c000
00c000
00c000
00c000
00ff80
008000
008000
008000
008000
008000
008000
008000
008000
000000
000000
ENDCHAR
STARTCHAR a6ca
ENCODING 42698 
SWIDTH 495 0
DWIDTH 18 0
BBX 18 19 0 -1
BITMAP 
000000
008000
008000
008000
008000
008000
008000
008000
00ff80
00c000
00c000
00c000
00c000
00c000
00c000
00c000
00c000
000000
000000
ENDCHAR
STARTCHAR a6cb
ENCODING 42699 
SWIDTH 495 0
DWIDTH 18 0
BBX 18 19 0 -1
BITMAP 
000000
00c000
00c000
00c000
00c000
00c000
00c000
00ff80
00ff80
008000
008000
008000
008000
008000
008000
008000
008000
000000
000000
ENDCHAR
STARTCHAR a6cc
ENCODING 42700 
SWIDTH 495 0
DWIDTH 18 0
BBX 18 19 0 -1
BITMAP 
000000
008000
008000
008000
008000
008000
008000
008000
00ff80
00ff80
00c000
00c000
00c000
00c000
00c000
00c000
00c000
000000
000000
ENDCHAR
STARTCHAR a6cd
ENCODING 42701 
SWIDTH 495 0
DWIDTH 18 0
BBX 18 19 0 -1
BITMAP 
000000
018000
018000
018000
018000
018000
018000
018000
7f8000
008000
008000
008000
008000
008000
008000
008000
008000
000000
000000
ENDCHAR
STARTCHAR a6ce
ENCODING 42702 
SWIDTH 495 0
DWIDTH 18 0
BBX 18 19 0 -1
BITMAP 
000000
008000
008000
008000
008000
008000
008000
008000
7f8000
018000
018000
018000
018000
018000
018000
018000
018000
000000
000000
ENDCHAR
STARTCHAR a6cf
ENCODING 42703 
SWIDTH 495 0
DWIDTH 18 0
BBX 18 19 0 -1
BITMAP 
000000
018000
018000
018000
018000
018000
018000
7f8000
7f8000
008000
008000
008000
008000
008000
008000
008000
008000
000000
000000
ENDCHAR
STARTCHAR a6d0
ENCODING 42704 
SWIDTH 495 0
DWIDTH 18 0
BBX 18 19 0 -1
BITMAP 
000000
008000
008000
008000
008000
008000
008000
008000
7f8000
7f8000
018000
018000
018000
018000
018000
018000
018000
000000
000000
ENDCHAR
STARTCHAR a6d1
ENCODING 42705 
SWIDTH 495 0
DWIDTH 18 0
BBX 18 19 0 -1
BITMAP 
000000
000000
000000
000000
000000
000000
000000
000000
7fff80
7f8000
008000
008000
008000
008000
008000
008000
008000
000000
000000
ENDCHAR
STARTCHAR a6d2
ENCODING 42706 
SWIDTH 495 0
DWIDTH 18 0
BBX 18 19 0 -1
BITMAP 
000000
000000
000000
000000
000000
000000
000000
000000
7fff80
00ff80
008000
008000
008000
008000
008000
008000
008000
000000
000000
ENDCHAR
STARTCHAR a6d3
ENCODING 42707 
SWIDTH 495 0
DWIDTH 18 0
BBX 18 19 0 -1
BITMAP 
000000
000000
000000
000000
000000
000000
000000
000000
7fff80
7f8000
018000
018000
018000
018000
018000
018000
018000
000000
000000
ENDCHAR
STARTCHAR a6d4
ENCODING 42708 
SWIDTH 495 0
DWIDTH 18 0
BBX 18 19 0 -1
BITMAP 
000000
000000
000000
000000
000000
000000
000000
000000
7fff80
00ff80
00c000
00c000
00c000
00c000
00c000
00c000
00c000
000000
000000
ENDCHAR
STARTCHAR a6d5
ENCODING 42709 
SWIDTH 495 0
DWIDTH 18 0
BBX 18 19 0 -1
BITMAP 
000000
008000
008000
008000
008000
008000
008000
7f8000
7fff80
000000
000000
000000
000000
000000
000000
000000
000000
000000
000000
ENDCHAR
STARTCHAR a6d6
ENCODING 42710 
SWIDTH 495 0
DWIDTH 18 0
BBX 18 19 0 -1
BITMAP 
000000
008000
008000
008000
008000
008000
008000
00ff80
7fff80
000000
000000
000000
000000
000000
000000
000000
000000
000000
000000
ENDCHAR
STARTCHAR a6d7
ENCODING 42711 
SWIDTH 495 0
DWIDTH 18 0
BBX 18 19 0 -1
BITMAP 
000000
018000
018000
018000
018000
018000
018000
7f8000
7fff80
000000
000000
000000
000000
000000
000000
000000
000000
000000
000000
ENDCHAR
STARTCHAR a6d8
ENCODING 42712 
SWIDTH 495 0
DWIDTH 18 0
BBX 18 19 0 -1
BITMAP 
000000
00c000
00c000
00c000
00c000
00c000
00c000
00ff80
7fff80
000000
000000
000000
000000
000000
000000
000000
000000
000000
000000
ENDCHAR
STARTCHAR a6d9
ENCODING 42713 
SWIDTH 495 0
DWIDTH 18 0
BBX 18 19 0 -1
BITMAP 
000000
008000
008000
008000
008000
008000
008000
008000
7fff80
7f8000
008000
008000
008000
008000
008000
008000
008000
000000
000000
ENDCHAR
STARTCHAR a6da
ENCODING 42714 
SWIDTH 495 0
DWIDTH 18 0
BBX 18 19 0 -1
BITMAP 
000000
008000
008000
008000
008000
008000
008000
008000
7fff80
00ff80
008000
008000
008000
008000
008000
008000
008000
000000
000000
ENDCHAR
STARTCHAR a6db
ENCODING 42715 
SWIDTH 495 0
DWIDTH 18 0
BBX 18 19 0 -1
BITMAP 
000000
00c000
00c000
00c000
00c000
00c000
00c000
00c000
7fff80
008000
008000
008000
008000
008000
008000
008000
008000
000000
000000
ENDCHAR
STARTCHAR a6dc
ENCODING 42716 
SWIDTH 495 0
DWIDTH 18 0
BBX 18 19 0 -1
BITMAP 
000000
008000
008000
008000
008000
008000
008000
008000
7fff80
00c000
00c000
00c000
00c000
00c000
00c000
00c000
00c000
000000
000000
ENDCHAR
STARTCHAR a6dd
ENCODING 42717 
SWIDTH 495 0
DWIDTH 18 0
BBX 18 19 0 -1
BITMAP 
000000
018000
018000
018000
018000
018000
018000
7f8000
7fff80
008000
008000
008000
008000
008000
008000
008000
008000
000000
000000
ENDCHAR
STARTCHAR a6de
ENCODING 42718 
SWIDTH 495 0
DWIDTH 18 0
BBX 18 19 0 -1
BITMAP 
000000
00c000
00c000
00c000
00c000
00c000
00c000
00ff80
7fff80
008000
008000
008000
008000
008000
008000
008000
008000
000000
000000
ENDCHAR
STARTCHAR a6df
ENCODING 42719 
SWIDTH 495 0
DWIDTH 18 0
BBX 18 19 0 -1
BITMAP 
000000
008000
008000
008000
008000
008000
008000
008000
7fff80
7f8000
018000
018000
018000
018000
018000
018000
018000
000000
000000
ENDCHAR
STARTCHAR a6e0
ENCODING 42720 
SWIDTH 495 0
DWIDTH 18 0
BBX 18 19 0 -1
BITMAP 
000000
008000
008000
008000
008000
008000
008000
008000
7fff80
00ff80
00c000
00c000
00c000
00c000
00c000
00c000
00c000
000000
000000
ENDCHAR
STARTCHAR a6e1
ENCODING 42721 
SWIDTH 495 0
DWIDTH 18 0
BBX 18 19 0 -1
BITMAP 
000000
00c000
00c000
00c000
00c000
00c000
00c000
7fff80
7fff80
008000
008000
008000
008000
008000
008000
008000
008000
000000
000000
ENDCHAR
STARTCHAR a6e2
ENCODING 42722 
SWIDTH 495 0
DWIDTH 18 0
BBX 18 19 0 -1
BITMAP 
000000
008000
008000
008000
008000
008000
008000
008000
7fff80
7fff80
00c000
00c000
00c000
00c000
00c000
00c000
00c000
000000
000000
ENDCHAR
STARTCHAR a6e3
ENCODING 42723 
SWIDTH 495 0
DWIDTH 18 0
BBX 18 19 0 -1
BITMAP 
000000
018000
018000
018000
018000
018000
018000
018000
7fff80
7f8000
018000
018000
018000
018000
018000
018000
018000
000000
000000
ENDCHAR
STARTCHAR a6e4
ENCODING 42724 
SWIDTH 495 0
DWIDTH 18 0
BBX 18 19 0 -1
BITMAP 
000000
00c000
00c000
00c000
00c000
00c000
00c000
00c000
7fff80
00ff80
00c000
00c000
00c000
00c000
00c000
00c000
00c000
000000
000000
ENDCHAR
STARTCHAR a7a1
ENCODING 42913 
SWIDTH 495 0
DWIDTH 18 0
BBX 18 19 0 -1
BITMAP 
000000
000c00
001200
001200
001200
001200
109200
109200
109200
109400
314c80
314c80
2e7380
400000
400000
400000
400000
000000
000000
ENDCHAR
STARTCHAR a7a5
ENCODING 42917 
SWIDTH 495 0
DWIDTH 18 0
BBX 18 19 0 -1
BITMAP 
000000
400200
400600
400600
400900
400900
400900
400900
408900
410900
420900
440600
480600
740400
420a80
411280
40e180
000000
000000
ENDCHAR
STARTCHAR a7a7
ENCODING 42919 
SWIDTH 495 0
DWIDTH 18 0
BBX 18 19 0 -1
BITMAP 
000000
000780
000080
000300
000080
000780
000000
000000
522900
6d3680
492480
492480
492480
492480
492480
492480
492480
000000
000000
ENDCHAR
STARTCHAR a7a8
ENCODING 42920 
SWIDTH 495 0
DWIDTH 18 0
BBX 18 19 0 -1
BITMAP 
000000
000780
000080
000300
000080
000780
000000
000000
1f2900
213680
402480
402480
402480
402480
402480
212480
1f2480
000000
000000
ENDCHAR
STARTCHAR a7a9
ENCODING 42921 
SWIDTH 495 0
DWIDTH 18 0
BBX 18 19 0 -1
BITMAP 
000000
000780
000080
000300
000080
000780
000000
000000
177000
199000
111000
111000
111000
111000
111000
111000
111000
000000
000000
ENDCHAR
STARTCHAR a7aa
ENCODING 42922 
SWIDTH 495 0
DWIDTH 18 0
BBX 18 19 0 -1
BITMAP 
000000
400780
400080
400300
400080
400780
400000
400000
40a900
413680
422480
442480
482480
742480
422480
412480
40a480
000000
000000
ENDCHAR
STARTCHAR a7ab
ENCODING 42923 
SWIDTH 495 0
DWIDTH 18 0
BBX 18 19 0 -1
BITMAP 
000000
060000
090000
090000
080000
080000
3e0000
080000
082900
083680
082480
082480
082480
082480
082480
082480
082480
000000
000000
ENDCHAR
STARTCHAR a7ac
ENCODING 42924 
SWIDTH 495 0
DWIDTH 18 0
BBX 18 19 0 -1
BITMAP 
000000
000000
000000
000000
000000
000000
000000
000000
5e2900
623680
422480
422480
422480
422480
422480
422480
422480
000000
000000
ENDCHAR
STARTCHAR a7ad
ENCODING 42925 
SWIDTH 495 0
DWIDTH 18 0
BBX 18 19 0 -1
BITMAP 
000000
000000
000000
000000
002900
10b680
10a480
10a480
10a480
10a480
312480
316480
2e6480
400000
400000
400000
400000
000000
000000
ENDCHAR
STARTCHAR a7b1
ENCODING 42929 
SWIDTH 495 0
DWIDTH 18 0
BBX 18 19 0 -1
BITMAP 
000000
000300
000480
000080
000100
000200
000780
000000
522900
6d3680
492480
492480
492480
492480
492480
492480
492480
000000
000000
ENDCHAR
STARTCHAR a7b2
ENCODING 42930 
SWIDTH 495 0
DWIDTH 18 0
BBX 18 19 0 -1
BITMAP 
000000
000300
000480
000080
000100
000200
000780
000000
1f2900
213680
402480
402480
402480
402480
402480
212480
1f2480
000000
000000
ENDCHAR
STARTCHAR a7b3
ENCODING 42931 
SWIDTH 495 0
DWIDTH 18 0
BBX 18 19 0 -1
BITMAP 
000000
000300
000480
000080
000100
000200
000780
000000
177000
199000
111000
111000
111000
111000
111000
111000
111000
000000
000000
ENDCHAR
STARTCHAR a7b4
ENCODING 42932 
SWIDTH 495 0
DWIDTH 18 0
BBX 18 19 0 -1
BITMAP 
000000
400300
400480
400080
400100
400200
400780
400000
40a900
413680
422480
442480
482480
742480
422480
412480
40a480
000000
000000
ENDCHAR
STARTCHAR a7b5
ENCODING 42933 
SWIDTH 495 0
DWIDTH 18 0
BBX 18 19 0 -1
BITMAP 
000000
400000
400000
400000
400000
400000
400000
400000
5f3f00
614100
410100
411f00
412100
412100
412100
412300
411c80
000000
000000
ENDCHAR
STARTCHAR a7b6
ENCODING 42934 
SWIDTH 495 0
DWIDTH 18 0
BBX 18 19 0 -1
BITMAP 
000000
000e80
001100
001100
001100
000e00
108400
108e00
109100
10a080
312080
312080
2ee080
401f00
400000
400000
400000
000000
000000
ENDCHAR
STARTCHAR a7b9
ENCODING 42937 
SWIDTH 495 0
DWIDTH 18 0
BBX 18 19 0 -1
BITMAP 
000000
400800
400800
400800
400800
403e00
400800
400800
408800
410800
420800
440800
480800
740800
420800
410900
408700
000000
000000
ENDCHAR
STARTCHAR a7ba
ENCODING 42938 
SWIDTH 495 0
DWIDTH 18 0
BBX 18 19 0 -1
BITMAP 
000000
000080
000080
000080
000080
000080
000080
000080
1e7c80
228280
400280
403e80
404280
404280
404280
424680
3e3980
000000
000000
ENDCHAR
STARTCHAR a7bb
ENCODING 42939 
SWIDTH 495 0
DWIDTH 18 0
BBX 18 19 0 -1
BITMAP 
000000
400080
400080
400080
400080
400080
400080
400080
400080
45dc80
4a2280
520280
621e80
622280
522280
4a6280
45df80
000000
000000
ENDCHAR
STARTCHAR a7bc
ENCODING 42940 
SWIDTH 495 0
DWIDTH 18 0
BBX 18 19 0 -1
BITMAP 
000000
000000
000000
00be00
00a100
00a080
00a080
00a080
00a100
1ebe00
21a100
40a080
40a080
40a080
40a080
21a100
1ebe00
000000
000000
ENDCHAR
STARTCHAR a7bd
ENCODING 42941 
SWIDTH 495 0
DWIDTH 18 0
BBX 18 19 0 -1
BITMAP 
000000
000000
000000
000000
000000
000000
001000
001000
761700
492880
492800
492800
494700
494080
495080
499080
498f00
000000
000000
ENDCHAR
STARTCHAR a7be
ENCODING 42942 
SWIDTH 495 0
DWIDTH 18 0
BBX 18 19 0 -1
BITMAP 
000000
7b0000
448800
448b00
449480
449100
44a200
44c780
44c000
00be00
014100
014000
023e00
040100
084100
004100
003e00
000000
000000
ENDCHAR
STARTCHAR a7bf
ENCODING 42943 
SWIDTH 495 0
DWIDTH 18 0
BBX 18 19 0 -1
BITMAP 
000000
000000
000000
000000
5e1f00
612080
40a080
40a000
409e00
408100
408080
612080
5e2080
401f00
400000
400000
400000
000000
000000
ENDCHAR
STARTCHAR a7c0
ENCODING 42944 
SWIDTH 495 0
DWIDTH 18 0
BBX 18 19 0 -1
BITMAP 
000000
000000
000000
000000
4f1f00
30a080
20a080
20a000
209e00
208100
208080
20a080
20a080
209f00
000000
000000
000000
000000
000000
ENDCHAR
STARTCHAR a7c1
ENCODING 42945 
SWIDTH 495 0
DWIDTH 18 0
BBX 18 19 0 -1
BITMAP 
000000
000000
000000
000000
101f00
10a080
10a080
10a000
109e00
210100
210080
314080
2e4080
403f00
400000
400000
400000
000000
000000
ENDCHAR
STARTCHAR a7c2
ENCODING 42946 
SWIDTH 495 0
DWIDTH 18 0
BBX 18 19 0 -1
BITMAP 
000000
000000
000000
000000
7b9f00
446080
446080
446000
445e00
444100
444080
446080
446080
445f00
000000
000000
000000
000000
000000
ENDCHAR
STARTCHAR a7c3
ENCODING 42947 
SWIDTH 495 0
DWIDTH 18 0
BBX 18 19 0 -1
BITMAP 
000000
008080
008080
004100
5e4100
614100
40a200
40a200
40a200
409400
409400
611400
5e0800
400800
400000
400000
400000
000000
000000
ENDCHAR
STARTCHAR a7c4
ENCODING 42948 
SWIDTH 495 0
DWIDTH 18 0
BBX 18 19 0 -1
BITMAP 
000000
008080
008080
004100
5f4100
60c100
40a200
40a200
40a200
409400
409400
409400
408800
000800
000000
000000
000000
000000
000000
ENDCHAR
STARTCHAR a7c5
ENCODING 42949 
SWIDTH 495 0
DWIDTH 18 0
BBX 18 19 0 -1
BITMAP 
000000
008080
008080
004100
104100
10c100
10a200
10a200
212200
211400
211400
220800
3c0800
400000
400000
400000
400000
000000
000000
ENDCHAR
STARTCHAR a7c6
ENCODING 42950 
SWIDTH 495 0
DWIDTH 18 0
BBX 18 19 0 -1
BITMAP 
000000
008080
008080
004100
7b4100
44c100
44a200
44a200
44a200
449400
449400
449400
448800
000800
000000
000000
000000
000000
000000
ENDCHAR
STARTCHAR a7c7
ENCODING 42951 
SWIDTH 495 0
DWIDTH 18 0
BBX 18 19 0 -1
BITMAP 
000000
408080
408080
404100
434100
444100
482200
502200
682200
441400
421400
410800
408800
000000
000000
000000
000000
000000
000000
ENDCHAR
STARTCHAR a7c8
ENCODING 42952 
SWIDTH 495 0
DWIDTH 18 0
BBX 18 19 0 -1
BITMAP 
000000
406080
60e080
60e080
515100
515100
4a5100
4a5100
4a4a00
444a00
444a00
444400
444400
000000
000000
000000
000000
000000
000000
ENDCHAR
STARTCHAR a7c9
ENCODING 42953 
SWIDTH 495 0
DWIDTH 18 0
BBX 18 19 0 -1
BITMAP 
000000
000800
000800
001400
5e1400
611200
40a200
40a200
40bf00
40c100
40c100
614080
5e8080
400000
400000
400000
400000
000000
000000
ENDCHAR
STARTCHAR a7ca
ENCODING 42954 
SWIDTH 495 0
DWIDTH 18 0
BBX 18 19 0 -1
BITMAP 
000000
000800
000800
001400
5e1400
612200
412200
412200
417f00
414100
414100
418080
418080
000000
000000
000000
000000
000000
000000
ENDCHAR
STARTCHAR a7cb
ENCODING 42955 
SWIDTH 495 0
DWIDTH 18 0
BBX 18 19 0 -1
BITMAP 
000000
000800
000800
001400
101400
109200
10a200
10a200
213f00
214100
214100
224080
3c8080
400000
400000
400000
400000
000000
000000
ENDCHAR
STARTCHAR a7cc
ENCODING 42956 
SWIDTH 495 0
DWIDTH 18 0
BBX 18 19 0 -1
BITMAP 
000000
000400
000400
000a00
7b0a00
449200
449100
449100
44bf00
44a100
44a080
44c080
44c080
000000
000000
000000
000000
000000
000000
ENDCHAR
STARTCHAR a7cd
ENCODING 42957 
SWIDTH 495 0
DWIDTH 18 0
BBX 18 19 0 -1
BITMAP 
000000
400800
400800
401400
431400
441400
482200
502200
683f00
444100
424100
414080
408080
000000
000000
000000
000000
000000
000000
ENDCHAR
STARTCHAR a7ce
ENCODING 42958 
SWIDTH 495 0
DWIDTH 18 0
BBX 18 19 0 -1
BITMAP 
000000
010080
010080
008880
5c8880
628880
418900
415500
415500
415500
415500
622200
5c2200
400000
400000
400000
400000
000000
000000
ENDCHAR
STARTCHAR a7cf
ENCODING 42959 
SWIDTH 495 0
DWIDTH 18 0
BBX 18 19 0 -1
BITMAP 
000000
010080
010080
008880
5e8880
618880
414900
414900
415500
415500
415500
412200
412200
000000
000000
000000
000000
000000
000000
ENDCHAR
STARTCHAR a7d0
ENCODING 42960 
SWIDTH 495 0
DWIDTH 18 0
BBX 18 19 0 -1
BITMAP 
000000
010080
010080
008880
108880
118880
118900
115500
215500
215500
225500
222200
3c2200
400000
400000
400000
400000
000000
000000
ENDCHAR
STARTCHAR a7d1
ENCODING 42961 
SWIDTH 495 0
DWIDTH 18 0
BBX 18 19 0 -1
BITMAP 
000000
010080
010080
008880
768880
498880
498900
495500
495500
495500
495500
492200
492200
000000
000000
000000
000000
000000
000000
ENDCHAR
STARTCHAR a7d2
ENCODING 42962 
SWIDTH 495 0
DWIDTH 18 0
BBX 18 19 0 -1
BITMAP 
000000
410080
410080
408880
468880
488880
508900
605500
505500
485500
445500
422200
412200
000000
000000
000000
000000
000000
000000
ENDCHAR
STARTCHAR a7d3
ENCODING 42963 
SWIDTH 495 0
DWIDTH 18 0
BBX 18 19 0 -1
BITMAP 
000000
000000
000000
000000
000000
000000
418080
638080
638880
554880
554900
495500
495500
495500
415500
412200
412200
000000
000000
ENDCHAR
STARTCHAR a7d4
ENCODING 42964 
SWIDTH 495 0
DWIDTH 18 0
BBX 18 19 0 -1
BITMAP 
000000
000000
000000
000000
010800
010800
010800
010800
010800
010f80
01f880
010900
010900
010a00
010a00
010c00
010f80
000000
000000
ENDCHAR
STARTCHAR a7d5
ENCODING 42965 
SWIDTH 495 0
DWIDTH 18 0
BBX 18 19 0 -1
BITMAP 
000000
000000
000000
000000
410800
410800
410800
410800
450800
490f80
51f880
610900
510900
490a00
450a00
430c00
410f80
000000
000000
ENDCHAR
STARTCHAR a7d6
ENCODING 42966 
SWIDTH 495 0
DWIDTH 18 0
BBX 18 19 0 -1
BITMAP 
000000
000000
000000
000000
418800
418800
638800
638800
558800
558f80
49f880
498900
498900
498a00
498a00
418c00
418f80
000000
000000
ENDCHAR
STARTCHAR a7d7
ENCODING 42967 
SWIDTH 495 0
DWIDTH 18 0
BBX 18 19 0 -1
BITMAP 
000000
000000
000000
000000
190800
250800
430800
430800
410800
410f80
41f880
4f0900
430900
430a00
430a00
230c00
1d0f80
000000
000000
ENDCHAR
STARTCHAR a7d8
ENCODING 42968 
SWIDTH 495 0
DWIDTH 18 0
BBX 18 19 0 -1
BITMAP 
000000
000000
000000
000000
7f0800
090800
090800
090800
090800
090f80
09f880
090900
090900
090a00
090a00
090c00
090f80
000000
000000
ENDCHAR
STARTCHAR a7d9
ENCODING 42969 
SWIDTH 495 0
DWIDTH 18 0
BBX 18 19 0 -1
BITMAP 
000000
000000
03f000
040800
080400
100200
100200
100200
100200
100200
080400
040800
021000
012000
012000
1f3e00
000000
000000
000000
ENDCHAR
STARTCHAR a7da
ENCODING 42970 
SWIDTH 495 0
DWIDTH 18 0
BBX 18 19 0 -1
BITMAP 
000000
000000
000000
000000
000000
403c00
404200
408100
450080
490080
510080
610080
510080
490080
448100
424200
41e780
000000
000000
ENDCHAR
STARTCHAR a7db
ENCODING 42971 
SWIDTH 495 0
DWIDTH 18 0
BBX 18 19 0 -1
BITMAP 
000000
000000
000000
000000
000000
411c00
632200
634100
558080
558080
558080
498080
498080
494100
494100
412200
41e780
000000
000000
ENDCHAR
STARTCHAR a7dc
ENCODING 42972 
SWIDTH 495 0
DWIDTH 18 0
BBX 18 19 0 -1
BITMAP 
000000
007f80
004080
004000
5c4000
624000
417e00
414000
414000
414000
414000
624000
5c4000
404000
400000
400000
400000
000000
000000
ENDCHAR
STARTCHAR a7dd
ENCODING 42973 
SWIDTH 495 0
DWIDTH 18 0
BBX 18 19 0 -1
BITMAP 
000000
000000
000000
000000
007f80
004080
004000
7e4000
414000
417e00
414000
414000
414000
414000
414000
414000
414000
000000
000000
ENDCHAR
STARTCHAR a7de
ENCODING 42974 
SWIDTH 495 0
DWIDTH 18 0
BBX 18 19 0 -1
BITMAP 
000000
007f80
004080
004000
10c000
10c000
10fe00
10c000
214000
214000
214000
234000
3dc000
404000
400000
400000
400000
000000
000000
ENDCHAR
STARTCHAR a7df
ENCODING 42975 
SWIDTH 495 0
DWIDTH 18 0
BBX 18 19 0 -1
BITMAP 
000000
000000
000000
000080
000080
000080
763880
494480
494480
494480
494480
494480
494480
494480
494480
494480
493880
000000
000000
ENDCHAR
STARTCHAR a7e0
ENCODING 42976 
SWIDTH 495 0
DWIDTH 18 0
BBX 18 19 0 -1
BITMAP 
000000
000000
000100
000100
000100
000100
1c0100
221d00
422300
404100
404100
404100
404100
404100
424100
222300
1c1d00
000000
000000
ENDCHAR
STARTCHAR a7e1
ENCODING 42977 
SWIDTH 495 0
DWIDTH 18 0
BBX 18 19 0 -1
BITMAP 
000000
000080
000080
000080
4dc080
562780
622880
602880
41e880
422880
422880
422880
422880
422880
422880
422880
41e780
000000
000000
ENDCHAR
STARTCHAR a7e2
ENCODING 42978 
SWIDTH 495 0
DWIDTH 18 0
BBX 18 19 0 -1
BITMAP 
000000
000080
000080
5dc780
622880
602880
41e880
422880
422880
41ef00
00f700
0f0880
700800
000700
001080
001080
000f00
000000
000000
ENDCHAR
STARTCHAR a7e3
ENCODING 42979 
SWIDTH 495 0
DWIDTH 18 0
BBX 18 19 0 -1
BITMAP 
000000
000080
000080
5dc780
622880
402880
41e880
422880
422f00
01d480
067080
188900
608780
007000
010800
010800
00f000
000000
000000
ENDCHAR
STARTCHAR a7e4
ENCODING 42980 
SWIDTH 495 0
DWIDTH 18 0
BBX 18 19 0 -1
BITMAP 
000000
000000
000000
000000
000000
384c00
425000
426000
406000
404000
384000
044000
024000
024000
424000
424000
3c0000
000000
000000
ENDCHAR
STARTCHAR a7e5
ENCODING 42981 
SWIDTH 495 0
DWIDTH 18 0
BBX 18 19 0 -1
BITMAP 
000000
5e0000
610000
408000
408000
408000
409f00
40a080
614080
5e4080
400f80
401080
402080
404080
404080
404080
403f80
000000
000000
ENDCHAR
STARTCHAR a7e6
ENCODING 42982 
SWIDTH 495 0
DWIDTH 18 0
BBX 18 19 0 -1
BITMAP 
000000
42e000
431000
420800
460800
4a0800
520800
520800
631700
62e880
520880
520080
520780
4a0880
4a1080
461080
460f80
000000
000000
ENDCHAR
STARTCHAR a7e7
ENCODING 42983 
SWIDTH 495 0
DWIDTH 18 0
BBX 18 19 0 -1
BITMAP 
000000
45e000
6d1000
6d0800
6d0800
550800
550800
550800
551700
55e880
550880
550080
550780
550880
551080
551080
450f80
000000
000000
ENDCHAR
STARTCHAR a7e8
ENCODING 42984 
SWIDTH 495 0
DWIDTH 18 0
BBX 18 19 0 -1
BITMAP 
000000
397000
258800
450800
450800
410800
410800
410800
418f00
5d7880
450880
450080
450780
450880
451080
451080
390f80
000000
000000
ENDCHAR
STARTCHAR a7e9
ENCODING 42985 
SWIDTH 495 0
DWIDTH 18 0
BBX 18 19 0 -1
BITMAP 
000000
443000
443000
443000
463000
463000
463000
2a5000
295700
295880
295080
295080
109080
109080
109080
109880
109700
000000
000000
ENDCHAR
STARTCHAR a7ea
ENCODING 42986 
SWIDTH 495 0
DWIDTH 18 0
BBX 18 19 0 -1
BITMAP 
000000
400000
400000
400000
400000
400000
4b3000
4cc800
488800
488800
488800
488800
488800
488800
488800
488800
488800
000000
000000
ENDCHAR
STARTCHAR a7eb
ENCODING 42987 
SWIDTH 495 0
DWIDTH 18 0
BBX 18 19 0 -1
BITMAP 
000000
400000
400000
400000
400000
400000
480800
441000
422000
422000
414000
408000
414000
422000
422000
441000
480800
000000
000000
ENDCHAR
STARTCHAR a7ec
ENCODING 42988 
SWIDTH 495 0
DWIDTH 18 0
BBX 18 19 0 -1
BITMAP 
000000
7f0000
408000
408000
408000
409f80
7f2080
40a080
40a080
40a080
40a080
40a080
409f80
7f0080
000080
000080
000080
000000
000000
ENDCHAR
STARTCHAR a7ed
ENCODING 42989 
SWIDTH 495 0
DWIDTH 18 0
BBX 18 19 0 -1
BITMAP 
000000
1e0000
210000
408000
408000
402080
402080
4fa080
409100
409100
408a00
408a00
210400
1e0400
000800
001000
006000
000000
000000
ENDCHAR
STARTCHAR a7ee
ENCODING 42990 
SWIDTH 495 0
DWIDTH 18 0
BBX 18 19 0 -1
BITMAP 
000000
1e0000
210000
408000
400000
402080
202080
1e1100
011100
009100
008a00
408a00
408400
3f0400
000000
000000
000000
000000
000000
ENDCHAR
STARTCHAR a7ef
ENCODING 42991 
SWIDTH 495 0
DWIDTH 18 0
BBX 18 19 0 -1
BITMAP 
000000
3e0200
630400
410800
401000
402000
414080
3e8700
010880
031880
052700
094400
118700
218880
414880
012880
011700
000000
000000
ENDCHAR
STARTCHAR a1f0
ENCODING 41456 
SWIDTH 495 0
DWIDTH 18 0
BBX 18 19 0 -1
BITMAP 
000000
000000
000000
000000
000000
0f1e00
10a100
204000
204000
204000
204000
10a100
0f1e00
000000
000000
000000
000000
000000
000000
ENDCHAR
STARTCHAR a1f1
ENCODING 41457 
SWIDTH 495 0
DWIDTH 18 0
BBX 18 19 0 -1
BITMAP 
000000
000000
000000
000000
180600
180600
000000
000000
000000
000000
000000
000000
00c000
00c000
000000
000000
000000
000000
000000
ENDCHAR
STARTCHAR a1f2
ENCODING 41458 
SWIDTH 495 0
DWIDTH 18 0
BBX 18 19 0 -1
BITMAP 
000000
00e000
012000
010000
010000
010000
008000
008000
008000
004000
004000
004000
002000
002000
002000
012000
01c000
000000
000000
ENDCHAR
STARTCHAR a1f3
ENCODING 41459 
SWIDTH 495 0
DWIDTH 18 0
BBX 18 19 0 -1
BITMAP 
000000
071c00
092400
082000
082000
082000
041000
041000
041000
020800
020800
020800
010400
010400
010400
092400
0e3800
000000
000000
ENDCHAR
STARTCHAR a1f4
ENCODING 41460 
SWIDTH 495 0
DWIDTH 18 0
BBX 18 19 0 -1
BITMAP 
000000
000000
000000
000000
03fc00
040000
080000
080000
0ffc00
080000
080000
040000
03fc00
000000
000000
000000
000000
000000
000000
ENDCHAR
STARTCHAR a1f5
ENCODING 41461 
SWIDTH 495 0
DWIDTH 18 0
BBX 18 19 0 -1
BITMAP 
000000
000000
000000
000000
0ff000
000800
000400
000400
0ffc00
000400
000400
000800
0ff000
000000
000000
000000
000000
000000
000000
ENDCHAR
STARTCHAR a1f6
ENCODING 41462 
SWIDTH 495 0
DWIDTH 18 0
BBX 18 19 0 -1
BITMAP 
000000
000000
000000
07fe00
080000
100000
100000
100000
100000
080000
07fe00
000000
000000
1ffe00
000000
000000
000000
000000
000000
ENDCHAR
STARTCHAR a1f7
ENCODING 41463 
SWIDTH 495 0
DWIDTH 18 0
BBX 18 19 0 -1
BITMAP 
000000
000000
000000
1ff800
000400
000200
000200
000200
000200
000400
1ff800
000000
000000
1ffe00
000000
000000
000000
000000
000000
ENDCHAR
STARTCHAR a1f8
ENCODING 41464 
SWIDTH 495 0
DWIDTH 18 0
BBX 18 19 0 -1
BITMAP 
000000
000000
000000
000000
03fe00
040000
080000
100000
100000
100000
100000
080000
040000
03fe00
000000
000000
000000
000000
000000
ENDCHAR
STARTCHAR a1f9
ENCODING 41465 
SWIDTH 495 0
DWIDTH 18 0
BBX 18 19 0 -1
BITMAP 
000000
000000
000000
000000
1ff000
000800
000400
000200
000200
000200
000200
000400
000800
1ff000
000000
000000
000000
000000
000000
ENDCHAR
STARTCHAR a1fa
ENCODING 41466 
SWIDTH 495 0
DWIDTH 18 0
BBX 18 19 0 -1
BITMAP 
000000
000000
000000
080400
080400
080400
080400
080400
080400
080400
080400
080400
040800
021000
01e000
000000
000000
000000
000000
ENDCHAR
STARTCHAR a1fb
ENCODING 41467 
SWIDTH 495 0
DWIDTH 18 0
BBX 18 19 0 -1
BITMAP 
000000
000000
000000
01e000
021000
040800
080400
080400
080400
080400
080400
080400
080400
080400
080400
000000
000000
000000
000000
ENDCHAR
STARTCHAR a1fc
ENCODING 41468 
SWIDTH 495 0
DWIDTH 18 0
BBX 18 19 0 -1
BITMAP 
000000
000000
000000
008000
008000
014000
014000
022000
022000
041000
041000
080800
080800
100400
100400
000000
000000
000000
000000
ENDCHAR
STARTCHAR a1fd
ENCODING 41469 
SWIDTH 495 0
DWIDTH 18 0
BBX 18 19 0 -1
BITMAP 
000000
000000
000000
100400
100400
080800
080800
041000
041000
022000
022000
014000
014000
008000
008000
000000
000000
000000
000000
ENDCHAR
STARTCHAR a2a1
ENCODING 41633 
SWIDTH 495 0
DWIDTH 18 0
BBX 18 19 0 -1
BITMAP 
000000
000000
000000
000000
000800
000400
7ffe00
000100
000080
000100
7ffe00
000400
000800
000000
000000
000000
000000
000000
000000
ENDCHAR
STARTCHAR a2a2
ENCODING 41634 
SWIDTH 495 0
DWIDTH 18 0
BBX 18 19 0 -1
BITMAP 
000000
000000
000000
000000
040800
080400
1ffe00
200100
400080
200100
1ffe00
080400
040800
000000
000000
000000
000000
000000
000000
ENDCHAR
STARTCHAR a2a3
ENCODING 41635 
SWIDTH 495 0
DWIDTH 18 0
BBX 18 19 0 -1
BITMAP 
000000
000000
200200
200200
100400
100400
0ff800
080800
041000
041000
022000
022000
014000
014000
008000
008000
000000
000000
000000
ENDCHAR
STARTCHAR a2a4
ENCODING 41636 
SWIDTH 495 0
DWIDTH 18 0
BBX 18 19 0 -1
BITMAP 
000000
000000
000000
0ff800
000800
000800
000800
000800
0ff800
000800
000800
000800
000800
0ff800
000000
000000
000000
000000
000000
ENDCHAR
STARTCHAR a2a5
ENCODING 41637 
SWIDTH 495 0
DWIDTH 18 0
BBX 18 19 0 -1
BITMAP 
000000
002000
004000
008000
000000
000000
000000
000000
000000
000000
000000
000000
000000
000000
000000
000000
000000
000000
000000
ENDCHAR
STARTCHAR a2a6
ENCODING 41638 
SWIDTH 495 0
DWIDTH 18 0
BBX 18 19 0 -1
BITMAP 
000000
000000
070000
088200
104400
003800
000000
000000
000000
000000
000000
000000
000000
000000
000000
000000
000000
000000
000000
ENDCHAR
STARTCHAR a2a7
ENCODING 41639 
SWIDTH 495 0
DWIDTH 18 0
BBX 18 19 0 -1
BITMAP 
000000
000000
080400
040800
021000
012000
00c000
000000
000000
000000
000000
000000
000000
000000
000000
000000
000000
000000
000000
ENDCHAR
STARTCHAR a2a8
ENCODING 41640 
SWIDTH 495 0
DWIDTH 18 0
BBX 18 19 0 -1
BITMAP 
000000
000000
080400
080400
040800
03f000
000000
000000
000000
000000
000000
000000
000000
000000
000000
000000
000000
000000
000000
ENDCHAR
STARTCHAR a2a9
ENCODING 41641 
SWIDTH 495 0
DWIDTH 18 0
BBX 18 19 0 -1
BITMAP 
000000
000000
019800
019800
033000
022000
044000
000000
000000
000000
000000
000000
000000
000000
000000
000000
000000
000000
000000
ENDCHAR
STARTCHAR a2aa
ENCODING 41642 
SWIDTH 495 0
DWIDTH 18 0
BBX 18 19 0 -1
BITMAP 
000000
000000
01c000
022000
022000
01c000
000000
000000
000000
000000
000000
000000
000000
000000
000000
000000
000000
000000
000000
ENDCHAR
STARTCHAR a2ab
ENCODING 41643 
SWIDTH 495 0
DWIDTH 18 0
BBX 18 19 0 -1
BITMAP 
000000
000000
000000
008000
01c000
008000
000000
000000
000000
000000
000000
000000
000000
000000
000000
000000
000000
000000
000000
ENDCHAR
STARTCHAR a2ac
ENCODING 41644 
SWIDTH 495 0
DWIDTH 18 0
BBX 18 19 0 -1
BITMAP 
000000
000000
000000
000000
00c000
00c000
008000
008000
004000
003000
009800
009800
007000
000000
000000
000000
000000
000000
000000
ENDCHAR
STARTCHAR a2ad
ENCODING 41645 
SWIDTH 495 0
DWIDTH 18 0
BBX 18 19 0 -1
BITMAP 
000000
000000
000000
000000
000000
008000
008000
010000
020000
060000
062000
03c000
000000
000000
000000
000000
000000
000000
000000
ENDCHAR
STARTCHAR a2ae
ENCODING 41646 
SWIDTH 495 0
DWIDTH 18 0
BBX 18 19 0 -1
BITMAP 
000000
004000
00e000
004000
000000
004000
004000
004000
00e000
00e000
00e000
00e000
01f000
01f000
01f000
01f000
00e000
000000
000000
ENDCHAR
STARTCHAR a2af
ENCODING 41647 
SWIDTH 495 0
DWIDTH 18 0
BBX 18 19 0 -1
BITMAP 
000000
004000
00e000
004000
000000
004000
004000
004000
018000
020000
040000
080800
080c00
080400
080400
040800
03f000
000000
000000
ENDCHAR
STARTCHAR a2b0
ENCODING 41648 
SWIDTH 495 0
DWIDTH 18 0
BBX 18 19 0 -1
BITMAP 
000000
000000
000000
000000
03e000
03e000
01c000
008000
000000
000000
008000
01c000
03e000
03e000
000000
000000
000000
000000
000000
ENDCHAR
STARTCHAR a2b1
ENCODING 41649 
SWIDTH 495 0
DWIDTH 18 0
BBX 18 19 0 -1
BITMAP 
000000
003000
004000
008000
008000
008000
008000
01c000
02a000
02a000
01c000
008000
008000
008000
008000
010000
060000
000000
000000
ENDCHAR
STARTCHAR a2b2
ENCODING 41650 
SWIDTH 495 0
DWIDTH 18 0
BBX 18 19 0 -1
BITMAP 
000000
7fff00
200080
100080
080000
040000
020000
010000
00e000
008000
010000
020000
040000
080000
100080
200080
7fff00
000000
000000
ENDCHAR
STARTCHAR a2b3
ENCODING 41651 
SWIDTH 495 0
DWIDTH 18 0
BBX 18 19 0 -1
BITMAP 
000000
7fff80
040800
040800
040800
040800
040800
040800
040800
040800
040800
040800
040800
040800
040800
040800
040800
000000
000000
ENDCHAR
STARTCHAR a2b4
ENCODING 41652 
SWIDTH 495 0
DWIDTH 18 0
BBX 18 19 0 -1
BITMAP 
000000
43f080
240900
180600
100200
200100
400080
400080
400080
400080
400080
400080
200100
100200
180600
240900
43f080
000000
000000
ENDCHAR
STARTCHAR a2b5
ENCODING 41653 
SWIDTH 495 0
DWIDTH 18 0
BBX 18 19 0 -1
BITMAP 
000000
300000
480000
480000
37ff00
040080
040080
040000
040800
07f800
040800
040000
040000
040000
040000
040000
040000
000000
000000
ENDCHAR
STARTCHAR a2b6
ENCODING 41654 
SWIDTH 495 0
DWIDTH 18 0
BBX 18 19 0 -1
BITMAP 
000000
000000
182000
242000
244000
248000
248000
250000
1a0000
02c600
052900
092900
092900
112900
212900
20c600
000000
000000
000000
ENDCHAR
STARTCHAR a2b7
ENCODING 41655 
SWIDTH 495 0
DWIDTH 18 0
BBX 18 19 0 -1
BITMAP 
000000
000180
000280
000c80
003080
00c080
030080
040080
180080
600080
180080
060080
018080
006080
001880
000680
000180
000000
000000
ENDCHAR
STARTCHAR a2b8
ENCODING 41656 
SWIDTH 495 0
DWIDTH 18 0
BBX 18 19 0 -1
BITMAP 
000000
000180
000380
000f80
003f80
00ff80
03ff80
0fff80
1fff80
7fff80
1fff80
07ff80
01ff80
007f80
001f80
000780
000180
000000
000000
ENDCHAR
STARTCHAR a2b9
ENCODING 41657 
SWIDTH 495 0
DWIDTH 18 0
BBX 18 19 0 -1
BITMAP 
000000
600000
580000
460000
418000
406000
401800
400400
400200
400180
400600
401800
406000
418000
460000
580000
600000
000000
000000
ENDCHAR
STARTCHAR a2ba
ENCODING 41658 
SWIDTH 495 0
DWIDTH 18 0
BBX 18 19 0 -1
BITMAP 
000000
600000
780000
7e0000
7f8000
7fe000
7ff800
7ffc00
7ffe00
7fff80
7ffe00
7ff800
7fe000
7f8000
7e0000
780000
600000
000000
000000
ENDCHAR
STARTCHAR a2bb
ENCODING 41659 
SWIDTH 495 0
DWIDTH 18 0
BBX 18 19 0 -1
BITMAP 
000000
00c000
00c000
012000
021000
040800
080400
100200
200100
400080
400080
400080
41e080
22d100
1cce00
00c000
00c000
000000
000000
ENDCHAR
STARTCHAR a2bc
ENCODING 41660 
SWIDTH 495 0
DWIDTH 18 0
BBX 18 19 0 -1
BITMAP 
000000
00c000
00c000
01e000
03f000
07f800
0ffc00
1ffe00
3fff00
7fff80
7fff80
7fff80
7fff80
3edf00
1cce00
00c000
00c000
000000
000000
ENDCHAR
STARTCHAR a2bd
ENCODING 41661 
SWIDTH 495 0
DWIDTH 18 0
BBX 18 19 0 -1
BITMAP 
000000
0f1c00
10a200
204100
404080
400080
400080
400080
400080
400080
200100
100200
0c0c00
031000
00a000
004000
004000
000000
000000
ENDCHAR
STARTCHAR a2be
ENCODING 41662 
SWIDTH 495 0
DWIDTH 18 0
BBX 18 19 0 -1
BITMAP 
000000
0f1c00
1fbe00
3fff00
7fff80
7fff80
7fff80
7fff80
7fff80
7fff80
3fff00
1ffe00
0ffc00
03f000
01e000
004000
004000
000000
000000
ENDCHAR
STARTCHAR a2bf
ENCODING 41663 
SWIDTH 495 0
DWIDTH 18 0
BBX 18 19 0 -1
BITMAP 
000000
01e000
021000
040800
040800
1c0e00
221100
412080
40c080
40c080
40c080
21e100
1ede00
00c000
00c000
00c000
00c000
000000
000000
ENDCHAR
STARTCHAR a2c0
ENCODING 41664 
SWIDTH 495 0
DWIDTH 18 0
BBX 18 19 0 -1
BITMAP 
000000
01e000
03f000
07f800
07f800
1ffe00
3fff00
7fff80
7fff80
7fff80
7fff80
3fff00
1ede00
00c000
00c000
00c000
00c000
000000
000000
ENDCHAR
STARTCHAR a2c1
ENCODING 41665 
SWIDTH 495 0
DWIDTH 18 0
BBX 18 19 0 -1
BITMAP 
000000
03f000
040800
080400
100200
200100
400080
40c080
41e080
41e080
40c080
400080
200100
100200
080400
040800
03f000
000000
000000
ENDCHAR
STARTCHAR a2c2
ENCODING 41666 
SWIDTH 495 0
DWIDTH 18 0
BBX 18 19 0 -1
BITMAP 
000000
00c000
012000
021000
040800
08c400
11e200
23f100
47f880
47f880
23f100
11e200
08c400
040800
021000
012000
00c000
000000
000000
ENDCHAR
STARTCHAR a2c3
ENCODING 41667 
SWIDTH 495 0
DWIDTH 18 0
BBX 18 19 0 -1
BITMAP 
000000
7fff80
400080
400080
400080
47f880
47f880
47f880
47f880
47f880
47f880
47f880
47f880
400080
400080
400080
7fff80
000000
000000
ENDCHAR
STARTCHAR a2c4
ENCODING 41668 
SWIDTH 495 0
DWIDTH 18 0
BBX 18 19 0 -1
BITMAP 
000000
03f000
0f8c00
1f8200
3f8100
3f8100
7f8080
7f8080
7f8080
7f8080
7f8080
7f8080
3f8100
3f8100
1f8200
0f8c00
03f000
000000
000000
ENDCHAR
STARTCHAR a2c5
ENCODING 41669 
SWIDTH 495 0
DWIDTH 18 0
BBX 18 19 0 -1
BITMAP 
000000
03f000
0cfc00
10fe00
20ff00
20ff00
40ff80
40ff80
40ff80
40ff80
40ff80
40ff80
20ff00
20ff00
10fe00
0cfc00
03f000
000000
000000
ENDCHAR
STARTCHAR a2c6
ENCODING 41670 
SWIDTH 495 0
DWIDTH 18 0
BBX 18 19 0 -1
BITMAP 
000000
7fff80
400080
441080
400080
482080
420080
408880
480080
440080
402080
400080
410880
480080
401080
410080
7fff80
000000
000000
ENDCHAR
STARTCHAR a2c7
ENCODING 41671 
SWIDTH 495 0
DWIDTH 18 0
BBX 18 19 0 -1
BITMAP 
000000
7fff80
400080
400080
400080
7fff80
400080
400080
400080
7fff80
400080
400080
400080
7fff80
400080
400080
7fff80
000000
000000
ENDCHAR
STARTCHAR a2c8
ENCODING 41672 
SWIDTH 495 0
DWIDTH 18 0
BBX 18 19 0 -1
BITMAP 
000000
7fff80
444480
444480
444480
444480
444480
444480
444480
444480
444480
444480
444480
444480
444480
444480
7fff80
000000
000000
ENDCHAR
STARTCHAR a2c9
ENCODING 41673 
SWIDTH 495 0
DWIDTH 18 0
BBX 18 19 0 -1
BITMAP 
000000
7fff80
408180
410280
420480
440880
481080
502080
604180
408280
410480
420880
441080
482080
504080
608080
7fff80
000000
000000
ENDCHAR
STARTCHAR a2ca
ENCODING 41674 
SWIDTH 495 0
DWIDTH 18 0
BBX 18 19 0 -1
BITMAP 
000000
7fff80
608080
504080
482080
441080
420880
410480
608280
504180
482080
441080
420880
410480
408280
404180
7fff80
000000
000000
ENDCHAR
STARTCHAR a2cb
ENCODING 41675 
SWIDTH 495 0
DWIDTH 18 0
BBX 18 19 0 -1
BITMAP 
000000
7fff80
444480
444480
444480
7fff80
444480
444480
444480
7fff80
444480
444480
444480
7fff80
444480
444480
7fff80
000000
000000
ENDCHAR
STARTCHAR a2cc
ENCODING 41676 
SWIDTH 495 0
DWIDTH 18 0
BBX 18 19 0 -1
BITMAP 
000000
7fff80
604180
50a280
491480
460880
461480
492280
60c180
60c280
492480
461880
461880
492480
50c280
60c180
7fff80
000000
000000
ENDCHAR
STARTCHAR a2cd
ENCODING 41677 
SWIDTH 495 0
DWIDTH 18 0
BBX 18 19 0 -1
BITMAP 
000000
024800
049000
049000
049000
049000
049000
024800
024800
124a00
224900
424880
449080
492080
400080
200100
1ffe00
000000
000000
ENDCHAR
STARTCHAR a2ce
ENCODING 41678 
SWIDTH 495 0
DWIDTH 18 0
BBX 18 19 0 -1
BITMAP 
000000
0ffc00
100200
200100
400080
43f080
421080
7e1f80
021000
0c0c00
31e300
421080
42d080
421080
41e080
400080
7fff80
000000
000000
ENDCHAR
STARTCHAR a2cf
ENCODING 41679 
SWIDTH 495 0
DWIDTH 18 0
BBX 18 19 0 -1
BITMAP 
000000
0ffc00
1ffe00
3fff00
7fff80
7fff80
7fff80
7fff80
03f000
0ffc00
3e1f00
7def80
7d2f80
7def80
7e1f80
7fff80
7fff80
000000
000000
ENDCHAR
STARTCHAR a2d0
ENCODING 41680 
SWIDTH 495 0
DWIDTH 18 0
BBX 18 19 0 -1
BITMAP 
000000
000000
000000
000000
000000
3f8780
406280
401e80
3f8280
040280
03e280
020280
03c280
020280
03c280
020e80
01f780
000000
000000
ENDCHAR
STARTCHAR a2d1
ENCODING 41681 
SWIDTH 495 0
DWIDTH 18 0
BBX 18 19 0 -1
BITMAP 
000000
000000
000000
000000
000000
787f00
518080
5e0080
507f00
500800
50f000
501000
50f000
501000
50f000
5c1000
7be000
000000
000000
ENDCHAR
STARTCHAR a2d2
ENCODING 41682 
SWIDTH 495 0
DWIDTH 18 0
BBX 18 19 0 -1
BITMAP 
000000
1ff880
200880
400880
400880
400880
400880
200880
1ff880
000880
000880
000880
000880
000880
000880
000880
000880
000000
000000
ENDCHAR
STARTCHAR a2d3
ENCODING 41683 
SWIDTH 495 0
DWIDTH 18 0
BBX 18 19 0 -1
BITMAP 
000000
004000
004000
004000
004000
004000
1ffe00
004000
004000
004000
004000
004000
004000
004000
004000
004000
004000
000000
000000
ENDCHAR
STARTCHAR a2d4
ENCODING 41684 
SWIDTH 495 0
DWIDTH 18 0
BBX 18 19 0 -1
BITMAP 
000000
004000
004000
004000
1ffe00
004000
004000
1ffe00
004000
004000
004000
004000
004000
004000
004000
004000
004000
000000
000000
ENDCHAR
STARTCHAR a2d5
ENCODING 41685 
SWIDTH 495 0
DWIDTH 18 0
BBX 18 19 0 -1
BITMAP 
000000
008000
01c000
03e000
06b000
008000
008000
008000
008000
008000
008000
008000
008000
06b000
03e000
01c000
008000
000000
000000
ENDCHAR
STARTCHAR a2d6
ENCODING 41686 
SWIDTH 495 0
DWIDTH 18 0
BBX 18 19 0 -1
BITMAP 
000000
003f80
000780
000380
000580
000880
001080
002080
004000
008000
010000
020000
040000
080000
100000
200000
400000
000000
000000
ENDCHAR
STARTCHAR a2d7
ENCODING 41687 
SWIDTH 495 0
DWIDTH 18 0
BBX 18 19 0 -1
BITMAP 
000000
000080
000100
000200
000400
000800
001000
002000
004000
008000
410000
420000
440000
680000
700000
780000
7f0000
000000
000000
ENDCHAR
STARTCHAR a2d8
ENCODING 41688 
SWIDTH 495 0
DWIDTH 18 0
BBX 18 19 0 -1
BITMAP 
000000
7f0000
780000
700000
680000
440000
420000
410000
008000
004000
002000
001000
000800
000400
000200
000100
000080
000000
000000
ENDCHAR
STARTCHAR a2d9
ENCODING 41689 
SWIDTH 495 0
DWIDTH 18 0
BBX 18 19 0 -1
BITMAP 
000000
400000
200000
100000
080000
040000
020000
010000
008000
004000
002080
001080
000880
000580
000380
000780
003f80
000000
000000
ENDCHAR
STARTCHAR a2da
ENCODING 41690 
SWIDTH 495 0
DWIDTH 18 0
BBX 18 19 0 -1
BITMAP 
000000
040000
040000
040000
040000
040000
040000
04e000
051000
060800
040800
040800
041000
042000
044000
058000
060000
000000
000000
ENDCHAR
STARTCHAR a2db
ENCODING 41691 
SWIDTH 495 0
DWIDTH 18 0
BBX 18 19 0 -1
BITMAP 
000000
004000
004000
004000
004000
004000
004000
004000
004000
004000
004000
00c000
03c000
07c000
0fc000
0f8000
060000
000000
000000
ENDCHAR
STARTCHAR a2dc
ENCODING 41692 
SWIDTH 495 0
DWIDTH 18 0
BBX 18 19 0 -1
BITMAP 
000000
004000
004000
006000
005000
004800
004400
004200
004200
004200
004400
004800
004000
07c000
0fc000
0f8000
070000
000000
000000
ENDCHAR
STARTCHAR a2dd
ENCODING 41693 
SWIDTH 495 0
DWIDTH 18 0
BBX 18 19 0 -1
BITMAP 
000000
07ff80
040080
040080
07ff80
040080
040080
040080
040080
040080
040080
040080
0c0180
1c0380
3c0780
780f00
700e00
000000
000000
ENDCHAR
STARTCHAR a2de
ENCODING 41694 
SWIDTH 495 0
DWIDTH 18 0
BBX 18 19 0 -1
BITMAP 
000000
0ffc00
100200
241100
442080
444080
448080
450000
460000
7e0780
050080
048080
444080
442080
241900
100200
0ffc00
000000
000000
ENDCHAR
STARTCHAR a2df
ENCODING 41695 
SWIDTH 495 0
DWIDTH 18 0
BBX 18 19 0 -1
BITMAP 
000000
17fa00
201900
201100
402080
402080
40f080
439880
5c0680
400080
7fff80
404080
404080
404080
204100
204100
104200
000000
000000
ENDCHAR
STARTCHAR a2e0
ENCODING 41696 
SWIDTH 495 0
DWIDTH 18 0
BBX 18 19 0 -1
BITMAP 
000000
000000
410000
410000
610000
513800
514400
494400
494400
454400
454400
434400
414400
414400
414400
413980
000180
000000
000000
ENDCHAR
STARTCHAR a2e1
ENCODING 41697 
SWIDTH 495 0
DWIDTH 18 0
BBX 18 19 0 -1
BITMAP 
000000
0e0000
110000
208000
408000
400000
400000
400000
403800
404400
404400
404400
404400
40c400
20c400
114580
0e3980
000000
000000
ENDCHAR
STARTCHAR a2e2
ENCODING 41698 
SWIDTH 495 0
DWIDTH 18 0
BBX 18 19 0 -1
BITMAP 
000000
000000
000000
7f8080
088080
08c180
08a280
08a280
089480
089480
088880
088880
088880
088880
088080
088080
088080
000000
000000
ENDCHAR
STARTCHAR a2e3
ENCODING 41699 
SWIDTH 495 0
DWIDTH 18 0
BBX 18 19 0 -1
BITMAP 
000000
000000
000000
3dbb00
424480
424480
024480
3e4480
424480
424480
424480
424480
3f4480
000000
000000
000000
000000
000000
000000
ENDCHAR
STARTCHAR a2e4
ENCODING 41700 
SWIDTH 495 0
DWIDTH 18 0
BBX 18 19 0 -1
BITMAP 
000000
000000
000000
59bb00
644480
424480
424480
424480
424480
424480
424480
644480
584480
400000
400000
400000
400000
000000
000000
ENDCHAR
STARTCHAR a2e5
ENCODING 41701 
SWIDTH 495 0
DWIDTH 18 0
BBX 18 19 0 -1
BITMAP 
000000
000000
7f0000
080000
080000
09f400
090400
090400
090400
090400
09e400
090400
090400
090400
090400
09f780
000000
000000
000000
ENDCHAR
STARTCHAR a3a2
ENCODING 41890 
SWIDTH 495 0
DWIDTH 18 0
BBX 18 19 0 -1
BITMAP 
000000
033000
033000
033000
000000
000000
000000
000000
000000
000000
000000
000000
000000
000000
000000
000000
000000
000000
000000
ENDCHAR
STARTCHAR aca1
ENCODING 44193 
SWIDTH 495 0
DWIDTH 18 0
BBX 18 19 0 -1
BITMAP 
000000
000000
00c000
012000
012000
021000
021000
040800
040800
080400
080400
1ffe00
100200
200100
200100
200100
000000
000000
000000
ENDCHAR
STARTCHAR aca2
ENCODING 44194 
SWIDTH 495 0
DWIDTH 18 0
BBX 18 19 0 -1
BITMAP 
000000
000000
1ffc00
100000
100000
100000
100000
100000
1ff800
100400
100200
100200
100200
100200
100400
1ff800
000000
000000
000000
ENDCHAR
STARTCHAR aca3
ENCODING 44195 
SWIDTH 495 0
DWIDTH 18 0
BBX 18 19 0 -1
BITMAP 
000000
000000
1ff800
100400
100200
100200
100200
100400
1ff800
100400
100200
100200
100200
100200
100400
1ff800
000000
000000
000000
ENDCHAR
STARTCHAR aca4
ENCODING 44196 
SWIDTH 495 0
DWIDTH 18 0
BBX 18 19 0 -1
BITMAP 
000000
000000
0ffe00
080000
080000
080000
080000
080000
080000
080000
080000
080000
080000
080000
080000
080000
000000
000000
000000
ENDCHAR
STARTCHAR aca5
ENCODING 44197 
SWIDTH 495 0
DWIDTH 18 0
BBX 18 19 0 -1
BITMAP 
000000
000000
01fc00
010400
010400
020400
020400
020400
040400
040400
040400
080400
080400
080400
100400
7fff80
400080
000000
000000
ENDCHAR
STARTCHAR aca6
ENCODING 44198 
SWIDTH 495 0
DWIDTH 18 0
BBX 18 19 0 -1
BITMAP 
000000
000000
0ffc00
080000
080000
080000
080000
080000
0ff000
080000
080000
080000
080000
080000
080000
0ffc00
000000
000000
000000
ENDCHAR
STARTCHAR aca7
ENCODING 44199 
SWIDTH 495 0
DWIDTH 18 0
BBX 18 19 0 -1
BITMAP 
000000
063000
063000
000000
0ffc00
080000
080000
080000
080000
0ff000
080000
080000
080000
080000
080000
0ffc00
000000
000000
000000
ENDCHAR
STARTCHAR aca8
ENCODING 44200 
SWIDTH 495 0
DWIDTH 18 0
BBX 18 19 0 -1
BITMAP 
000000
000000
408100
208200
108400
088800
049000
02a000
03e000
049000
049000
088800
108400
108400
208200
408100
000000
000000
000000
ENDCHAR
STARTCHAR aca9
ENCODING 44201 
SWIDTH 495 0
DWIDTH 18 0
BBX 18 19 0 -1
BITMAP 
000000
000000
07f800
080400
100200
100200
000200
000400
03f800
000400
000200
000200
100200
100200
080400
07f800
000000
000000
000000
ENDCHAR
STARTCHAR acaa
ENCODING 44202 
SWIDTH 495 0
DWIDTH 18 0
BBX 18 19 0 -1
BITMAP 
000000
000000
100200
100200
100600
100a00
101200
102200
104200
108200
110200
120200
140200
180200
100200
100200
000000
000000
000000
ENDCHAR
STARTCHAR acab
ENCODING 44203 
SWIDTH 495 0
DWIDTH 18 0
BBX 18 19 0 -1
BITMAP 
000000
021000
121200
11e200
100600
100a00
101200
102200
104200
108200
110200
120200
140200
180200
100200
100200
000000
000000
000000
ENDCHAR
STARTCHAR acac
ENCODING 44204 
SWIDTH 495 0
DWIDTH 18 0
BBX 18 19 0 -1
BITMAP 
000000
000000
080400
080800
081000
082000
084000
088000
090000
0a8000
0c4000
082000
081000
080800
080400
080200
000000
000000
000000
ENDCHAR
STARTCHAR acad
ENCODING 44205 
SWIDTH 495 0
DWIDTH 18 0
BBX 18 19 0 -1
BITMAP 
000000
000000
00fc00
008400
008400
010400
010400
010400
020400
020400
020400
040400
040400
040400
080400
300400
000000
000000
000000
ENDCHAR
STARTCHAR acae
ENCODING 44206 
SWIDTH 495 0
DWIDTH 18 0
BBX 18 19 0 -1
BITMAP 
000000
000000
600300
500500
500500
480900
480900
441100
441100
422100
422100
414100
414100
408100
408100
400100
000000
000000
000000
ENDCHAR
STARTCHAR acaf
ENCODING 44207 
SWIDTH 495 0
DWIDTH 18 0
BBX 18 19 0 -1
BITMAP 
000000
000000
100200
100200
100200
100200
100200
100200
1ffe00
100200
100200
100200
100200
100200
100200
100200
000000
000000
000000
ENDCHAR
STARTCHAR acb0
ENCODING 44208 
SWIDTH 495 0
DWIDTH 18 0
BBX 18 19 0 -1
BITMAP 
000000
000000
03f000
040800
080400
100200
100200
100200
100200
100200
100200
100200
100200
080400
040800
03f000
000000
000000
000000
ENDCHAR
STARTCHAR acb1
ENCODING 44209 
SWIDTH 495 0
DWIDTH 18 0
BBX 18 19 0 -1
BITMAP 
000000
000000
0ffc00
080400
080400
080400
080400
080400
080400
080400
080400
080400
080400
080400
080400
080400
000000
000000
000000
ENDCHAR
STARTCHAR acb2
ENCODING 44210 
SWIDTH 495 0
DWIDTH 18 0
BBX 18 19 0 -1
BITMAP 
000000
000000
1ff800
100400
100200
100200
100200
100200
100400
1ff800
100000
100000
100000
100000
100000
100000
000000
000000
000000
ENDCHAR
STARTCHAR acb3
ENCODING 44211 
SWIDTH 495 0
DWIDTH 18 0
BBX 18 19 0 -1
BITMAP 
000000
000000
03f800
040400
080200
100200
100000
100000
100000
100000
100000
100200
100200
080200
040400
03f800
000000
000000
000000
ENDCHAR
STARTCHAR acb4
ENCODING 44212 
SWIDTH 495 0
DWIDTH 18 0
BBX 18 19 0 -1
BITMAP 
000000
000000
3ffe00
008000
008000
008000
008000
008000
008000
008000
008000
008000
008000
008000
008000
008000
000000
000000
000000
ENDCHAR
STARTCHAR acb5
ENCODING 44213 
SWIDTH 495 0
DWIDTH 18 0
BBX 18 19 0 -1
BITMAP 
000000
000000
100100
080200
080200
040400
040400
020800
020800
011000
011000
00a000
004000
008000
010000
0e0000
000000
000000
000000
ENDCHAR
STARTCHAR acb6
ENCODING 44214 
SWIDTH 495 0
DWIDTH 18 0
BBX 18 19 0 -1
BITMAP 
000000
000000
008000
008000
07f000
088800
108400
208200
208200
208200
208200
108400
088800
07f000
008000
008000
000000
000000
000000
ENDCHAR
STARTCHAR acb7
ENCODING 44215 
SWIDTH 495 0
DWIDTH 18 0
BBX 18 19 0 -1
BITMAP 
000000
000000
200200
100400
080800
041000
022000
014000
008000
008000
014000
022000
041000
080800
100400
200200
000000
000000
000000
ENDCHAR
STARTCHAR acb8
ENCODING 44216 
SWIDTH 495 0
DWIDTH 18 0
BBX 18 19 0 -1
BITMAP 
000000
000000
080800
080800
080800
080800
080800
080800
080800
080800
080800
080800
080800
080800
080800
0fff00
000100
000000
000000
ENDCHAR
STARTCHAR acb9
ENCODING 44217 
SWIDTH 495 0
DWIDTH 18 0
BBX 18 19 0 -1
BITMAP 
000000
000000
100400
100400
100400
100400
100400
100400
100400
080c00
07f400
000400
000400
000400
000400
000400
000000
000000
000000
ENDCHAR
STARTCHAR acba
ENCODING 44218 
SWIDTH 495 0
DWIDTH 18 0
BBX 18 19 0 -1
BITMAP 
000000
000000
208200
208200
208200
208200
208200
208200
208200
208200
208200
208200
208200
208200
208200
3ffe00
000000
000000
000000
ENDCHAR
STARTCHAR acbb
ENCODING 44219 
SWIDTH 495 0
DWIDTH 18 0
BBX 18 19 0 -1
BITMAP 
000000
000000
208200
208200
208200
208200
208200
208200
208200
208200
208200
208200
208200
208200
208200
3fff80
000080
000000
000000
ENDCHAR
STARTCHAR acbc
ENCODING 44220 
SWIDTH 495 0
DWIDTH 18 0
BBX 18 19 0 -1
BITMAP 
000000
000000
7c0000
040000
040000
040000
040000
040000
07f800
040400
040200
040200
040200
040200
040400
07f800
000000
000000
000000
ENDCHAR
STARTCHAR acbd
ENCODING 44221 
SWIDTH 495 0
DWIDTH 18 0
BBX 18 19 0 -1
BITMAP 
000000
000000
100200
100200
100200
100200
100200
100200
1fc200
102200
101200
101200
101200
101200
102200
1fc200
000000
000000
000000
ENDCHAR
STARTCHAR acbe
ENCODING 44222 
SWIDTH 495 0
DWIDTH 18 0
BBX 18 19 0 -1
BITMAP 
000000
000000
080000
080000
080000
080000
080000
080000
0ff800
080400
080200
080200
080200
080200
080400
0ff800
000000
000000
000000
ENDCHAR
STARTCHAR acbf
ENCODING 44223 
SWIDTH 495 0
DWIDTH 18 0
BBX 18 19 0 -1
BITMAP 
000000
000000
07f000
080800
100400
100200
000200
000200
03fe00
000200
000200
000200
100200
100400
080800
07f000
000000
000000
000000
ENDCHAR
STARTCHAR acc0
ENCODING 44224 
SWIDTH 495 0
DWIDTH 18 0
BBX 18 19 0 -1
BITMAP 
000000
000000
40fc00
410200
420100
440080
440080
440080
7c0080
440080
440080
440080
440080
420100
410200
40fc00
000000
000000
000000
ENDCHAR
STARTCHAR acc1
ENCODING 44225 
SWIDTH 495 0
DWIDTH 18 0
BBX 18 19 0 -1
BITMAP 
000000
000000
07fc00
080400
100400
100400
100400
100400
080400
07fc00
008400
010400
020400
040400
080400
100400
000000
000000
000000
ENDCHAR
STARTCHAR acd1
ENCODING 44241 
SWIDTH 495 0
DWIDTH 18 0
BBX 18 19 0 -1
BITMAP 
000000
000000
000000
000000
03e000
041000
080800
000800
03f800
040800
080800
080800
080800
080800
041400
03e200
000000
000000
000000
ENDCHAR
STARTCHAR acd2
ENCODING 44242 
SWIDTH 495 0
DWIDTH 18 0
BBX 18 19 0 -1
BITMAP 
000000
000000
001000
03e000
040000
080000
0be000
0c1000
080800
080800
080800
080800
080800
080800
041000
03e000
000000
000000
000000
ENDCHAR
STARTCHAR acd3
ENCODING 44243 
SWIDTH 495 0
DWIDTH 18 0
BBX 18 19 0 -1
BITMAP 
000000
000000
000000
000000
0ff000
080800
080400
080400
080800
0ff000
080800
080400
080400
080400
080800
0ff000
000000
000000
000000
ENDCHAR
STARTCHAR acd4
ENCODING 44244 
SWIDTH 495 0
DWIDTH 18 0
BBX 18 19 0 -1
BITMAP 
000000
000000
000000
000000
0ffc00
080000
080000
080000
080000
080000
080000
080000
080000
080000
080000
080000
000000
000000
000000
ENDCHAR
STARTCHAR acd5
ENCODING 44245 
SWIDTH 495 0
DWIDTH 18 0
BBX 18 19 0 -1
BITMAP 
000000
000000
000000
000000
00fc00
008400
008400
010400
010400
010400
020400
020400
020400
040400
080400
3fff00
200100
000000
000000
ENDCHAR
STARTCHAR acd6
ENCODING 44246 
SWIDTH 495 0
DWIDTH 18 0
BBX 18 19 0 -1
BITMAP 
000000
000000
000000
000000
03f000
040800
080400
080400
080400
0ffc00
080000
080000
080000
080400
040800
03f000
000000
000000
000000
ENDCHAR
STARTCHAR acd7
ENCODING 44247 
SWIDTH 495 0
DWIDTH 18 0
BBX 18 19 0 -1
BITMAP 
000000
033000
033000
000000
03f000
040800
080400
080400
080400
0ffc00
080000
080000
080000
080400
040800
03f000
000000
000000
000000
ENDCHAR
STARTCHAR acd8
ENCODING 44248 
SWIDTH 495 0
DWIDTH 18 0
BBX 18 19 0 -1
BITMAP 
000000
000000
000000
000000
208200
108400
088800
049000
02a000
01c000
02a000
049000
088800
108400
208200
408100
000000
000000
000000
ENDCHAR
STARTCHAR acd9
ENCODING 44249 
SWIDTH 495 0
DWIDTH 18 0
BBX 18 19 0 -1
BITMAP 
000000
000000
000000
000000
03f000
040800
080400
000400
000800
01f000
000800
000400
000400
080400
040800
03f000
000000
000000
000000
ENDCHAR
STARTCHAR acda
ENCODING 44250 
SWIDTH 495 0
DWIDTH 18 0
BBX 18 19 0 -1
BITMAP 
000000
000000
000000
000000
080400
080c00
081400
082400
082400
084400
088400
090400
090400
0a0400
0c0400
080400
000000
000000
000000
ENDCHAR
STARTCHAR acdb
ENCODING 44251 
SWIDTH 495 0
DWIDTH 18 0
BBX 18 19 0 -1
BITMAP 
000000
021000
021000
01e000
080400
080c00
081400
082400
082400
084400
088400
090400
090400
0a0400
0c0400
080400
000000
000000
000000
ENDCHAR
STARTCHAR acdc
ENCODING 44252 
SWIDTH 495 0
DWIDTH 18 0
BBX 18 19 0 -1
BITMAP 
000000
000000
000000
000000
040800
041000
042000
044000
048000
070000
048000
044000
042000
041000
040800
040400
000000
000000
000000
ENDCHAR
STARTCHAR acdd
ENCODING 44253 
SWIDTH 495 0
DWIDTH 18 0
BBX 18 19 0 -1
BITMAP 
000000
000000
000000
000000
00fc00
008400
008400
010400
010400
010400
020400
020400
020400
040400
080400
100400
000000
000000
000000
ENDCHAR
STARTCHAR acde
ENCODING 44254 
SWIDTH 495 0
DWIDTH 18 0
BBX 18 19 0 -1
BITMAP 
000000
000000
000000
000000
300600
280a00
280a00
241200
241200
222200
222200
214200
214200
208200
208200
200200
000000
000000
000000
ENDCHAR
STARTCHAR acdf
ENCODING 44255 
SWIDTH 495 0
DWIDTH 18 0
BBX 18 19 0 -1
BITMAP 
000000
000000
000000
000000
080400
080400
080400
080400
080400
0ffc00
080400
080400
080400
080400
080400
080400
000000
000000
000000
ENDCHAR
STARTCHAR ace0
ENCODING 44256 
SWIDTH 495 0
DWIDTH 18 0
BBX 18 19 0 -1
BITMAP 
000000
000000
000000
000000
03f000
040800
080400
080400
080400
080400
080400
080400
080400
080400
040800
03f000
000000
000000
000000
ENDCHAR
STARTCHAR ace1
ENCODING 44257 
SWIDTH 495 0
DWIDTH 18 0
BBX 18 19 0 -1
BITMAP 
000000
000000
000000
000000
0ffc00
080400
080400
080400
080400
080400
080400
080400
080400
080400
080400
080400
000000
000000
000000
ENDCHAR
STARTCHAR ace2
ENCODING 44258 
SWIDTH 495 0
DWIDTH 18 0
BBX 18 19 0 -1
BITMAP 
000000
000000
000000
000000
0ff000
080800
080400
080400
080400
080400
080400
080800
0ff000
080000
080000
080000
080000
000000
000000
ENDCHAR
STARTCHAR ace3
ENCODING 44259 
SWIDTH 495 0
DWIDTH 18 0
BBX 18 19 0 -1
BITMAP 
000000
000000
000000
000000
03f000
040800
080400
080000
080000
080000
080000
080000
080000
080400
040800
03f000
000000
000000
000000
ENDCHAR
STARTCHAR ace4
ENCODING 44260 
SWIDTH 495 0
DWIDTH 18 0
BBX 18 19 0 -1
BITMAP 
000000
000000
000000
000000
1ffc00
008000
008000
008000
008000
008000
008000
008000
008000
008000
008000
008000
000000
000000
000000
ENDCHAR
STARTCHAR ace5
ENCODING 44261 
SWIDTH 495 0
DWIDTH 18 0
BBX 18 19 0 -1
BITMAP 
000000
000000
000000
000000
100200
080200
040400
040400
020800
010800
011000
009000
006000
002000
004000
004000
078000
000000
000000
ENDCHAR
STARTCHAR ace6
ENCODING 44262 
SWIDTH 495 0
DWIDTH 18 0
BBX 18 19 0 -1
BITMAP 
000000
000000
008000
008000
0eb800
11c400
208200
208200
208200
208200
208200
208200
208200
11c400
0eb800
008000
008000
000000
000000
ENDCHAR
STARTCHAR ace7
ENCODING 44263 
SWIDTH 495 0
DWIDTH 18 0
BBX 18 19 0 -1
BITMAP 
000000
000000
000000
000000
100400
080800
041000
022000
014000
008000
014000
022000
041000
080800
100400
200200
000000
000000
000000
ENDCHAR
STARTCHAR ace8
ENCODING 44264 
SWIDTH 495 0
DWIDTH 18 0
BBX 18 19 0 -1
BITMAP 
000000
000000
000000
000000
080800
080800
080800
080800
080800
080800
080800
080800
080800
080800
080800
0ffe00
000200
000000
000000
ENDCHAR
STARTCHAR ace9
ENCODING 44265 
SWIDTH 495 0
DWIDTH 18 0
BBX 18 19 0 -1
BITMAP 
000000
000000
000000
000000
040800
040800
040800
040800
040800
040800
040800
03f800
000800
000800
000800
000800
000000
000000
000000
ENDCHAR
STARTCHAR acea
ENCODING 44266 
SWIDTH 495 0
DWIDTH 18 0
BBX 18 19 0 -1
BITMAP 
000000
000000
000000
000000
208200
208200
208200
208200
208200
208200
208200
208200
208200
208200
208200
3ffe00
000000
000000
000000
ENDCHAR
STARTCHAR aceb
ENCODING 44267 
SWIDTH 495 0
DWIDTH 18 0
BBX 18 19 0 -1
BITMAP 
000000
000000
000000
000000
208200
208200
208200
208200
208200
208200
208200
208200
208200
208200
208200
3fff80
000080
000000
000000
ENDCHAR
STARTCHAR acec
ENCODING 44268 
SWIDTH 495 0
DWIDTH 18 0
BBX 18 19 0 -1
BITMAP 
000000
000000
000000
000000
3e0000
020000
020000
020000
020000
03f800
020400
020200
020200
020200
020400
03f800
000000
000000
000000
ENDCHAR
STARTCHAR aced
ENCODING 44269 
SWIDTH 495 0
DWIDTH 18 0
BBX 18 19 0 -1
BITMAP 
000000
000000
000000
000000
100200
100200
100200
100200
100200
1fc200
102200
101200
101200
101200
102200
1fc200
000000
000000
000000
ENDCHAR
STARTCHAR acee
ENCODING 44270 
SWIDTH 495 0
DWIDTH 18 0
BBX 18 19 0 -1
BITMAP 
000000
000000
000000
000000
040000
040000
040000
040000
040000
07f000
040800
040400
040400
040400
040800
07f000
000000
000000
000000
ENDCHAR
STARTCHAR acf0
ENCODING 44271 
SWIDTH 495 0
DWIDTH 18 0
BBX 18 19 0 -1
BITMAP 
000000
000000
000000
000000
01e000
021000
040800
080400
000400
01fc00
000400
000400
080400
040800
021000
01e000
000000
000000
000000
ENDCHAR
STARTCHAR acef
ENCODING 44272 
SWIDTH 495 0
DWIDTH 18 0
BBX 18 19 0 -1
BITMAP 
000000
000000
000000
000000
20f800
210400
220200
220200
220200
3e0200
220200
220200
220200
220200
210400
20f800
000000
000000
000000
ENDCHAR
STARTCHAR acf1
ENCODING 44273 
SWIDTH 495 0
DWIDTH 18 0
BBX 18 19 0 -1
BITMAP 
000000
000000
000000
000000
03fc00
040400
080400
080400
080400
040400
03fc00
008400
010400
020400
040400
080400
000000
000000
000000
ENDCHAR
STARTCHAR a8a1
ENCODING 43169 
SWIDTH 495 0
DWIDTH 18 0
BBX 18 19 0 -1
BITMAP 
000000
03ff80
050000
050000
050000
088000
088000
088000
104000
1fff80
104000
202000
202000
202000
401000
401000
401000
000000
000000
ENDCHAR
STARTCHAR a8a2
ENCODING 43170 
SWIDTH 495 0
DWIDTH 18 0
BBX 18 19 0 -1
BITMAP 
000000
0fe000
081000
080800
080400
080400
080400
080400
7f0400
080400
080400
080400
080400
080400
080800
081000
0fe000
000000
000000
ENDCHAR
STARTCHAR a8a3
ENCODING 43171 
SWIDTH 495 0
DWIDTH 18 0
BBX 18 19 0 -1
BITMAP 
000000
000000
000000
01e000
021000
040800
040800
000800
01f800
020800
040800
040800
040800
03fc00
000000
000000
3fff00
000000
000000
ENDCHAR
STARTCHAR a8a4
ENCODING 43172 
SWIDTH 495 0
DWIDTH 18 0
BBX 18 19 0 -1
BITMAP 
000000
1c3800
081000
081000
7ffe00
081000
081000
081000
081000
0ff000
081000
081000
081000
081000
081000
081000
1c3800
000000
000000
ENDCHAR
STARTCHAR a8a6
ENCODING 43174 
SWIDTH 495 0
DWIDTH 18 0
BBX 18 19 0 -1
BITMAP 
000000
383800
101000
101000
101000
101000
101000
101000
101000
101000
101000
101000
101000
3a1000
021000
022000
01c000
000000
000000
ENDCHAR
STARTCHAR a8a8
ENCODING 43176 
SWIDTH 495 0
DWIDTH 18 0
BBX 18 19 0 -1
BITMAP 
000000
700000
200000
200000
200000
200000
200800
201c00
201c00
200800
200000
200000
200800
200800
200800
3ff800
000000
000000
000000
ENDCHAR
STARTCHAR a8a9
ENCODING 43177 
SWIDTH 495 0
DWIDTH 18 0
BBX 18 19 0 -1
BITMAP 
000000
1c0000
080000
090000
0a0000
0c0000
080000
180000
280000
480000
080000
080000
080800
080800
080800
0ff800
000000
000000
000000
ENDCHAR
STARTCHAR a8aa
ENCODING 43178 
SWIDTH 495 0
DWIDTH 18 0
BBX 18 19 0 -1
BITMAP 
000000
000080
07f900
080600
100600
200900
201100
202100
204100
208100
210100
220100
240100
180200
180400
27f800
400000
000000
000000
ENDCHAR
STARTCHAR a8ab
ENCODING 43179 
SWIDTH 495 0
DWIDTH 18 0
BBX 18 19 0 -1
BITMAP 
000000
000000
000000
3f8000
404000
407f80
404000
404000
404000
407f80
404000
404000
404000
407f80
3f8000
000000
000000
000000
000000
ENDCHAR
STARTCHAR a8ac
ENCODING 43180 
SWIDTH 495 0
DWIDTH 18 0
BBX 18 19 0 -1
BITMAP 
000000
000000
01e000
011000
020800
020800
020800
011000
01e000
000000
000000
000000
7fff80
000000
000000
000000
000000
000000
000000
ENDCHAR
STARTCHAR a8ad
ENCODING 43181 
SWIDTH 495 0
DWIDTH 18 0
BBX 18 19 0 -1
BITMAP 
000000
3f0000
0c0000
0c0000
0ff000
0c0800
0c0800
0c0400
0c0400
0c0400
0c0400
0c0800
0c0800
0ff000
0c0000
0c0000
3f0000
000000
000000
ENDCHAR
STARTCHAR a8ae
ENCODING 43182 
SWIDTH 495 0
DWIDTH 18 0
BBX 18 19 0 -1
BITMAP 
000000
1ffe00
10c200
00c000
00c000
00c000
00c000
1ffe00
00c000
00c000
00c000
00c000
00c000
00c000
00c000
00c000
01e000
000000
000000
ENDCHAR
STARTCHAR a8af
ENCODING 43183 
SWIDTH 495 0
DWIDTH 18 0
BBX 18 19 0 -1
BITMAP 
000000
200000
200000
3fe000
201000
200800
200400
200400
200400
200400
200400
200400
200800
201000
3fe000
200000
200000
000000
000000
ENDCHAR
STARTCHAR a8b1
ENCODING 43185 
SWIDTH 495 0
DWIDTH 18 0
BBX 18 19 0 -1
BITMAP 
000000
03f000
0c0c00
100200
200100
27f900
400880
400880
400880
400880
400880
400880
200900
200900
100200
0c0c00
03f000
000000
000000
ENDCHAR
STARTCHAR a8b2
ENCODING 43186 
SWIDTH 495 0
DWIDTH 18 0
BBX 18 19 0 -1
BITMAP 
000000
03f000
0c0c00
100200
200100
240100
440080
440080
440080
440080
440080
440080
240100
27f900
100200
0c0c00
03f000
000000
000000
ENDCHAR
STARTCHAR a8b3
ENCODING 43187 
SWIDTH 495 0
DWIDTH 18 0
BBX 18 19 0 -1
BITMAP 
000000
03f000
0c0c00
100200
200100
27f900
440080
440080
440080
440080
440080
440080
240100
27f900
100200
0c0c00
03f000
000000
000000
ENDCHAR
STARTCHAR a8b4
ENCODING 43188 
SWIDTH 495 0
DWIDTH 18 0
BBX 18 19 0 -1
BITMAP 
000000
03f000
0c0c00
100200
200100
27f900
400880
400880
400880
47f880
440080
440080
240100
27fd00
100200
0c0c00
03f000
000000
000000
ENDCHAR
STARTCHAR a8b5
ENCODING 43189 
SWIDTH 495 0
DWIDTH 18 0
BBX 18 19 0 -1
BITMAP 
000000
03f000
0c0c00
100200
200100
27fd00
440480
440480
440480
440480
440480
440480
240500
27fd00
100200
0c0c00
03f000
000000
000000
ENDCHAR
STARTCHAR a8b6
ENCODING 43190 
SWIDTH 495 0
DWIDTH 18 0
BBX 18 19 0 -1
BITMAP 
000000
03f000
0c0c00
100200
240900
240900
440880
440880
47f880
440880
440880
440880
240900
27f900
100200
0c0c00
03f000
000000
000000
ENDCHAR
STARTCHAR a8b7
ENCODING 43191 
SWIDTH 495 0
DWIDTH 18 0
BBX 18 19 0 -1
BITMAP 
000000
03f000
0c0c00
108200
208100
208100
408080
408080
418080
414080
422080
421080
2c0d00
200100
100200
0c0c00
03f000
000000
000000
ENDCHAR
STARTCHAR a8b8
ENCODING 43192 
SWIDTH 495 0
DWIDTH 18 0
BBX 18 19 0 -1
BITMAP 
000000
03f000
0c0c00
100200
21e100
221100
440880
480480
480480
480480
480480
440880
221100
21e100
100200
0c0c00
03f000
000000
000000
ENDCHAR
STARTCHAR a8b9
ENCODING 43193 
SWIDTH 495 0
DWIDTH 18 0
BBX 18 19 0 -1
BITMAP 
000000
03f000
0c0c00
100200
200100
27fd00
404080
404080
404080
404080
40c080
412080
221100
2c0d00
100200
0c0c00
03f000
000000
000000
ENDCHAR
STARTCHAR a8ba
ENCODING 43194 
SWIDTH 495 0
DWIDTH 18 0
BBX 18 19 0 -1
BITMAP 
000000
07f800
080400
11e200
200100
5ffe80
401080
401080
402080
402080
406080
40a080
411080
220900
1c0600
080400
07f800
000000
000000
ENDCHAR
STARTCHAR a8bb
ENCODING 43195 
SWIDTH 495 0
DWIDTH 18 0
BBX 18 19 0 -1
BITMAP 
000000
03f000
0c0c00
100200
27f900
200900
400880
400880
4ff880
400880
400880
400880
200900
200900
100200
0c0c00
03f000
000000
000000
ENDCHAR
STARTCHAR a8bc
ENCODING 43196 
SWIDTH 495 0
DWIDTH 18 0
BBX 18 19 0 -1
BITMAP 
000000
03f000
0c0c00
100200
200100
27f900
440080
440080
440080
47f880
440080
440080
240100
27f900
100200
0c0c00
03f000
000000
000000
ENDCHAR
STARTCHAR a8bd
ENCODING 43197 
SWIDTH 495 0
DWIDTH 18 0
BBX 18 19 0 -1
BITMAP 
000000
03f000
0c0c00
100200
200100
2ffd00
421080
421080
421080
421080
421080
421080
221100
2ffd00
100200
0c0c00
03f000
000000
000000
ENDCHAR
STARTCHAR a8be
ENCODING 43198 
SWIDTH 495 0
DWIDTH 18 0
BBX 18 19 0 -1
BITMAP 
000000
03f000
0c0c00
100200
21e100
200100
400080
4ffc80
400080
41e080
421080
421080
221100
21e100
100200
0c0c00
03f000
000000
000000
ENDCHAR
STARTCHAR a8bf
ENCODING 43199 
SWIDTH 495 0
DWIDTH 18 0
BBX 18 19 0 -1
BITMAP 
000000
03f000
0c0c00
101200
201100
2f9100
409080
409080
411c80
411080
421080
441080
281100
201100
101200
0c0c00
03f000
000000
000000
ENDCHAR
STARTCHAR a8c0
ENCODING 43200 
SWIDTH 495 0
DWIDTH 18 0
BBX 18 19 0 -1
BITMAP 
000000
03f000
0c0c00
101200
201100
241100
441080
441080
441c80
441080
47f080
401080
201100
201100
101200
0c0c00
03f000
000000
000000
ENDCHAR
STARTCHAR a8c1
ENCODING 43201 
SWIDTH 495 0
DWIDTH 18 0
BBX 18 19 0 -1
BITMAP 
000000
03f000
0c0c00
101200
201100
27f100
441080
441080
441c80
441080
441080
47f080
201100
201100
101200
0c1c00
03f000
000000
000000
ENDCHAR
STARTCHAR a8c2
ENCODING 43202 
SWIDTH 495 0
DWIDTH 18 0
BBX 18 19 0 -1
BITMAP 
000000
03f000
0c0c00
101200
201100
2f9100
409080
409080
4f9c80
481080
481080
4fd080
201100
201100
101200
0c0c00
03f000
000000
000000
ENDCHAR
STARTCHAR a8c3
ENCODING 43203 
SWIDTH 495 0
DWIDTH 18 0
BBX 18 19 0 -1
BITMAP 
000000
03f000
0c0c00
101200
201100
2f9100
489080
489080
489c80
489080
489080
4f9080
201100
201100
101200
0c0c00
03f000
000000
000000
ENDCHAR
STARTCHAR a8c4
ENCODING 43204 
SWIDTH 495 0
DWIDTH 18 0
BBX 18 19 0 -1
BITMAP 
000000
03f000
0c0c00
101200
201100
289100
489080
489080
4f9c80
489080
489080
489080
2f9100
201100
101200
0c0c00
03f000
000000
000000
ENDCHAR
STARTCHAR a8c5
ENCODING 43205 
SWIDTH 495 0
DWIDTH 18 0
BBX 18 19 0 -1
BITMAP 
000000
03f000
0c0c00
101200
221100
221100
421080
421080
461c80
451080
489080
485080
301100
201100
101200
0c0c00
03f000
000000
000000
ENDCHAR
STARTCHAR a8c6
ENCODING 43206 
SWIDTH 495 0
DWIDTH 18 0
BBX 18 19 0 -1
BITMAP 
000000
03f000
0c0c00
101200
201100
271100
489080
489080
489c80
489080
489080
471080
201100
201100
101200
0c0c00
03f000
000000
000000
ENDCHAR
STARTCHAR a8c7
ENCODING 43207 
SWIDTH 495 0
DWIDTH 18 0
BBX 18 19 0 -1
BITMAP 
000000
03f000
0c0c00
101200
201100
2fd100
411080
411080
411c80
431080
429080
445080
285100
201100
101200
0c0c00
03f000
000000
000000
ENDCHAR
STARTCHAR a8c8
ENCODING 43208 
SWIDTH 495 0
DWIDTH 18 0
BBX 18 19 0 -1
BITMAP 
000000
03f000
0c0c00
101200
279100
201100
401080
4fd080
411c80
411080
421080
431080
249100
285100
101200
0c0c00
03f000
000000
000000
ENDCHAR
STARTCHAR a8c9
ENCODING 43209 
SWIDTH 495 0
DWIDTH 18 0
BBX 18 19 0 -1
BITMAP 
000000
03f000
0c0c00
101200
201100
279100
409080
409080
4f9c80
411080
421080
441080
281100
201100
101200
0c0c00
03f000
000000
000000
ENDCHAR
STARTCHAR a8ca
ENCODING 43210 
SWIDTH 495 0
DWIDTH 18 0
BBX 18 19 0 -1
BITMAP 
000000
03f000
0c0c00
101200
201100
27d100
441080
441080
479c80
441080
441080
47d080
201100
201100
101200
0c0c00
03f000
000000
000000
ENDCHAR
STARTCHAR a8cb
ENCODING 43211 
SWIDTH 495 0
DWIDTH 18 0
BBX 18 19 0 -1
BITMAP 
000000
03f000
0c0c00
101200
201100
2fd100
449080
449080
449c80
449080
449080
5fd080
201100
201100
101200
0c0c00
03f000
000000
000000
ENDCHAR
STARTCHAR a8cc
ENCODING 43212 
SWIDTH 495 0
DWIDTH 18 0
BBX 18 19 0 -1
BITMAP 
000000
03f000
0c1800
101200
279100
201100
401080
4fd080
401c80
479080
485080
485080
249100
231100
101200
0c0c00
03f000
000000
000000
ENDCHAR
STARTCHAR a8cd
ENCODING 43213 
SWIDTH 495 0
DWIDTH 18 0
BBX 18 19 0 -1
BITMAP 
000000
03f000
0c1800
100200
27e100
201100
400880
41f880
420880
440880
440880
440880
240900
23f900
100600
0c0c00
03f000
000000
000000
ENDCHAR
STARTCHAR a8ce
ENCODING 43214 
SWIDTH 495 0
DWIDTH 18 0
BBX 18 19 0 -1
BITMAP 
000000
03f000
0c0c00
120200
220100
220100
420080
420080
43e080
421880
420880
420880
220900
221100
13e200
0c0c00
03f000
000000
000000
ENDCHAR
STARTCHAR a8cf
ENCODING 43215 
SWIDTH 495 0
DWIDTH 18 0
BBX 18 19 0 -1
BITMAP 
000000
03f000
0c0c00
100200
200100
21e100
421080
440080
440080
440080
440080
440080
221100
21e100
100200
0c0c00
03f000
000000
000000
ENDCHAR
STARTCHAR a8d0
ENCODING 43216 
SWIDTH 495 0
DWIDTH 18 0
BBX 18 19 0 -1
BITMAP 
000000
03f000
0c0c00
101200
201100
201100
401080
401080
41f080
421080
441080
441080
241100
221100
11f200
0c0c00
03f000
000000
000000
ENDCHAR
STARTCHAR a8d1
ENCODING 43217 
SWIDTH 495 0
DWIDTH 18 0
BBX 18 19 0 -1
BITMAP 
000000
03f000
0c0c00
100200
21e100
221100
440880
440880
47f880
440080
440080
440080
220900
21f100
100200
0c0c00
03f000
000000
000000
ENDCHAR
STARTCHAR a8d2
ENCODING 43218 
SWIDTH 495 0
DWIDTH 18 0
BBX 18 19 0 -1
BITMAP 
000000
03f000
0c0c00
11c200
211100
210100
410080
410080
47c080
410080
410080
410080
210100
210100
110200
0c0c00
03f000
000000
000000
ENDCHAR
STARTCHAR a8d3
ENCODING 43219 
SWIDTH 495 0
DWIDTH 18 0
BBX 18 19 0 -1
BITMAP 
000000
03f000
0c0c00
100a00
21d100
222100
422080
43c080
408080
410080
43f080
440880
240900
240900
13f200
0c0c00
03f000
000000
000000
ENDCHAR
STARTCHAR a8d4
ENCODING 43220 
SWIDTH 495 0
DWIDTH 18 0
BBX 18 19 0 -1
BITMAP 
000000
03f000
0c0c00
120200
220100
220100
420080
420080
42e080
431080
421080
421080
221100
221100
121200
0c1800
03f000
000000
000000
ENDCHAR
STARTCHAR a8d5
ENCODING 43221 
SWIDTH 495 0
DWIDTH 18 0
BBX 18 19 0 -1
BITMAP 
000000
03f000
0c0c00
100200
208100
200100
400080
408080
408080
408080
408080
408080
208100
208100
108200
0c0c00
03f000
000000
000000
ENDCHAR
STARTCHAR a8d6
ENCODING 43222 
SWIDTH 495 0
DWIDTH 18 0
BBX 18 19 0 -1
BITMAP 
000000
03f000
0c0c00
100200
204100
200100
400080
404080
404080
404080
404080
404080
204100
224100
118200
0c0c00
03f000
000000
000000
ENDCHAR
STARTCHAR a8d7
ENCODING 43223 
SWIDTH 495 0
DWIDTH 18 0
BBX 18 19 0 -1
BITMAP 
000000
03f000
0c0c00
120200
220100
220100
420080
420880
421080
422080
424080
42c080
232100
221100
120a00
0c0c00
03f000
000000
000000
ENDCHAR
STARTCHAR a8d8
ENCODING 43224 
SWIDTH 495 0
DWIDTH 18 0
BBX 18 19 0 -1
BITMAP 
000000
03f000
0c1800
108200
208100
208100
408080
408080
408080
408080
408080
408080
208100
108100
108200
0c1800
03f000
000000
000000
ENDCHAR
STARTCHAR a8d9
ENCODING 43225 
SWIDTH 495 0
DWIDTH 18 0
BBX 18 19 0 -1
BITMAP 
000000
03f000
0c1800
100200
200100
2bf900
4cc880
488880
488880
488880
488880
488880
288900
288900
100200
0c0c00
03f000
000000
000000
ENDCHAR
STARTCHAR a8da
ENCODING 43226 
SWIDTH 495 0
DWIDTH 18 0
BBX 18 19 0 -1
BITMAP 
000000
03f000
0c0c00
100200
22e100
231100
421080
421080
421080
421080
421080
421080
221100
221100
100200
0c1800
03f000
000000
000000
ENDCHAR
STARTCHAR a8db
ENCODING 43227 
SWIDTH 495 0
DWIDTH 18 0
BBX 18 19 0 -1
BITMAP 
000000
03f000
0c0c00
100200
21f100
221100
440880
440880
440880
440880
440880
440880
221100
21e100
100200
0c0c00
03f000
000000
000000
ENDCHAR
STARTCHAR a8dc
ENCODING 43228 
SWIDTH 495 0
DWIDTH 18 0
BBX 18 19 0 -1
BITMAP 
000000
03f000
0c0c00
100200
27e100
241100
440900
440900
440900
441100
47e100
440080
240100
240100
140200
0c0c00
03f000
000000
000000
ENDCHAR
STARTCHAR a8dd
ENCODING 43229 
SWIDTH 495 0
DWIDTH 18 0
BBX 18 19 0 -1
BITMAP 
000000
03f000
0c0c00
100200
21f100
221100
441080
441080
441080
421080
41f080
401080
201100
201100
101200
0c0c00
03f000
000000
000000
ENDCHAR
STARTCHAR a8de
ENCODING 43230 
SWIDTH 495 0
DWIDTH 18 0
BBX 18 19 0 -1
BITMAP 
000000
03f000
0c0c00
100200
22e100
231100
420880
420080
420080
420080
420080
420080
220100
220100
100200
0c0c00
03f000
000000
000000
ENDCHAR
STARTCHAR a8df
ENCODING 43231 
SWIDTH 495 0
DWIDTH 18 0
BBX 18 19 0 -1
BITMAP 
000000
03f000
0c0c00
100200
21e100
221100
420080
420080
41e080
401080
401080
441080
23e100
200100
100200
0c0c00
03f000
000000
000000
ENDCHAR
STARTCHAR a8e0
ENCODING 43232 
SWIDTH 495 0
DWIDTH 18 0
BBX 18 19 0 -1
BITMAP 
000000
03f000
0c0c00
108200
208100
208100
43e080
408080
408080
408080
408080
408080
208100
209100
106200
0c0c00
03f000
000000
000000
ENDCHAR
STARTCHAR a8e1
ENCODING 43233 
SWIDTH 495 0
DWIDTH 18 0
BBX 18 19 0 -1
BITMAP 
000000
03f000
0c0c00
100200
241100
241100
441080
441080
441080
441080
441080
441080
223100
21d100
100200
0c0c00
03f000
000000
000000
ENDCHAR
STARTCHAR a8e2
ENCODING 43234 
SWIDTH 495 0
DWIDTH 18 0
BBX 18 19 0 -1
BITMAP 
000000
03f000
0c0c00
100200
200100
280900
480880
441080
441080
422080
422080
414080
214100
208100
108200
0c0c00
03f000
000000
000000
ENDCHAR
STARTCHAR a8e3
ENCODING 43235 
SWIDTH 495 0
DWIDTH 18 0
BBX 18 19 0 -1
BITMAP 
000000
03f000
0c0c00
100200
200100
288900
488880
488880
488880
455080
455080
455080
222100
222100
100200
0c0c00
03f000
000000
000000
ENDCHAR
STARTCHAR a8e4
ENCODING 43236 
SWIDTH 495 0
DWIDTH 18 0
BBX 18 19 0 -1
BITMAP 
000000
03f000
0c0c00
100200
200100
240500
420880
411080
40a080
404080
40a080
411080
220900
240500
100200
0c0c00
03f000
000000
000000
ENDCHAR
STARTCHAR a8e5
ENCODING 43237 
SWIDTH 495 0
DWIDTH 18 0
BBX 18 19 0 -1
BITMAP 
000000
03f000
0c0c00
100200
240900
240900
421080
421080
412080
40c080
404080
408080
210100
220100
140200
0c0c00
03f000
000000
000000
ENDCHAR
STARTCHAR a8e6
ENCODING 43238 
SWIDTH 495 0
DWIDTH 18 0
BBX 18 19 0 -1
BITMAP 
000000
03f000
0c0c00
100200
200100
2ff900
401080
402080
404080
408080
410080
420080
240100
2ff900
100200
0c0c00
03f000
000000
000000
ENDCHAR
STARTCHAR a8e7
ENCODING 43239 
SWIDTH 495 0
DWIDTH 18 0
BBX 18 19 0 -1
BITMAP 
000000
03f000
0c0c00
10c200
214100
204100
404080
404080
404080
404080
404080
404080
204100
204100
10e200
0c0c00
03f000
000000
000000
ENDCHAR
STARTCHAR a8e8
ENCODING 43240 
SWIDTH 495 0
DWIDTH 18 0
BBX 18 19 0 -1
BITMAP 
000000
03f000
0c0c00
100200
20e100
211100
421080
401080
402080
404080
408080
410080
220100
27f900
100200
0c0c00
03f000
000000
000000
ENDCHAR
STARTCHAR a8e9
ENCODING 43241 
SWIDTH 495 0
DWIDTH 18 0
BBX 18 19 0 -1
BITMAP 
000000
03f000
0c0c00
100200
21f100
220900
420880
400880
407080
401080
400880
420880
220900
21f100
100200
0c0c00
03f000
000000
000000
ENDCHAR
STARTCHAR a8ea
ENCODING 43242 
SWIDTH 495 0
DWIDTH 18 0
BBX 18 19 0 -1
BITMAP 
000000
03f000
0c0c00
100200
202100
206100
40a080
412080
422080
442080
4ffc80
402080
202100
202100
102200
0c0c00
03f000
000000
000000
ENDCHAR
STARTCHAR a8eb
ENCODING 43243 
SWIDTH 495 0
DWIDTH 18 0
BBX 18 19 0 -1
BITMAP 
000000
03f000
0c0c00
100200
23f100
220100
220080
220080
23e080
201080
201080
201080
221100
21e100
100200
0c0c00
03f000
000000
000000
ENDCHAR
STARTCHAR a8ec
ENCODING 43244 
SWIDTH 495 0
DWIDTH 18 0
BBX 18 19 0 -1
BITMAP 
000000
03f000
0c0c00
100200
20f100
210900
420880
420080
420080
43f080
420880
420880
220900
21f100
100200
0c0c00
03f000
000000
000000
ENDCHAR
STARTCHAR a8ed
ENCODING 43245 
SWIDTH 495 0
DWIDTH 18 0
BBX 18 19 0 -1
BITMAP 
000000
03f000
0c0c00
100200
27f100
241100
401080
401080
401080
401080
402080
402080
202100
202100
102200
0c0c00
03f000
000000
000000
ENDCHAR
STARTCHAR a8ee
ENCODING 43246 
SWIDTH 495 0
DWIDTH 18 0
BBX 18 19 0 -1
BITMAP 
000000
03f000
0c0c00
100200
20e100
211100
411080
411080
40e080
411080
420880
420880
220900
21f100
100200
0c0c00
03f000
000000
000000
ENDCHAR
STARTCHAR a8ef
ENCODING 43247 
SWIDTH 495 0
DWIDTH 18 0
BBX 18 19 0 -1
BITMAP 
000000
03f000
0c0c00
100200
21e100
221100
421080
421080
421080
41f080
401080
401080
221100
21e100
100200
0c0c00
03f000
000000
000000
ENDCHAR
STARTCHAR a8f0
ENCODING 43248 
SWIDTH 495 0
DWIDTH 18 0
BBX 18 19 0 -1
BITMAP 
000000
03f000
0c0c00
100200
240100
247100
448880
448880
448880
448880
448880
448880
248900
247100
140200
0c0c00
03f000
000000
000000
ENDCHAR
STARTCHAR a8f1
ENCODING 43249 
SWIDTH 495 0
DWIDTH 18 0
BBX 18 19 0 -1
BITMAP 
000000
03f000
0c0c00
100200
241100
241100
441080
441080
441080
441080
441080
441080
241100
241100
141200
0c0c00
03f000
000000
000000
ENDCHAR
STARTCHAR a8f2
ENCODING 43250 
SWIDTH 495 0
DWIDTH 18 0
BBX 18 19 0 -1
BITMAP 
000000
03f000
0c0c00
100200
247100
248900
448880
448880
441080
442080
444080
444080
248100
24fd00
100200
0c0c00
03f000
000000
000000
ENDCHAR
STARTCHAR a8f3
ENCODING 43251 
SWIDTH 495 0
DWIDTH 18 0
BBX 18 19 0 -1
BITMAP 
000000
03f000
0c0c00
100200
247100
248900
440880
440880
443080
440880
440880
440880
248900
247100
100200
0c0c00
03f000
000000
000000
ENDCHAR
STARTCHAR a8f4
ENCODING 43252 
SWIDTH 495 0
DWIDTH 18 0
BBX 18 19 0 -1
BITMAP 
000000
03f000
0c0c00
100200
241100
243100
445080
445080
449080
449080
44fc80
441080
241100
241100
100200
0c0c00
03f000
000000
000000
ENDCHAR
STARTCHAR a8f5
ENCODING 43253 
SWIDTH 495 0
DWIDTH 18 0
BBX 18 19 0 -1
BITMAP 
000000
03f000
0c0c00
100200
24f900
248100
448080
448080
44f080
440880
440880
440880
448900
247100
100200
0c0c00
03f000
000000
000000
ENDCHAR
STARTCHAR a8f6
ENCODING 43254 
SWIDTH 495 0
DWIDTH 18 0
BBX 18 19 0 -1
BITMAP 
000000
002000
002000
104700
104880
104880
108080
108080
108100
110200
110400
110800
120800
121000
121f80
140000
040000
000000
000000
ENDCHAR
STARTCHAR a8f7
ENCODING 43255 
SWIDTH 495 0
DWIDTH 18 0
BBX 18 19 0 -1
BITMAP 
000000
002000
002000
104000
104f00
10d080
109080
108080
118100
110f00
110100
130080
120080
121080
121080
140f00
040000
000000
000000
ENDCHAR
STARTCHAR a8f8
ENCODING 43256 
SWIDTH 495 0
DWIDTH 18 0
BBX 18 19 0 -1
BITMAP 
000000
001000
001000
3c2700
422880
426080
024080
024080
04c700
088100
108080
218080
210080
410880
7d0700
020000
020000
000000
000000
ENDCHAR
STARTCHAR a8f9
ENCODING 43257 
SWIDTH 495 0
DWIDTH 18 0
BBX 18 19 0 -1
BITMAP 
000000
002000
002000
104200
104600
10c600
108a00
108a00
119200
111200
112200
133f80
120200
120200
120200
140200
040000
000000
000000
ENDCHAR
STARTCHAR a8fa
ENCODING 43258 
SWIDTH 495 0
DWIDTH 18 0
BBX 18 19 0 -1
BITMAP 
000000
001000
001000
382200
442600
046600
044a00
044a00
38d200
089200
04a200
05bf80
050200
450200
390200
020200
020000
000000
000000
ENDCHAR
STARTCHAR a8fb
ENCODING 43259 
SWIDTH 495 0
DWIDTH 18 0
BBX 18 19 0 -1
BITMAP 
000000
002000
002000
104f00
105080
10d080
109080
108900
118600
110900
111080
131080
121080
121080
120f00
140000
040000
000000
000000
ENDCHAR
STARTCHAR a8fc
ENCODING 43260 
SWIDTH 495 0
DWIDTH 18 0
BBX 18 19 0 -1
BITMAP 
000000
002000
002000
384f00
445080
045080
04d080
048900
388600
088900
059080
051080
051080
451080
3b0f00
020000
020000
000000
000000
ENDCHAR
STARTCHAR a8fd
ENCODING 43261 
SWIDTH 495 0
DWIDTH 18 0
BBX 18 19 0 -1
BITMAP 
000000
002000
002000
7e4700
405080
405080
40d080
408900
788600
0c8900
059080
051080
051080
451080
390f00
020000
020000
000000
000000
ENDCHAR
STARTCHAR a8fe
ENCODING 43262 
SWIDTH 495 0
DWIDTH 18 0
BBX 18 19 0 -1
BITMAP 
000000
002000
002000
7e4f00
425080
025080
02d080
068900
048600
048900
099080
091080
091080
091080
090f00
020000
020000
000000
000000
ENDCHAR
STARTCHAR a9a1
ENCODING 43425 
SWIDTH 495 0
DWIDTH 18 0
BBX 18 19 0 -1
BITMAP 
000000
000000
000000
3e1f00
412080
40c080
008080
1fff80
208000
208000
208000
208000
20c080
1f3f00
000000
000000
000000
000000
000000
ENDCHAR
STARTCHAR a9a2
ENCODING 43426 
SWIDTH 495 0
DWIDTH 18 0
BBX 18 19 0 -1
BITMAP 
000000
001000
001000
001000
001000
001000
001000
001000
1ffc00
001000
03d000
043000
081000
081000
081000
043000
03d000
000000
000000
ENDCHAR
STARTCHAR a9a3
ENCODING 43427 
SWIDTH 495 0
DWIDTH 18 0
BBX 18 19 0 -1
BITMAP 
000000
000800
001000
01f000
022800
044400
000400
000400
000400
07fc00
040400
040400
040400
020800
01f000
000000
000000
000000
000000
ENDCHAR
STARTCHAR a9a4
ENCODING 43428 
SWIDTH 495 0
DWIDTH 18 0
BBX 18 19 0 -1
BITMAP 
000000
020000
020000
020000
020000
020000
0ffc00
020000
020000
02f000
030800
020800
020800
020800
020800
020800
020800
000000
000000
ENDCHAR
STARTCHAR a9a5
ENCODING 43429 
SWIDTH 495 0
DWIDTH 18 0
BBX 18 19 0 -1
BITMAP 
000000
000000
000000
000000
004000
00c000
014000
004000
004000
004000
004000
004000
00e000
000000
000000
000000
000000
000000
000000
ENDCHAR
STARTCHAR a9a6
ENCODING 43430 
SWIDTH 495 0
DWIDTH 18 0
BBX 18 19 0 -1
BITMAP 
000000
000000
081000
000000
000000
081000
081000
081000
081000
081000
081000
081000
081000
081000
001000
009000
006000
000000
000000
ENDCHAR
STARTCHAR a9a7
ENCODING 43431 
SWIDTH 495 0
DWIDTH 18 0
BBX 18 19 0 -1
BITMAP 
000000
000000
000000
000000
041000
042000
044000
048000
070000
050000
048000
044000
042000
041000
000000
000000
000000
000000
000000
ENDCHAR
STARTCHAR a9a8
ENCODING 43432 
SWIDTH 495 0
DWIDTH 18 0
BBX 18 19 0 -1
BITMAP 
000000
008000
018000
008000
008000
008000
008000
008000
009800
008000
008000
008000
008000
008000
008000
008000
01c000
000000
000000
ENDCHAR
STARTCHAR a9a9
ENCODING 43433 
SWIDTH 495 0
DWIDTH 18 0
BBX 18 19 0 -1
BITMAP 
000000
008000
018000
008000
008000
009000
00a000
00c000
008000
018000
028000
048000
008000
008000
008000
008000
01c000
000000
000000
ENDCHAR
STARTCHAR a9aa
ENCODING 43434 
SWIDTH 495 0
DWIDTH 18 0
BBX 18 19 0 -1
BITMAP 
000000
000000
000080
000100
03f200
040c00
080c00
081400
082400
084400
088400
090400
060800
07f000
080000
100000
200000
000000
000000
ENDCHAR
STARTCHAR a9ab
ENCODING 43435 
SWIDTH 495 0
DWIDTH 18 0
BBX 18 19 0 -1
BITMAP 
000000
000000
000000
1f1f00
20a080
404080
404080
407f80
404000
404000
404000
404000
20c080
1f3f00
000000
000000
000000
000000
000000
ENDCHAR
STARTCHAR a9ac
ENCODING 43436 
SWIDTH 495 0
DWIDTH 18 0
BBX 18 19 0 -1
BITMAP 
000000
004000
006000
009000
009000
009000
012000
014000
012000
021000
020800
020800
020800
05f000
040000
040000
040000
000000
000000
ENDCHAR
STARTCHAR a9ad
ENCODING 43437 
SWIDTH 495 0
DWIDTH 18 0
BBX 18 19 0 -1
BITMAP 
000000
000000
000000
070000
020000
03f000
020800
020400
020400
020400
020400
020800
03f000
020000
070000
000000
000000
000000
000000
ENDCHAR
STARTCHAR a9ae
ENCODING 43438 
SWIDTH 495 0
DWIDTH 18 0
BBX 18 19 0 -1
BITMAP 
000000
012000
014000
018000
010000
030000
050000
090000
010000
07c000
010000
010000
010000
010000
010000
012000
00c000
000000
000000
ENDCHAR
STARTCHAR a9af
ENCODING 43439 
SWIDTH 495 0
DWIDTH 18 0
BBX 18 19 0 -1
BITMAP 
000000
02e000
031000
020800
020800
020800
020800
020800
020800
070800
000800
000800
000800
000800
000800
008800
007000
000000
000000
ENDCHAR
STARTCHAR a9b0
ENCODING 43440 
SWIDTH 495 0
DWIDTH 18 0
BBX 18 19 0 -1
BITMAP 
000000
000000
000000
02f000
030800
020800
020800
020800
020800
020800
020800
020800
070800
000000
000000
000000
000000
000000
000000
ENDCHAR
STARTCHAR a9b1
ENCODING 43441 
SWIDTH 495 0
DWIDTH 18 0
BBX 18 19 0 -1
BITMAP 
000000
100200
200100
27f900
200900
400880
400880
400880
400880
400880
400880
400880
400880
200900
200900
200100
100200
000000
000000
ENDCHAR
STARTCHAR a9b2
ENCODING 43442 
SWIDTH 495 0
DWIDTH 18 0
BBX 18 19 0 -1
BITMAP 
000000
100200
200100
240100
240100
440080
440080
440080
440080
440080
440080
440080
440080
240100
27f900
200100
100200
000000
000000
ENDCHAR
STARTCHAR a9b3
ENCODING 43443 
SWIDTH 495 0
DWIDTH 18 0
BBX 18 19 0 -1
BITMAP 
000000
100200
200100
27f900
240100
440080
440080
440080
440080
440080
440080
440080
440080
240100
27f900
200100
100200
000000
000000
ENDCHAR
STARTCHAR a9b4
ENCODING 43444 
SWIDTH 495 0
DWIDTH 18 0
BBX 18 19 0 -1
BITMAP 
000000
100200
200100
27f900
200900
400880
400880
400880
47f880
440080
440080
440080
440080
240100
27f900
200100
100200
000000
000000
ENDCHAR
STARTCHAR a9b5
ENCODING 43445 
SWIDTH 495 0
DWIDTH 18 0
BBX 18 19 0 -1
BITMAP 
000000
100200
200100
27f900
240900
440900
440900
440900
440900
440900
440900
440900
440900
240900
27f900
200100
100200
000000
000000
ENDCHAR
STARTCHAR a9b6
ENCODING 43446 
SWIDTH 495 0
DWIDTH 18 0
BBX 18 19 0 -1
BITMAP 
000000
100200
200100
240900
240900
440880
440880
440880
47f880
440880
440880
440880
440880
240900
27f900
200100
100200
000000
000000
ENDCHAR
STARTCHAR a9b7
ENCODING 43447 
SWIDTH 495 0
DWIDTH 18 0
BBX 18 19 0 -1
BITMAP 
000000
100200
200100
204100
204100
404080
404080
404080
408080
40c080
412080
412080
421080
220900
240500
200100
100200
000000
000000
ENDCHAR
STARTCHAR a9b8
ENCODING 43448 
SWIDTH 495 0
DWIDTH 18 0
BBX 18 19 0 -1
BITMAP 
000000
100200
200100
21e100
421100
440880
440880
440880
440880
440880
440880
440880
421080
21e100
200100
200100
100200
000000
000000
ENDCHAR
STARTCHAR a9b9
ENCODING 43449 
SWIDTH 495 0
DWIDTH 18 0
BBX 18 19 0 -1
BITMAP 
000000
100200
200100
2ffd00
204100
404080
404080
404080
404080
408080
40c080
412080
421080
240900
280500
200100
100200
000000
000000
ENDCHAR
STARTCHAR a9ba
ENCODING 43450 
SWIDTH 495 0
DWIDTH 18 0
BBX 18 19 0 -1
BITMAP 
000000
100200
23e100
200100
200100
4ffc80
404080
404080
404080
404080
408080
40c080
412080
221100
240900
200100
100200
000000
000000
ENDCHAR
STARTCHAR a9bb
ENCODING 43451 
SWIDTH 495 0
DWIDTH 18 0
BBX 18 19 0 -1
BITMAP 
000000
100200
200100
27f900
200900
400880
400880
400880
47f880
400880
400880
400880
400880
200900
200100
200100
100200
000000
000000
ENDCHAR
STARTCHAR a9bc
ENCODING 43452 
SWIDTH 495 0
DWIDTH 18 0
BBX 18 19 0 -1
BITMAP 
000000
100200
200100
27f900
240100
440080
440080
440080
47f880
440080
440080
440080
440080
240100
27f900
200100
100200
000000
000000
ENDCHAR
STARTCHAR a9bd
ENCODING 43453 
SWIDTH 495 0
DWIDTH 18 0
BBX 18 19 0 -1
BITMAP 
000000
100200
200100
2ffd00
221100
421080
421080
421080
421080
421080
421080
421080
421080
2ffd00
200100
200100
100200
000000
000000
ENDCHAR
STARTCHAR a9be
ENCODING 43454 
SWIDTH 495 0
DWIDTH 18 0
BBX 18 19 0 -1
BITMAP 
000000
100200
23f100
200100
200100
4ffc80
400080
400080
41e080
421080
440880
440880
440880
221100
21e100
200100
100200
000000
000000
ENDCHAR
STARTCHAR a9bf
ENCODING 43455 
SWIDTH 495 0
DWIDTH 18 0
BBX 18 19 0 -1
BITMAP 
000000
100200
201100
201100
2f9100
409080
409080
409080
409c80
411080
411080
421080
441080
281100
201100
201100
100200
000000
000000
ENDCHAR
STARTCHAR a9c0
ENCODING 43456 
SWIDTH 495 0
DWIDTH 18 0
BBX 18 19 0 -1
BITMAP 
000000
100200
200900
200900
240900
440880
440880
440880
440e80
440880
47f880
400880
400880
200900
200900
200900
100200
000000
000000
ENDCHAR
STARTCHAR a9c1
ENCODING 43457 
SWIDTH 495 0
DWIDTH 18 0
BBX 18 19 0 -1
BITMAP 
000000
100200
200900
200900
27e900
440880
440880
440880
440e80
440880
440880
47e880
400880
200900
200900
200900
100200
000000
000000
ENDCHAR
STARTCHAR a9c2
ENCODING 43458 
SWIDTH 495 0
DWIDTH 18 0
BBX 18 19 0 -1
BITMAP 
000000
100200
200900
200900
27c900
404880
404880
404880
47ce80
440880
440880
440880
47e880
200900
200900
200900
100200
000000
000000
ENDCHAR
STARTCHAR a9c3
ENCODING 43459 
SWIDTH 495 0
DWIDTH 18 0
BBX 18 19 0 -1
BITMAP 
000000
100200
200900
200900
27c900
444880
444880
444880
444e80
444880
444880
47c880
400880
200900
200900
200900
100200
000000
000000
ENDCHAR
STARTCHAR a9c4
ENCODING 43460 
SWIDTH 495 0
DWIDTH 18 0
BBX 18 19 0 -1
BITMAP 
000000
100200
200900
200900
244900
444880
444880
444880
47ce80
444880
444880
444880
47c880
200900
200900
200900
100200
000000
000000
ENDCHAR
STARTCHAR a9c5
ENCODING 43461 
SWIDTH 495 0
DWIDTH 18 0
BBX 18 19 0 -1
BITMAP 
000000
100200
200900
200900
210900
410880
410880
410880
420e80
430880
448880
484880
400880
200900
200900
200900
100200
000000
000000
ENDCHAR
STARTCHAR a9c6
ENCODING 43462 
SWIDTH 495 0
DWIDTH 18 0
BBX 18 19 0 -1
BITMAP 
000000
100200
200100
200900
200900
410880
428880
444880
444e80
444880
428880
410880
200880
200900
200900
200900
100200
000000
000000
ENDCHAR
STARTCHAR a9c7
ENCODING 43463 
SWIDTH 495 0
DWIDTH 18 0
BBX 18 19 0 -1
BITMAP 
000000
100200
201100
201100
201100
479080
409080
409080
411e80
431080
449080
485080
401080
201100
201100
201100
100200
000000
000000
ENDCHAR
STARTCHAR a9c8
ENCODING 43464 
SWIDTH 495 0
DWIDTH 18 0
BBX 18 19 0 -1
BITMAP 
000000
100200
202100
241100
231100
401080
4f9080
409080
411e80
411080
421080
451080
491080
201100
201100
201100
100200
000000
000000
ENDCHAR
STARTCHAR a9c9
ENCODING 43465 
SWIDTH 495 0
DWIDTH 18 0
BBX 18 19 0 -1
BITMAP 
000000
100200
201100
201100
201100
4f9080
409080
409080
4f9e80
409080
411080
421080
441080
281100
201100
201100
100200
000000
000000
ENDCHAR
STARTCHAR a9ca
ENCODING 43466 
SWIDTH 495 0
DWIDTH 18 0
BBX 18 19 0 -1
BITMAP 
000000
100200
201100
201100
201100
479080
401080
401080
479e80
441080
441080
441080
449080
271100
201100
201100
100200
000000
000000
ENDCHAR
STARTCHAR a9cb
ENCODING 43467 
SWIDTH 495 0
DWIDTH 18 0
BBX 18 19 0 -1
BITMAP 
000000
100200
201100
201100
201100
4f9080
401080
401080
491e80
449080
449080
451080
4f9080
201100
201100
201100
100200
000000
000000
ENDCHAR
STARTCHAR a9cc
ENCODING 43468 
SWIDTH 495 0
DWIDTH 18 0
BBX 18 19 0 -1
BITMAP 
000000
100200
201100
201100
271100
401080
401080
4f9080
401e80
401080
421080
451080
489080
251100
221100
201100
100200
000000
000000
ENDCHAR
STARTCHAR a9cd
ENCODING 43469 
SWIDTH 495 0
DWIDTH 18 0
BBX 18 19 0 -1
BITMAP 
000000
100200
200100
200100
200100
400080
43e080
402080
401080
43f080
421080
421080
421080
21d900
200100
200100
100200
000000
000000
ENDCHAR
STARTCHAR a9ce
ENCODING 43470 
SWIDTH 495 0
DWIDTH 18 0
BBX 18 19 0 -1
BITMAP 
000000
100200
220100
220100
220100
420080
420080
420080
42e080
431080
421080
421080
421080
231100
22e100
200100
100200
000000
000000
ENDCHAR
STARTCHAR a9cf
ENCODING 43471 
SWIDTH 495 0
DWIDTH 18 0
BBX 18 19 0 -1
BITMAP 
000000
100200
200100
200100
200100
400080
41e080
421080
420080
420080
420080
420080
421080
221100
21e100
200100
100200
000000
000000
ENDCHAR
STARTCHAR a9d0
ENCODING 43472 
SWIDTH 495 0
DWIDTH 18 0
BBX 18 19 0 -1
BITMAP 
000000
100200
201100
201100
201100
401080
401080
401080
401080
41d080
423080
421080
421080
221100
223100
21d100
100200
000000
000000
ENDCHAR
STARTCHAR a9d1
ENCODING 43473 
SWIDTH 495 0
DWIDTH 18 0
BBX 18 19 0 -1
BITMAP 
000000
100200
200100
200100
200100
400080
41e080
421080
420880
43f880
420080
420080
420080
221100
21e100
200100
100200
000000
000000
ENDCHAR
STARTCHAR a9d2
ENCODING 43474 
SWIDTH 495 0
DWIDTH 18 0
BBX 18 19 0 -1
BITMAP 
000000
100200
21c100
222100
222100
422080
420080
420080
4fe080
420080
420080
420080
420080
220100
220100
220100
100200
000000
000000
ENDCHAR
STARTCHAR a9d3
ENCODING 43475 
SWIDTH 495 0
DWIDTH 18 0
BBX 18 19 0 -1
BITMAP 
000000
100200
201100
20e100
211100
420880
411080
40e080
40c080
408080
43f080
460880
440480
240500
220900
21f100
100200
000000
000000
ENDCHAR
STARTCHAR a9d4
ENCODING 43476 
SWIDTH 495 0
DWIDTH 18 0
BBX 18 19 0 -1
BITMAP 
000000
120200
220100
220100
220100
420080
420080
420080
42e080
431080
421080
421080
221080
221100
221100
221100
100200
000000
000000
ENDCHAR
STARTCHAR a9d5
ENCODING 43477 
SWIDTH 495 0
DWIDTH 18 0
BBX 18 19 0 -1
BITMAP 
000000
100200
200100
200100
208100
400080
400080
408080
408080
408080
408080
408080
408080
208100
208100
208100
100200
000000
000000
ENDCHAR
STARTCHAR a9d6
ENCODING 43478 
SWIDTH 495 0
DWIDTH 18 0
BBX 18 19 0 -1
BITMAP 
000000
100200
200100
208100
200100
400080
408080
408080
408080
408080
408080
408080
408080
208100
248100
228100
110200
000000
000000
ENDCHAR
STARTCHAR a9d7
ENCODING 43479 
SWIDTH 495 0
DWIDTH 18 0
BBX 18 19 0 -1
BITMAP 
000000
100200
220100
220100
221100
422080
424080
428080
438080
424080
424080
422080
422080
221100
221100
221100
100200
000000
000000
ENDCHAR
STARTCHAR a9d8
ENCODING 43480 
SWIDTH 495 0
DWIDTH 18 0
BBX 18 19 0 -1
BITMAP 
000000
100200
208100
208100
208100
408080
408080
408080
408080
408080
408080
408080
408080
208100
208100
208100
100200
000000
000000
ENDCHAR
STARTCHAR a9d9
ENCODING 43481 
SWIDTH 495 0
DWIDTH 18 0
BBX 18 19 0 -1
BITMAP 
000000
100200
200100
200100
200100
400080
400080
4b3080
4cc880
488880
488880
488880
488880
288900
288900
288900
100200
000000
000000
ENDCHAR
STARTCHAR a9da
ENCODING 43482 
SWIDTH 495 0
DWIDTH 18 0
BBX 18 19 0 -1
BITMAP 
000000
100200
200100
200100
200100
400080
400080
427080
428880
430880
420880
420880
420880
220900
220900
220900
100200
000000
000000
ENDCHAR
STARTCHAR a9db
ENCODING 43483 
SWIDTH 495 0
DWIDTH 18 0
BBX 18 19 0 -1
BITMAP 
000000
100200
200100
200100
200100
400080
400080
40c080
412080
421080
421080
421080
421080
221100
212100
20c100
100200
000000
000000
ENDCHAR
STARTCHAR a9dc
ENCODING 43484 
SWIDTH 495 0
DWIDTH 18 0
BBX 18 19 0 -1
BITMAP 
000000
100200
200100
200100
200100
44e080
451080
460880
440880
440880
470880
44f080
440080
240100
240100
240100
140200
000000
000000
ENDCHAR
STARTCHAR a9dd
ENCODING 43485 
SWIDTH 495 0
DWIDTH 18 0
BBX 18 19 0 -1
BITMAP 
000000
100200
200100
200100
200100
400080
41c880
422880
421880
420880
421880
41e880
400880
200900
200900
200900
100a00
000000
000000
ENDCHAR
STARTCHAR a9de
ENCODING 43486 
SWIDTH 495 0
DWIDTH 18 0
BBX 18 19 0 -1
BITMAP 
000000
100200
200100
200100
200100
400080
400080
423080
424880
428880
430080
420080
420080
220100
220100
220100
100200
000000
000000
ENDCHAR
STARTCHAR a9df
ENCODING 43487 
SWIDTH 495 0
DWIDTH 18 0
BBX 18 19 0 -1
BITMAP 
000000
100200
200100
200100
200100
400080
400080
41e080
421080
440080
420080
41e080
401080
201100
241100
23e100
100200
000000
000000
ENDCHAR
ENDFONT
